<svg width="601" height="601" viewBox="0 0 601 601" fill="none" xmlns="http://www.w3.org/2000/svg">
<circle cx="300.5" cy="300.5" r="300.5" fill="black"/>
<circle cx="300.5" cy="300.5" r="298" stroke="white" stroke-opacity="0.1" stroke-width="5"/>
<g filter="url(#filter0_b_111_370)">
<circle cx="300.5" cy="300.5" r="240.5" fill="#0D0D0D"/>
</g>
<path d="M307.312 562.85C308.162 562.85 308.907 563.025 309.547 563.375C310.177 563.735 310.752 564.35 311.272 565.22L309.442 566.405C309.222 566.055 308.997 565.775 308.767 565.565C308.527 565.355 308.282 565.2 308.032 565.1C307.772 565.01 307.502 564.965 307.222 564.965C306.942 564.965 306.687 565.025 306.457 565.145C306.217 565.275 306.027 565.455 305.887 565.685C305.737 565.915 305.662 566.175 305.662 566.465C305.662 566.775 305.727 567.035 305.857 567.245C305.977 567.465 306.157 567.63 306.397 567.74C306.627 567.85 306.907 567.905 307.237 567.905C307.387 567.905 307.547 567.885 307.717 567.845C307.887 567.815 308.067 567.77 308.257 567.71C308.447 567.65 308.642 567.57 308.842 567.47L309.397 568.955L306.847 571.73L306.157 571.355L310.537 571.445V573.59H304.087L303.622 572.66L307.087 568.94L307.687 569.645C307.607 569.685 307.477 569.72 307.297 569.75C307.107 569.79 306.927 569.81 306.757 569.81C306.287 569.81 305.847 569.725 305.437 569.555C305.027 569.385 304.662 569.15 304.342 568.85C304.022 568.55 303.772 568.195 303.592 567.785C303.412 567.385 303.322 566.955 303.322 566.495C303.322 565.795 303.502 565.17 303.862 564.62C304.212 564.08 304.692 563.65 305.302 563.33C305.902 563.01 306.572 562.85 307.312 562.85ZM295.45 562.85C296.39 562.85 297.195 563.065 297.865 563.495C298.525 563.925 299.03 564.54 299.38 565.34C299.73 566.15 299.905 567.12 299.905 568.25C299.905 569.38 299.73 570.345 299.38 571.145C299.03 571.955 298.525 572.575 297.865 573.005C297.195 573.435 296.39 573.65 295.45 573.65C294.51 573.65 293.705 573.435 293.035 573.005C292.365 572.575 291.855 571.955 291.505 571.145C291.155 570.345 290.98 569.38 290.98 568.25C290.98 567.12 291.155 566.15 291.505 565.34C291.855 564.54 292.365 563.925 293.035 563.495C293.705 563.065 294.51 562.85 295.45 562.85ZM295.45 565.01C294.8 565.01 294.3 565.29 293.95 565.85C293.59 566.41 293.41 567.21 293.41 568.25C293.41 569.32 293.59 570.14 293.95 570.71C294.3 571.29 294.8 571.58 295.45 571.58C296.1 571.58 296.605 571.29 296.965 570.71C297.315 570.14 297.49 569.32 297.49 568.25C297.49 567.21 297.315 566.41 296.965 565.85C296.605 565.29 296.1 565.01 295.45 565.01Z" fill="white" fill-opacity="0.25"/>
<path d="M300.994 37.15C300.054 37.15 299.249 36.935 298.579 36.505C297.919 36.075 297.414 35.46 297.064 34.66C296.714 33.85 296.539 32.88 296.539 31.75C296.539 30.62 296.714 29.655 297.064 28.855C297.414 28.045 297.919 27.425 298.579 26.995C299.249 26.565 300.054 26.35 300.994 26.35C301.934 26.35 302.739 26.565 303.409 26.995C304.079 27.425 304.589 28.045 304.939 28.855C305.289 29.655 305.464 30.62 305.464 31.75C305.464 32.88 305.289 33.85 304.939 34.66C304.589 35.46 304.079 36.075 303.409 36.505C302.739 36.935 301.934 37.15 300.994 37.15ZM300.994 34.99C301.644 34.99 302.144 34.71 302.494 34.15C302.854 33.59 303.034 32.79 303.034 31.75C303.034 30.68 302.854 29.86 302.494 29.29C302.144 28.71 301.644 28.42 300.994 28.42C300.344 28.42 299.839 28.71 299.479 29.29C299.129 29.86 298.954 30.68 298.954 31.75C298.954 32.79 299.129 33.59 299.479 34.15C299.839 34.71 300.344 34.99 300.994 34.99Z" fill="white" fill-opacity="0.25"/>
<path d="M565.735 293.368H574.255L572.98 293.923L571.915 291.673L574.195 291.238L575.65 294.223V295.873H565.735V293.368ZM565 291.448H567.25V297.838H565V291.448ZM564.895 305.091C564.895 304.301 565.055 303.581 565.375 302.931C565.695 302.291 566.155 301.761 566.755 301.341L568.255 302.706C567.805 303.116 567.495 303.496 567.325 303.846C567.165 304.196 567.085 304.586 567.085 305.016C567.085 305.336 567.15 305.621 567.28 305.871C567.41 306.121 567.59 306.316 567.82 306.456C568.06 306.606 568.325 306.681 568.615 306.681C568.915 306.681 569.18 306.606 569.41 306.456C569.65 306.316 569.84 306.121 569.98 305.871C570.12 305.631 570.19 305.351 570.19 305.031C570.19 304.801 570.17 304.586 570.13 304.386C570.09 304.186 570.02 303.971 569.92 303.741C569.83 303.521 569.695 303.256 569.515 302.946L570.955 301.866L575.59 302.511V308.541H573.445V303.726L574.285 304.386L570.955 303.891L571.255 302.991C571.425 303.181 571.575 303.411 571.705 303.681C571.835 303.961 571.94 304.261 572.02 304.581C572.11 304.901 572.155 305.221 572.155 305.541C572.155 306.201 572 306.791 571.69 307.311C571.39 307.841 570.97 308.261 570.43 308.571C569.89 308.881 569.27 309.036 568.57 309.036C567.88 309.036 567.255 308.861 566.695 308.511C566.145 308.161 565.705 307.691 565.375 307.101C565.055 306.511 564.895 305.841 564.895 305.091Z" fill="white" fill-opacity="0.25"/>
<path d="M36 305.324H27.51L27.54 303.959L32.19 307.754L31.74 308.114V301.154H33.84V309.254L31.875 310.274L25.41 304.919V302.864H36V305.324ZM36.105 294.147C36.105 294.937 35.945 295.657 35.625 296.307C35.305 296.947 34.845 297.477 34.245 297.897L32.745 296.532C33.195 296.122 33.505 295.742 33.675 295.392C33.835 295.042 33.915 294.652 33.915 294.222C33.915 293.902 33.85 293.617 33.72 293.367C33.59 293.117 33.41 292.922 33.18 292.782C32.94 292.632 32.675 292.557 32.385 292.557C32.085 292.557 31.82 292.632 31.59 292.782C31.35 292.922 31.16 293.117 31.02 293.367C30.88 293.607 30.81 293.887 30.81 294.207C30.81 294.437 30.83 294.652 30.87 294.852C30.91 295.052 30.98 295.267 31.08 295.497C31.17 295.717 31.305 295.982 31.485 296.292L30.045 297.372L25.41 296.727V290.697H27.555V295.512L26.715 294.852L30.045 295.347L29.745 296.247C29.575 296.057 29.425 295.827 29.295 295.557C29.165 295.277 29.06 294.977 28.98 294.657C28.89 294.337 28.845 294.017 28.845 293.697C28.845 293.037 29 292.447 29.31 291.927C29.61 291.397 30.03 290.977 30.57 290.667C31.11 290.357 31.73 290.202 32.43 290.202C33.12 290.202 33.745 290.377 34.305 290.727C34.855 291.077 35.295 291.547 35.625 292.137C35.945 292.727 36.105 293.397 36.105 294.147Z" fill="white" fill-opacity="0.25"/>
<defs>
<filter id="filter0_b_111_370" x="50" y="50" width="501" height="501" filterUnits="userSpaceOnUse" color-interpolation-filters="sRGB">
<feFlood flood-opacity="0" result="BackgroundImageFix"/>
<feGaussianBlur in="BackgroundImageFix" stdDeviation="5"/>
<feComposite in2="SourceAlpha" operator="in" result="effect1_backgroundBlur_111_370"/>
<feBlend mode="normal" in="SourceGraphic" in2="effect1_backgroundBlur_111_370" result="shape"/>
</filter>
</defs>
</svg>
