<svg width="601" height="601" viewBox="0 0 601 601" fill="none" xmlns="http://www.w3.org/2000/svg">
<path d="M129.09 176.393L122.546 171.369L120.646 173.844L118.862 172.474L124.26 165.442L126.045 166.812L124.099 169.347L130.643 174.371L129.09 176.393Z" fill="white"/>
<path d="M141.283 161.693L133.448 154.703L135.145 152.8L142.98 159.79L141.283 161.693ZM136.949 166.551L129.114 159.561L130.811 157.658L138.647 164.648L136.949 166.551ZM134.553 163.086L132.861 161.557L137.424 156.441L139.126 157.959L134.553 163.086Z" fill="white"/>
<path d="M151.652 151.165C151.024 151.767 150.343 152.177 149.61 152.395C148.87 152.605 148.145 152.622 147.434 152.444C146.731 152.259 146.102 151.878 145.549 151.3L141.076 146.633L142.938 144.848L147.318 149.418C147.581 149.692 147.881 149.882 148.218 149.989C148.549 150.087 148.881 150.102 149.215 150.031C149.542 149.953 149.835 149.79 150.095 149.54C150.369 149.277 150.553 148.984 150.644 148.661C150.736 148.323 150.744 147.984 150.666 147.643C150.581 147.295 150.408 146.983 150.145 146.709L145.765 142.139L147.563 140.416L152.036 145.083C152.589 145.661 152.94 146.309 153.087 147.026C153.242 147.737 153.198 148.457 152.956 149.188C152.708 149.911 152.273 150.57 151.652 151.165Z" fill="white"/>
<path d="M160.783 142.711L154.114 134.6L157.764 131.599C158.282 131.174 158.841 130.902 159.442 130.783C160.051 130.657 160.637 130.693 161.201 130.89C161.758 131.079 162.24 131.421 162.646 131.916C163.065 132.425 163.323 132.983 163.421 133.59C163.511 134.188 163.444 134.775 163.217 135.35C162.99 135.924 162.615 136.428 162.089 136.859L160.317 138.317L162.66 141.167L160.783 142.711ZM165.279 139.014L160.206 137.049L161.984 135.101L167.526 137.166L165.279 139.014ZM159.078 136.811L160.677 135.496C160.878 135.331 161.017 135.146 161.094 134.94C161.172 134.72 161.183 134.498 161.127 134.272C161.078 134.04 160.968 133.819 160.797 133.611C160.625 133.402 160.43 133.259 160.21 133.181C159.984 133.095 159.747 133.082 159.5 133.143C159.26 133.198 159.017 133.327 158.769 133.53L157.344 134.702L159.078 136.811Z" fill="white"/>
<path d="M176.152 130.959C175.589 131.358 175.033 131.654 174.484 131.847C173.937 132.027 173.399 132.115 172.868 132.11C172.333 132.098 171.802 132.015 171.276 131.861L171.521 129.535C172.316 129.793 172.984 129.871 173.525 129.769C174.074 129.662 174.569 129.452 175.009 129.139C175.23 128.983 175.409 128.813 175.548 128.629C175.687 128.444 175.768 128.264 175.791 128.089C175.808 127.905 175.758 127.732 175.643 127.569C175.556 127.446 175.445 127.359 175.31 127.308C175.184 127.25 175.042 127.223 174.883 127.224C174.725 127.226 174.553 127.251 174.365 127.298C174.172 127.336 173.98 127.393 173.788 127.468C173.59 127.535 173.394 127.613 173.199 127.702C172.651 127.931 172.146 128.093 171.686 128.186C171.225 128.28 170.798 128.301 170.406 128.248C170.015 128.182 169.662 128.046 169.345 127.842C169.023 127.629 168.734 127.343 168.48 126.984C168.208 126.601 168.045 126.19 167.99 125.75C167.938 125.296 167.978 124.851 168.11 124.415C168.244 123.964 168.464 123.539 168.768 123.139C169.067 122.731 169.429 122.376 169.853 122.075C170.416 121.676 170.941 121.396 171.427 121.235C171.916 121.06 172.381 120.981 172.823 120.999C173.273 121.011 173.709 121.1 174.133 121.265L173.725 123.412C173.403 123.321 173.091 123.279 172.789 123.285C172.495 123.285 172.207 123.33 171.927 123.418C171.655 123.501 171.4 123.626 171.164 123.794C170.919 123.967 170.73 124.15 170.597 124.343C170.466 124.522 170.392 124.703 170.375 124.886C170.353 125.062 170.396 125.227 170.506 125.382C170.604 125.521 170.729 125.61 170.88 125.65C171.031 125.69 171.205 125.702 171.401 125.685C171.592 125.66 171.797 125.612 172.017 125.542C172.231 125.464 172.448 125.372 172.667 125.266C173.179 125.037 173.667 124.869 174.13 124.761C174.601 124.648 175.042 124.605 175.454 124.632C175.873 124.653 176.257 124.761 176.604 124.956C176.953 125.138 177.263 125.42 177.535 125.804C177.958 126.399 178.169 127.009 178.171 127.633C178.174 128.244 178.002 128.838 177.652 129.417C177.305 129.982 176.805 130.496 176.152 130.959Z" fill="white"/>
<path d="M185.498 124.441L180.071 115.452L183.833 113.181C184.492 112.783 185.163 112.53 185.845 112.421C186.523 112.305 187.179 112.329 187.816 112.493C188.461 112.653 189.057 112.942 189.601 113.36C190.146 113.779 190.618 114.318 191.015 114.977C191.413 115.636 191.673 116.309 191.795 116.994C191.912 117.671 191.891 118.333 191.731 118.978C191.575 119.609 191.291 120.202 190.877 120.755C190.458 121.3 189.919 121.771 189.26 122.169L185.498 124.441ZM186.782 121.634L186.223 121.375L188.033 120.282C188.393 120.065 188.678 119.811 188.888 119.521C189.093 119.222 189.226 118.902 189.289 118.56C189.36 118.214 189.356 117.848 189.276 117.464C189.196 117.08 189.039 116.696 188.807 116.311C188.574 115.925 188.307 115.608 188.004 115.358C187.702 115.109 187.38 114.935 187.041 114.836C186.709 114.733 186.366 114.706 186.011 114.757C185.651 114.799 185.292 114.929 184.932 115.146L183.083 116.262L183.169 115.65L186.782 121.634Z" fill="white"/>
<path d="M198.903 116.585L197.883 105.339L199.812 104.366L208.224 111.883L205.92 113.045L201.754 109.182C201.588 109.031 201.415 108.866 201.236 108.688C201.056 108.51 200.875 108.327 200.691 108.14C200.502 107.944 200.318 107.756 200.139 107.578C199.963 107.387 199.806 107.208 199.667 107.043L200.062 106.827C200.121 107.077 200.169 107.328 200.206 107.578C200.251 107.824 200.292 108.072 200.329 108.322C200.37 108.559 200.405 108.805 200.432 109.06C200.456 109.306 200.488 109.558 200.529 109.817L201.153 115.45L198.903 116.585ZM199.765 113.899L199.61 111.826L203.923 109.651L205.484 111.014L199.765 113.899Z" fill="white"/>
<path d="M216.898 108.041L214.89 103.206L215.269 103.845L209.047 99.9316L211.721 98.8214L216.497 101.873L215.26 102.338L216.196 96.9634L218.786 95.8877L217.396 103.14L217.213 102.112L219.266 107.058L216.898 108.041Z" fill="white"/>
<path d="M230.129 106.128L229.197 105.546C229.516 105.245 229.743 104.923 229.878 104.58C230.016 104.246 230.052 103.985 229.987 103.796C229.957 103.711 229.901 103.624 229.818 103.537C229.747 103.455 229.606 103.383 229.393 103.319C229.12 103.234 228.92 103.128 228.792 103.003C228.66 102.869 228.562 102.707 228.496 102.518C228.395 102.225 228.418 101.958 228.567 101.716C228.726 101.47 228.975 101.289 229.315 101.171C229.589 101.076 229.861 101.066 230.131 101.142C230.41 101.215 230.657 101.362 230.871 101.584C231.095 101.803 231.268 102.087 231.389 102.436C231.5 102.758 231.55 103.084 231.538 103.416C231.53 103.758 231.466 104.093 231.346 104.42C231.24 104.753 231.079 105.068 230.864 105.365C230.659 105.658 230.414 105.913 230.129 106.128Z" fill="white"/>
<path d="M250.714 97.0776C250.344 97.1643 249.983 97.2026 249.632 97.1925C249.283 97.1922 248.953 97.1461 248.644 97.0542C248.333 96.9525 248.044 96.8148 247.777 96.6411C247.508 96.4576 247.263 96.2429 247.041 95.9971L248.112 94.1901C248.296 94.3626 248.467 94.5022 248.626 94.6089C248.782 94.7058 248.929 94.7844 249.066 94.8446C249.213 94.9026 249.355 94.9362 249.491 94.9455C249.636 94.9525 249.782 94.9389 249.928 94.9047C250.161 94.8499 250.353 94.7485 250.504 94.6003C250.661 94.4401 250.766 94.2513 250.818 94.0337C250.869 93.8162 250.864 93.576 250.803 93.3131L249.711 88.6543L247.842 89.0923L247.335 86.9308L253.206 85.5552L253.713 87.7167L252.136 88.0862L253.296 93.0371C253.412 93.5337 253.429 94.0021 253.348 94.4424C253.276 94.8803 253.123 95.2807 252.889 95.6435C252.654 95.9966 252.35 96.2989 251.977 96.5505C251.612 96.7901 251.191 96.9658 250.714 97.0776Z" fill="white"/>
<path d="M261.376 94.5846L263.819 83.5597L265.951 83.2181L271.685 92.9336L269.137 93.3416L266.34 88.3967C266.228 88.202 266.113 87.9925 265.997 87.7682C265.88 87.5439 265.762 87.3146 265.643 87.0804C265.523 86.8363 265.405 86.6021 265.288 86.3778C265.179 86.142 265.083 85.9244 265.001 85.7249L265.443 85.639C265.423 85.8953 265.393 86.1483 265.352 86.3979C265.321 86.646 265.284 86.8948 265.243 87.1444C265.211 87.3826 265.169 87.6273 265.118 87.8785C265.065 88.1199 265.019 88.3703 264.98 88.6298L263.865 94.1861L261.376 94.5846ZM263.014 92.2868L263.495 90.2652L268.264 89.5014L269.338 91.2739L263.014 92.2868Z" fill="white"/>
<path d="M278.401 92.1156L277.556 81.6497L279.828 81.4662L285.919 88.4989L285.42 88.464C285.343 88.1391 285.278 87.8283 285.224 87.5317C285.17 87.2351 285.116 86.9435 285.063 86.6568C285.02 86.3694 284.976 86.077 284.932 85.7795C284.898 85.4813 284.862 85.1582 284.824 84.8101C284.795 84.4612 284.765 84.0825 284.732 83.6738L284.523 81.0872L286.99 80.8881L287.835 91.354L285.532 91.5399L279.183 84.2873L279.954 84.3304C280.043 84.8048 280.116 85.2103 280.173 85.5467C280.239 85.8725 280.293 86.1641 280.334 86.4216C280.385 86.6784 280.423 86.911 280.45 87.1195C280.477 87.328 280.499 87.5369 280.516 87.7463C280.542 87.9448 280.565 88.1687 280.585 88.4179L280.868 91.9165L278.401 92.1156Z" fill="white"/>
<path d="M300.653 91.09C299.783 91.09 299.008 90.915 298.328 90.565C297.648 90.205 297.113 89.715 296.723 89.095C296.343 88.475 296.153 87.765 296.153 86.965V80.5H298.733V86.83C298.733 87.21 298.818 87.555 298.988 87.865C299.158 88.165 299.388 88.405 299.678 88.585C299.968 88.755 300.293 88.84 300.653 88.84C301.033 88.84 301.368 88.755 301.658 88.585C301.958 88.405 302.198 88.165 302.378 87.865C302.558 87.555 302.648 87.21 302.648 86.83V80.5H305.138V86.965C305.138 87.765 304.943 88.475 304.553 89.095C304.173 89.715 303.643 90.205 302.963 90.565C302.283 90.915 301.513 91.09 300.653 91.09Z" fill="white"/>
<path d="M311.764 91.2032L316.704 81.0487L318.858 81.2126L322.174 91.9954L319.602 91.7996L318.031 86.3397C317.968 86.1242 317.905 85.8938 317.843 85.6484C317.782 85.4031 317.721 85.1527 317.66 84.8973C317.6 84.632 317.539 84.3767 317.477 84.1313C317.427 83.8767 317.384 83.6428 317.35 83.4296L317.8 83.4488C317.721 83.6935 317.633 83.9325 317.535 84.1658C317.447 84.3998 317.354 84.6334 317.256 84.8666C317.169 85.0906 317.071 85.3189 316.963 85.5514C316.856 85.7739 316.753 86.0067 316.654 86.2499L314.277 91.3944L311.764 91.2032ZM313.891 89.3492L314.83 87.4951L319.646 87.8616L320.278 89.8352L313.891 89.3492Z" fill="white"/>
<path d="M328.901 92.7846L330.466 82.4018L335.138 83.1061C335.8 83.2059 336.377 83.4395 336.868 83.8067C337.368 84.1755 337.734 84.6351 337.964 85.1856C338.196 85.7262 338.265 86.313 338.169 86.9458C338.071 87.5984 337.829 88.1637 337.444 88.6416C337.06 89.1096 336.578 89.4516 335.999 89.6678C335.421 89.884 334.795 89.9414 334.123 89.84L331.853 89.498L331.303 93.1467L328.901 92.7846ZM334.656 93.652L332.722 88.567L335.359 88.5852L337.533 94.0857L334.656 93.652ZM332.144 87.5697L334.191 87.8783C334.448 87.917 334.679 87.8962 334.883 87.8157C335.099 87.7269 335.272 87.5861 335.402 87.3933C335.542 87.2021 335.632 86.9729 335.672 86.706C335.712 86.439 335.688 86.1976 335.599 85.982C335.512 85.7565 335.363 85.5722 335.152 85.4291C334.951 85.2875 334.692 85.1929 334.375 85.1452L332.551 84.8702L332.144 87.5697Z" fill="white"/>
<path d="M347.201 96.025L348.36 90.9199L348.3 91.6599L345.489 84.869L348.312 85.5099L350.442 90.7619L349.165 90.4258L353.037 86.5826L355.772 87.2037L350.443 92.3157L350.888 91.3708L349.703 96.5929L347.201 96.025Z" fill="white"/>
<path d="M371.434 102.083L374.262 94.046L374.363 95.4329L371.887 95.6907L372.233 93.3956L375.532 93.0139L377.088 93.5615L373.797 102.914L371.434 102.083ZM369.379 102.139L370.126 100.017L376.154 102.138L375.407 104.26L369.379 102.139Z" fill="white"/>
<path d="M384.125 107.708L384.129 107.546L389.75 102.734L389.797 103.733C389.564 104.025 389.29 104.261 388.974 104.442C388.658 104.622 388.314 104.753 387.942 104.834C387.584 104.909 387.23 104.938 386.879 104.919C386.532 104.891 386.221 104.818 385.945 104.7C385.421 104.477 384.998 104.128 384.678 103.655C384.358 103.182 384.167 102.649 384.104 102.057C384.041 101.465 384.129 100.888 384.368 100.327C384.65 99.6647 385.061 99.1333 385.601 98.733C386.155 98.3274 386.769 98.0839 387.445 98.0023C388.125 97.9116 388.806 98.0113 389.487 98.3013C389.983 98.513 390.411 98.7983 390.769 99.1574C391.126 99.5164 391.4 99.9209 391.589 100.371C391.79 100.816 391.897 101.28 391.909 101.763C391.92 102.246 391.83 102.713 391.638 103.164C391.497 103.495 391.33 103.81 391.138 104.108C390.949 104.397 390.724 104.682 390.464 104.962C390.203 105.243 389.913 105.527 389.595 105.815C389.286 106.107 388.935 106.42 388.543 106.753L386.306 108.637L384.125 107.708ZM387.299 103.092C387.584 103.214 387.864 103.257 388.14 103.222C388.416 103.188 388.658 103.09 388.868 102.929C389.091 102.763 389.259 102.547 389.373 102.28C389.494 101.995 389.538 101.715 389.503 101.439C389.481 101.158 389.388 100.906 389.222 100.683C389.065 100.464 388.844 100.294 388.559 100.172C388.283 100.055 388.012 100.015 387.745 100.054C387.492 100.087 387.252 100.192 387.025 100.367C386.811 100.537 386.642 100.769 386.516 101.063C386.41 101.311 386.37 101.572 386.396 101.843C386.434 102.11 386.53 102.357 386.683 102.585C386.836 102.813 387.041 102.982 387.299 103.092Z" fill="white"/>
<path d="M397.184 113.692L400.917 106.334L398.134 104.923L399.152 102.916L407.058 106.927L406.04 108.934L403.191 107.488L399.458 114.845L397.184 113.692Z" fill="white"/>
<path d="M413.879 122.968L419.306 113.979L421.489 115.297L416.062 124.286L413.879 122.968ZM408.306 119.603L413.733 110.615L415.916 111.933L410.489 120.921L408.306 119.603ZM411.27 116.609L412.461 114.665L418.33 118.208L417.151 120.16L411.27 116.609Z" fill="white"/>
<path d="M420.842 131.067L420.761 129.972C421.192 130.051 421.586 130.044 421.943 129.95C422.294 129.865 422.526 129.74 422.64 129.576C422.692 129.502 422.728 129.405 422.749 129.286C422.773 129.181 422.748 129.024 422.674 128.815C422.582 128.544 422.548 128.32 422.574 128.143C422.605 127.958 422.677 127.783 422.791 127.618C422.967 127.364 423.197 127.225 423.48 127.202C423.772 127.185 424.066 127.279 424.362 127.483C424.6 127.648 424.768 127.862 424.867 128.125C424.973 128.393 425 128.679 424.947 128.983C424.903 129.293 424.776 129.6 424.565 129.904C424.372 130.184 424.138 130.417 423.862 130.604C423.582 130.799 423.274 130.944 422.939 131.041C422.607 131.152 422.258 131.208 421.892 131.21C421.534 131.218 421.184 131.17 420.842 131.067Z" fill="white"/>
<path d="M438.097 140.258L438.519 139.001L443.019 138.443C443.271 138.409 443.551 138.366 443.859 138.313C444.167 138.26 444.475 138.201 444.782 138.134C445.095 138.06 445.371 137.967 445.611 137.856C445.858 137.751 446.046 137.623 446.176 137.471C446.306 137.318 446.385 137.156 446.414 136.984C446.443 136.811 446.419 136.639 446.342 136.468C446.271 136.289 446.136 136.115 445.939 135.947C445.764 135.797 445.558 135.7 445.32 135.655C445.089 135.602 444.823 135.605 444.523 135.665C444.23 135.73 443.909 135.844 443.56 136.007L442.785 134.004C443.321 133.699 443.877 133.503 444.451 133.415C445.04 133.326 445.61 133.359 446.162 133.514C446.719 133.661 447.223 133.926 447.671 134.309C448.136 134.72 448.475 135.186 448.686 135.708C448.904 136.223 448.974 136.749 448.896 137.288C448.832 137.825 448.602 138.325 448.206 138.789C448.07 138.949 447.908 139.1 447.72 139.242C447.533 139.385 447.32 139.519 447.082 139.644C446.85 139.762 446.579 139.872 446.267 139.974C445.97 140.076 445.637 140.166 445.267 140.245C444.898 140.324 444.485 140.392 444.028 140.449L440.529 140.874L441.041 139.812L445.034 143.221L443.574 144.932L438.097 140.258Z" fill="white"/>
<path d="M451.401 152.445C450.73 151.787 450.306 151.07 450.128 150.294C449.958 149.525 450.028 148.732 450.338 147.916C450.656 147.093 451.21 146.278 452.001 145.471C452.792 144.664 453.593 144.097 454.403 143.771C455.22 143.438 456.015 143.349 456.787 143.504C457.566 143.666 458.292 144.076 458.963 144.735C459.634 145.393 460.058 146.11 460.235 146.886C460.413 147.662 460.343 148.462 460.026 149.285C459.715 150.101 459.165 150.913 458.373 151.72C457.582 152.527 456.778 153.097 455.961 153.43C455.151 153.756 454.356 153.838 453.577 153.676C452.797 153.514 452.072 153.104 451.401 152.445ZM452.913 150.903C453.377 151.358 453.93 151.509 454.572 151.354C455.222 151.206 455.91 150.761 456.638 150.018C457.388 149.254 457.833 148.543 457.975 147.884C458.132 147.225 457.978 146.668 457.513 146.212C457.049 145.757 456.486 145.611 455.823 145.773C455.174 145.935 454.475 146.398 453.725 147.162C452.997 147.904 452.562 148.598 452.42 149.243C452.285 149.895 452.449 150.448 452.913 150.903Z" fill="white"/>
<path d="M462.332 163.937C461.711 163.231 461.341 162.485 461.221 161.698C461.108 160.918 461.236 160.133 461.606 159.342C461.983 158.544 462.595 157.772 463.444 157.025C464.292 156.279 465.132 155.773 465.964 155.507C466.804 155.235 467.603 155.205 468.361 155.416C469.127 155.635 469.82 156.098 470.441 156.803C471.062 157.509 471.432 158.256 471.552 159.043C471.671 159.83 471.543 160.622 471.166 161.42C470.796 162.211 470.187 162.98 469.339 163.726C468.491 164.473 467.647 164.982 466.807 165.254C465.976 165.52 465.177 165.543 464.412 165.324C463.646 165.105 462.953 164.643 462.332 163.937ZM463.954 162.51C464.383 162.998 464.924 163.189 465.575 163.082C466.234 162.982 466.953 162.589 467.734 161.902C468.537 161.195 469.034 160.518 469.224 159.872C469.429 159.226 469.316 158.659 468.887 158.171C468.457 157.683 467.906 157.495 467.233 157.608C466.574 157.722 465.842 158.132 465.039 158.839C464.258 159.525 463.773 160.185 463.584 160.818C463.401 161.458 463.525 162.022 463.954 162.51Z" fill="white"/>
<path d="M472.121 175.605C471.793 175.176 471.559 174.713 471.418 174.216C471.292 173.721 471.258 173.232 471.315 172.747C471.381 172.256 471.533 171.788 471.771 171.342C472.015 170.904 472.347 170.524 472.769 170.202C473.063 169.977 473.369 169.794 473.688 169.651C474.014 169.502 474.359 169.377 474.722 169.275C475.099 169.176 475.496 169.093 475.911 169.028C476.341 168.964 476.798 168.904 477.284 168.847L480.131 168.522L481.561 170.393L481.478 170.532L477.689 170.86C477.197 170.908 476.747 170.969 476.337 171.043C475.936 171.111 475.547 171.194 475.169 171.293C474.792 171.393 474.399 171.504 473.99 171.628L474.521 170.618C474.86 170.485 475.212 170.418 475.576 170.417C475.948 170.409 476.305 170.457 476.648 170.56C477.005 170.665 477.324 170.811 477.606 170.999C477.896 171.18 478.134 171.394 478.323 171.64C478.681 172.109 478.882 172.635 478.925 173.219C478.982 173.804 478.895 174.374 478.664 174.928C478.433 175.482 478.071 175.948 477.579 176.324C476.991 176.773 476.359 177.042 475.684 177.13C475.015 177.226 474.366 177.143 473.737 176.881C473.115 176.626 472.576 176.201 472.121 175.605ZM473.808 174.354C474.002 174.608 474.228 174.788 474.485 174.894C474.748 175.007 475.021 175.044 475.305 175.003C475.596 174.957 475.873 174.833 476.135 174.633C476.358 174.463 476.519 174.246 476.619 173.981C476.732 173.718 476.773 173.441 476.74 173.151C476.722 172.864 476.621 172.601 476.439 172.362C476.245 172.108 476.009 171.923 475.732 171.807C475.469 171.694 475.196 171.657 474.912 171.698C474.636 171.732 474.379 171.841 474.141 172.023C473.887 172.217 473.699 172.449 473.577 172.718C473.463 172.981 473.423 173.257 473.456 173.547C473.496 173.831 473.614 174.1 473.808 174.354Z" fill="white"/>
<path d="M229.235 509.665L229.864 507.615L231.557 508.134L233.379 502.198L231.687 501.678L232.316 499.628L238.153 501.419L237.523 503.47L235.817 502.946L233.994 508.883L235.701 509.406L235.071 511.457L229.235 509.665Z" fill="white"/>
<path d="M254.659 516.344L253.463 505.447L256.015 505.917L256.565 511.631C256.588 511.89 256.601 512.151 256.603 512.416C256.617 512.673 256.617 512.917 256.605 513.149C256.603 513.382 256.594 513.599 256.577 513.799C256.562 513.99 256.553 514.151 256.549 514.282L256.225 514.222C256.351 513.869 256.459 513.554 256.551 513.276C256.653 513 256.756 512.744 256.86 512.509C256.966 512.264 257.089 512.013 257.228 511.753L259.515 507.95L261.521 508.319L262.273 512.683C262.332 513.029 262.374 513.352 262.4 513.652C262.426 513.951 262.435 514.238 262.425 514.51C262.427 514.775 262.419 515.038 262.402 515.299L262.098 515.289C262.151 515.116 262.195 514.956 262.232 514.81C262.271 514.655 262.308 514.509 262.343 514.373C262.39 514.229 262.438 514.081 262.487 513.927C262.535 513.773 262.596 513.606 262.67 513.427C262.746 513.237 262.841 513.026 262.955 512.793L265.486 507.662L267.979 508.121L262.979 517.876L261.062 517.523L259.708 511.127L259.983 511.208L256.636 516.708L254.659 516.344Z" fill="white"/>
<path d="M271.334 519.137L276.566 509.13L278.715 509.356L281.716 520.231L279.151 519.96L277.74 514.457C277.682 514.24 277.626 514.008 277.572 513.761C277.517 513.514 277.463 513.262 277.41 513.005C277.358 512.738 277.304 512.481 277.25 512.234C277.207 511.978 277.171 511.743 277.143 511.528L277.592 511.561C277.506 511.803 277.411 512.039 277.306 512.27C277.212 512.501 277.112 512.732 277.007 512.962C276.914 513.184 276.809 513.409 276.695 513.638C276.581 513.857 276.471 514.087 276.366 514.327L273.84 519.401L271.334 519.137ZM273.514 517.345L274.505 515.519L279.309 516.025L279.883 518.016L273.514 517.345Z" fill="white"/>
<path d="M292.183 520.976C291.493 520.95 290.872 520.846 290.318 520.664C289.775 520.473 289.295 520.214 288.877 519.888C288.46 519.552 288.09 519.162 287.766 518.719L289.378 517.025C289.852 517.714 290.334 518.183 290.825 518.432C291.326 518.681 291.846 518.817 292.385 518.837C292.655 518.848 292.901 518.822 293.124 518.761C293.346 518.699 293.52 518.606 293.645 518.481C293.77 518.345 293.837 518.178 293.845 517.978C293.85 517.828 293.816 517.692 293.74 517.569C293.675 517.446 293.579 517.337 293.453 517.242C293.326 517.147 293.174 517.062 292.997 516.985C292.82 516.898 292.633 516.825 292.435 516.768C292.238 516.7 292.035 516.642 291.826 516.594C291.252 516.442 290.753 516.263 290.331 516.056C289.909 515.85 289.558 515.606 289.278 515.325C289.009 515.034 288.812 514.712 288.685 514.356C288.559 513.991 288.505 513.589 288.522 513.149C288.54 512.68 288.661 512.254 288.886 511.872C289.122 511.481 289.424 511.153 289.795 510.887C290.176 510.611 290.609 510.408 291.094 510.276C291.58 510.135 292.083 510.074 292.603 510.094C293.292 510.121 293.879 510.219 294.363 510.387C294.857 510.547 295.274 510.768 295.613 511.051C295.962 511.335 296.255 511.671 296.49 512.061L294.857 513.514C294.658 513.246 294.436 513.022 294.193 512.843C293.96 512.664 293.705 512.524 293.428 512.423C293.162 512.323 292.884 512.267 292.594 512.256C292.294 512.244 292.033 512.274 291.81 512.345C291.598 512.407 291.429 512.506 291.303 512.641C291.179 512.766 291.112 512.924 291.105 513.114C291.099 513.284 291.143 513.43 291.238 513.554C291.333 513.678 291.464 513.793 291.63 513.9C291.797 513.996 291.988 514.084 292.205 514.162C292.423 514.23 292.651 514.289 292.889 514.338C293.435 514.47 293.924 514.634 294.356 514.83C294.799 515.028 295.175 515.262 295.485 515.534C295.805 515.807 296.043 516.126 296.199 516.493C296.365 516.849 296.439 517.263 296.421 517.732C296.393 518.462 296.189 519.074 295.81 519.57C295.441 520.056 294.941 520.422 294.311 520.668C293.692 520.904 292.982 521.007 292.183 520.976Z" fill="white"/>
<path d="M313.888 520.717L313.147 510.243L317.77 509.916C318.488 509.865 319.104 509.926 319.618 510.101C320.131 510.265 320.525 510.533 320.802 510.904C321.089 511.265 321.251 511.714 321.289 512.253C321.331 512.851 321.217 513.366 320.947 513.796C320.687 514.225 320.282 514.53 319.734 514.709L319.684 514.427C320.159 514.493 320.576 514.639 320.933 514.865C321.299 515.089 321.591 515.379 321.806 515.735C322.021 516.081 322.145 516.483 322.177 516.942C322.215 517.47 322.158 517.941 322.007 518.352C321.855 518.754 321.619 519.102 321.299 519.395C320.979 519.688 320.594 519.916 320.144 520.078C319.704 520.24 319.21 520.34 318.662 520.379L313.888 520.717ZM316.132 518.423L318.421 518.26C318.701 518.241 318.932 518.179 319.115 518.076C319.308 517.972 319.454 517.831 319.551 517.654C319.648 517.467 319.688 517.248 319.67 516.999C319.654 516.77 319.58 516.579 319.449 516.428C319.328 516.276 319.16 516.168 318.945 516.103C318.729 516.028 318.477 516.001 318.187 516.021L315.973 516.178L316.132 518.423ZM315.838 514.278L317.709 514.146C317.968 514.127 318.185 514.072 318.359 513.979C318.542 513.876 318.673 513.746 318.752 513.59C318.841 513.424 318.877 513.231 318.861 513.011C318.839 512.692 318.711 512.45 318.479 512.286C318.246 512.112 317.911 512.041 317.472 512.072L315.691 512.198L315.838 514.278Z" fill="white"/>
<path d="M334.71 518.796C333.919 518.91 333.177 518.881 332.485 518.708C331.793 518.536 331.17 518.242 330.615 517.827C330.059 517.412 329.601 516.897 329.239 516.283C328.878 515.668 328.64 514.97 328.527 514.188C328.414 513.406 328.444 512.669 328.617 511.978C328.79 511.286 329.084 510.662 329.499 510.107C329.913 509.552 330.428 509.094 331.043 508.732C331.657 508.37 332.355 508.133 333.137 508.02C333.919 507.907 334.656 507.937 335.348 508.11C336.04 508.283 336.663 508.576 337.218 508.991C337.773 509.406 338.227 509.921 338.579 510.537C338.94 511.152 339.178 511.85 339.291 512.632C339.402 513.404 339.372 514.141 339.201 514.843C339.038 515.533 338.749 516.156 338.334 516.711C337.919 517.266 337.405 517.724 336.79 518.086C336.176 518.448 335.482 518.684 334.71 518.796ZM334.352 516.423C334.758 516.364 335.118 516.236 335.433 516.039C335.758 515.841 336.025 515.59 336.234 515.287C336.451 514.973 336.603 514.622 336.688 514.236C336.774 513.85 336.785 513.439 336.722 513.003C336.659 512.568 336.532 512.177 336.341 511.831C336.149 511.485 335.905 511.197 335.609 510.967C335.322 510.725 334.994 510.556 334.626 510.457C334.268 510.357 333.887 510.337 333.481 510.395C333.075 510.454 332.71 510.583 332.385 510.781C332.07 510.978 331.803 511.234 331.586 511.548C331.368 511.853 331.215 512.198 331.13 512.584C331.054 512.969 331.048 513.379 331.111 513.815C331.174 514.25 331.297 514.647 331.48 515.004C331.671 515.35 331.915 515.638 332.211 515.868C332.507 516.098 332.834 516.263 333.192 516.363C333.559 516.462 333.946 516.481 334.352 516.423Z" fill="white"/>
<path d="M347.841 516.424L345.586 506.169L350.201 505.154C350.855 505.01 351.477 505.022 352.067 505.189C352.666 505.354 353.172 505.653 353.585 506.084C353.995 506.506 354.268 507.029 354.406 507.654C354.548 508.299 354.524 508.913 354.335 509.498C354.144 510.072 353.817 510.564 353.354 510.973C352.891 511.382 352.327 511.659 351.663 511.805L349.422 512.298L350.214 515.902L347.841 516.424ZM353.525 515.174L349.9 511.118L352.368 510.191L356.367 514.549L353.525 515.174ZM349.003 510.393L351.025 509.949C351.279 509.893 351.487 509.791 351.649 509.643C351.818 509.483 351.929 509.289 351.982 509.063C352.044 508.834 352.046 508.588 351.988 508.324C351.93 508.06 351.821 507.844 351.661 507.674C351.499 507.495 351.294 507.376 351.045 507.318C350.807 507.258 350.531 507.262 350.219 507.331L348.417 507.727L349.003 510.393Z" fill="white"/>
<path d="M363.534 512.721L360.539 502.657L362.724 502.007L370.14 507.625L369.644 507.694C369.502 507.392 369.374 507.102 369.259 506.823C369.145 506.544 369.032 506.269 368.921 506C368.819 505.728 368.716 505.451 368.611 505.169C368.516 504.884 368.413 504.576 368.304 504.243C368.204 503.907 368.096 503.543 367.979 503.15L367.238 500.663L369.611 499.957L372.606 510.021L370.392 510.68L362.678 504.9L363.441 504.783C363.626 505.228 363.781 505.61 363.907 505.927C364.039 506.232 364.152 506.506 364.245 506.75C364.348 506.991 364.435 507.21 364.504 507.408C364.573 507.607 364.638 507.807 364.698 508.008C364.765 508.197 364.834 508.411 364.905 508.651L365.906 512.015L363.534 512.721Z" fill="white"/>
</svg>
