<svg width="602" height="602" viewBox="0 0 602 602" fill="none" xmlns="http://www.w3.org/2000/svg">
<g opacity="0.76">
<path d="M301.11 0.219727L269.127 1.92432L237.507 7.01883L206.607 15.4455L176.778 27.1089L148.358 41.8768L121.669 59.5819L97.0123 80.0236L74.6685 102.97L54.8904 128.162L37.902 155.313L23.8959 184.117L13.0308 214.245L5.42957 245.358L1.17865 277.103L0.32605 309.12L2.88147 341.046L8.81592 372.519L18.0621 403.184L30.5154 432.692L46.0347 460.708L64.444 486.917L85.5349 511.021L109.068 532.746L134.778 551.846L162.371 568.106L191.537 581.34L221.945 591.399L253.249 598.169L285.096 601.574H317.124L348.97 598.169L380.275 591.399L410.682 581.34L439.848 568.106L467.442 551.846L493.151 532.746L516.685 511.021L537.775 486.917L556.185 460.708L571.704 432.692L584.157 403.184L593.404 372.519L599.338 341.046L601.893 309.12L601.041 277.103L596.79 245.358L589.189 214.245L578.324 184.117L564.317 155.313L547.329 128.162L527.551 102.97L505.207 80.0236L480.551 59.5819L453.861 41.8768L425.441 27.1089L395.612 15.4455L364.713 7.01883L333.092 1.92432L301.11 0.219727Z" fill="url(#paint0_linear_122_516)"/>
<path d="M366.83 27.9836C374.242 29.7483 383.742 27.2483 387.565 25.7778L405.949 22.2524C419.38 27.214 447.728 38.3907 453.675 43.4045C459.621 48.4184 462.372 51.389 463.004 52.2476C459.475 49.4535 451.975 44.6596 450.21 47.8359C448.005 51.8064 498.738 94.5992 505.356 99.0109C511.973 103.423 511.973 111.805 516.385 117.981C520.797 124.157 530.061 131.657 532.708 135.627C535.355 139.598 542.414 145.774 536.237 147.539C530.061 149.303 522.12 133.863 519.032 131.657C515.944 129.451 515.503 126.804 511.973 130.333C508.444 133.863 523.002 146.657 527.855 154.597C532.708 162.538 545.502 170.92 547.708 173.567C549.913 176.214 548.149 181.95 549.913 187.243C551.678 192.537 552.56 210.184 548.149 217.684C543.737 225.184 546.825 241.507 545.502 241.507C544.178 241.507 541.531 229.595 538.002 229.154C534.473 228.713 535.355 242.389 537.12 246.359C538.884 250.33 551.678 259.594 551.678 271.064C551.678 282.535 550.796 294.005 545.061 293.564C539.325 293.123 538.002 285.182 536.237 282.094C534.473 279.005 533.149 278.564 530.943 278.564C528.738 278.564 527.414 282.535 528.296 292.681C529.179 302.828 539.767 313.416 541.972 320.034C544.178 326.651 541.972 333.268 539.767 333.268C537.561 333.268 532.708 326.651 530.943 320.034C529.179 313.416 527.414 311.21 524.767 306.799C522.12 302.387 519.914 277.241 519.914 275.035C519.914 272.829 517.708 269.741 515.503 269.741C513.297 269.741 514.179 272.388 510.65 272.388C507.12 272.388 498.738 256.506 495.65 251.212C492.562 245.918 490.797 237.095 485.945 241.507C481.092 245.918 477.562 245.036 474.915 252.536C474.474 258.712 460.357 274.153 455.504 282.976C450.651 291.799 451.975 315.622 451.093 319.592C450.21 323.563 447.122 329.298 444.034 329.298C440.946 329.298 436.975 315.181 433.005 308.563C429.034 301.946 420.652 286.946 417.123 275.035C413.594 263.124 411.829 260.477 410.064 260.477C408.3 260.477 406.976 264.447 403.447 264.447C399.918 264.447 395.947 257.388 389.771 251.212C384.83 246.271 379.771 245.036 377.859 245.036H352.713C347.86 245.036 339.478 237.095 335.949 237.095C332.42 237.095 331.537 241.065 329.331 241.065C327.126 241.065 325.802 241.065 322.273 239.301C318.743 237.536 310.361 228.713 306.391 224.742C302.42 220.772 299.773 220.772 296.685 221.213C293.597 221.654 293.156 226.066 294.921 229.595C296.685 233.124 302.42 241.065 305.508 241.507C308.597 241.948 308.155 242.83 309.92 247.242C311.685 251.653 316.096 254.3 319.626 254.3C323.155 254.3 329.773 244.595 331.537 244.595C333.302 244.595 334.184 245.036 337.272 250.33C340.36 255.624 342.125 256.506 345.654 258.712C349.184 260.918 349.184 264.006 349.184 265.771C349.184 267.535 346.096 268.418 344.331 270.182C342.566 271.947 343.89 275.917 340.802 280.329C337.713 284.741 326.243 287.388 320.508 290.476C314.773 293.564 312.567 300.181 308.155 300.181C303.744 300.181 279.039 315.622 275.951 315.622C272.862 315.622 269.774 316.504 268.01 311.652C266.245 306.799 262.716 290.917 261.392 286.505C260.069 282.094 240.657 246.359 236.246 237.095C231.834 227.831 226.54 226.507 224.775 226.507C223.011 226.507 229.187 249.889 236.246 262.241C243.304 274.594 240.657 275.476 241.54 280.329C242.422 285.182 242.863 282.976 246.393 290.476C249.922 297.975 258.304 304.152 264.039 313.857C269.774 323.563 274.186 326.21 280.362 325.328C286.538 324.445 291.832 322.681 294.921 322.681C298.009 322.681 299.773 320.475 303.303 320.475C306.832 320.475 306.391 321.357 305.95 329.298C304.185 345.18 271.098 374.297 260.069 382.679C249.039 391.061 248.157 402.531 247.716 410.472C247.275 418.413 253.892 434.736 253.892 436.942C253.892 439.148 255.657 439.148 255.657 441.795C255.657 444.442 254.775 445.324 253.892 448.412C253.01 451.5 247.716 456.794 238.452 460.765C229.187 464.735 230.511 468.264 230.511 471.353C230.511 474.441 236.246 479.735 236.246 480.617C236.246 481.499 236.246 482.823 232.275 484.146C228.305 485.47 226.54 486.352 223.452 493.411C220.981 499.058 214.188 505.469 211.099 507.969C204.041 508.263 188.776 508.675 184.188 507.969C178.453 507.087 165.218 488.999 162.571 486.352C159.924 483.705 145.807 465.617 142.719 457.677C139.631 449.736 134.337 444.442 133.013 442.677C131.69 440.912 126.837 436.06 126.837 432.53C126.837 429.001 130.366 427.236 130.808 416.648C131.249 406.06 126.837 405.619 123.749 392.826C120.661 380.032 109.632 367.238 107.867 361.503C106.102 355.768 112.279 338.562 106.102 333.71C99.926 328.857 95.0732 324.886 93.7497 320.916C92.4262 316.945 82.2795 315.181 79.6325 315.181C76.9855 315.181 75.2208 316.504 73.4562 316.504C71.6915 316.504 70.8092 315.622 69.0445 315.181C67.2799 314.74 64.6329 309.887 59.3389 309.005C54.045 308.122 47.8687 286.946 47.8687 280.77C47.8687 274.594 45.6628 258.712 45.6628 251.653C45.6628 244.595 52.7215 229.154 52.7215 222.978C52.7215 216.801 62.8682 204.008 66.8387 200.92C70.8092 197.831 88.0146 175.332 92.8674 174.009C97.7202 172.685 102.132 164.744 105.661 164.744C109.19 164.744 109.632 166.509 113.161 166.95C116.69 167.391 142.719 166.95 145.366 166.95C148.013 166.95 147.572 167.391 148.895 168.273C150.219 169.156 151.542 171.803 149.778 174.45C148.013 177.097 145.807 181.95 146.248 185.92C146.689 189.89 165.218 207.096 168.306 207.096C171.395 207.096 174.483 202.243 177.571 202.243C180.659 202.243 182.865 203.125 189.041 206.214C195.217 209.302 211.099 210.184 215.511 210.184C219.923 210.184 223.452 209.743 231.393 207.537C239.334 205.331 241.981 192.537 241.981 187.243C241.981 181.95 217.276 182.391 213.746 181.95C210.217 181.508 208.452 176.656 208.452 174.009C208.452 171.362 211.099 170.479 211.099 166.509C211.099 162.538 209.335 161.215 206.452 161.215C203.569 161.215 197.423 165.185 197.423 170.038C197.423 174.891 195.659 180.185 194.776 180.185C193.894 180.185 190.806 181.508 189.482 178.861C188.159 176.214 188.6 154.156 188.159 148.421C187.718 142.686 181.983 133.863 178.894 133.863C175.806 133.863 174.924 141.363 174.924 143.568C174.924 145.774 177.571 148.862 178.012 149.303C178.453 149.745 178.453 151.95 180.218 153.274C181.983 154.597 181.541 158.568 181.541 159.009C181.541 159.45 180.659 160.774 179.777 161.215C178.894 161.656 176.689 161.215 176.247 162.538C175.806 163.862 175.365 166.509 174.042 166.509C172.718 166.509 171.836 169.597 170.953 169.597C170.071 169.597 169.63 168.715 169.63 166.95C169.63 165.185 171.395 164.744 171.836 162.097C172.277 159.45 170.953 155.48 168.748 152.392C166.542 149.303 165.66 144.451 165.66 140.921C165.66 137.392 159.924 136.951 155.954 136.951C151.983 136.951 149.336 137.833 146.689 138.274C144.042 138.716 132.131 146.656 127.719 151.509C123.308 156.362 114.926 158.127 111.838 158.127C108.749 158.127 103.455 153.715 103.897 151.068C104.338 148.421 117.573 126.363 123.749 126.363C129.925 126.363 126.837 129.892 133.013 129.892C139.19 129.892 140.513 122.834 142.719 116.216C144.925 109.599 151.542 107.834 157.277 106.952C163.013 106.069 162.571 105.187 162.571 102.981C162.571 100.776 150.219 104.746 150.219 101.658C150.219 98.5697 160.807 93.2757 161.248 91.0699C161.689 88.8641 149.778 93.7169 148.895 93.7169C148.013 93.7169 147.131 92.3934 146.689 91.5111C146.248 90.6288 146.689 88.8641 152.425 87.0995C158.16 85.3348 161.248 84.8937 163.012 84.8937C164.777 84.8937 174.483 75.6292 175.365 74.7469C176.247 73.8646 181.1 71.2176 181.983 73.8646C182.865 76.5116 166.101 93.7169 165.66 95.4816C165.218 97.2462 166.983 99.8932 168.748 100.776C170.512 101.658 172.718 100.776 177.13 99.0109C181.541 97.2462 185.071 97.6874 187.277 96.8051C189.482 95.9227 191.247 92.8346 193.453 92.8346C195.659 92.8346 199.188 97.2462 200.511 97.6874C201.835 98.1285 217.717 99.0109 220.364 97.2462C223.011 95.4816 244.628 80.482 244.628 78.7174C244.628 76.9527 241.099 77.3939 238.452 77.3939C235.805 77.3939 235.805 76.9527 235.363 75.6292C234.922 74.3057 250.363 62.8355 250.363 61.512C250.363 60.1885 249.922 60.1885 249.04 59.7474C248.157 59.3062 228.746 68.1295 225.658 76.0704C222.57 84.0113 210.658 91.5111 207.129 91.5111C203.6 91.5111 201.835 91.5111 201.394 89.3053C200.953 87.0995 205.805 83.129 206.247 81.3643C206.688 79.5997 206.247 79.1585 204.482 78.2762C202.717 77.3939 195.659 80.482 195.218 79.5997C194.776 78.7174 195.659 76.5116 196.982 74.3057C197.423 70.7764 223.011 62.8355 232.275 59.3062C241.54 55.7769 257.422 47.3948 268.01 47.3948C278.598 47.3948 284.774 57.1004 284.774 58.4239C284.774 59.7474 283.009 60.1885 278.156 61.0708C273.303 61.9532 270.215 62.3943 271.098 65.4825C271.98 68.5706 279.48 68.1295 284.774 66.3648C290.068 64.6001 305.067 57.5415 313.891 55.7769C322.714 54.0122 332.861 57.1004 336.39 53.5711C339.919 50.0418 334.184 49.1594 332.861 46.5125C331.537 43.8655 335.949 41.6597 338.155 41.6597C340.36 41.6597 341.684 44.7478 344.772 44.7478C347.86 44.7478 349.625 36.3657 350.066 33.7187C350.507 31.0717 357.566 25.7778 366.83 27.9836Z" fill="url(#paint1_linear_122_516)" style="mix-blend-mode:hard-light"/>
<path d="M366.83 27.9836C374.242 29.7483 383.742 27.2483 387.565 25.7778L405.949 22.2524C419.38 27.214 447.728 38.3907 453.675 43.4045C459.621 48.4184 462.372 51.389 463.004 52.2476C459.475 49.4535 451.975 44.6596 450.21 47.8359C448.005 51.8064 498.738 94.5992 505.356 99.0109C511.973 103.423 511.973 111.805 516.385 117.981C520.797 124.157 530.061 131.657 532.708 135.627C535.355 139.598 542.414 145.774 536.237 147.539C530.061 149.303 522.12 133.863 519.032 131.657C515.944 129.451 515.503 126.804 511.973 130.333C508.444 133.863 523.002 146.657 527.855 154.597C532.708 162.538 545.502 170.92 547.708 173.567C549.913 176.214 548.149 181.95 549.913 187.243C551.678 192.537 552.56 210.184 548.149 217.684C543.737 225.184 546.825 241.507 545.502 241.507C544.178 241.507 541.531 229.595 538.002 229.154C534.473 228.713 535.355 242.389 537.12 246.359C538.884 250.33 551.678 259.594 551.678 271.064C551.678 282.535 550.796 294.005 545.061 293.564C539.325 293.123 538.002 285.182 536.237 282.094C534.473 279.005 533.149 278.564 530.943 278.564C528.738 278.564 527.414 282.535 528.296 292.681C529.179 302.828 539.767 313.416 541.972 320.034C544.178 326.651 541.972 333.268 539.767 333.268C537.561 333.268 532.708 326.651 530.943 320.034C529.179 313.416 527.414 311.21 524.767 306.799C522.12 302.387 519.914 277.241 519.914 275.035C519.914 272.829 517.708 269.741 515.503 269.741C513.297 269.741 514.179 272.388 510.65 272.388C507.12 272.388 498.738 256.506 495.65 251.212C492.562 245.918 490.797 237.095 485.945 241.507C481.092 245.918 477.562 245.036 474.915 252.536C474.474 258.712 460.357 274.153 455.504 282.976C450.651 291.799 451.975 315.622 451.093 319.592C450.21 323.563 447.122 329.298 444.034 329.298C440.946 329.298 436.975 315.181 433.005 308.563C429.034 301.946 420.652 286.946 417.123 275.035C413.594 263.124 411.829 260.477 410.064 260.477C408.3 260.477 406.976 264.447 403.447 264.447C399.918 264.447 395.947 257.388 389.771 251.212C384.83 246.271 379.771 245.036 377.859 245.036H352.713C347.86 245.036 339.478 237.095 335.949 237.095C332.42 237.095 331.537 241.065 329.331 241.065C327.126 241.065 325.802 241.065 322.273 239.301C318.743 237.536 310.361 228.713 306.391 224.742C302.42 220.772 299.773 220.772 296.685 221.213C293.597 221.654 293.156 226.066 294.921 229.595C296.685 233.124 302.42 241.065 305.508 241.507C308.597 241.948 308.155 242.83 309.92 247.242C311.685 251.653 316.096 254.3 319.626 254.3C323.155 254.3 329.773 244.595 331.537 244.595C333.302 244.595 334.184 245.036 337.272 250.33C340.36 255.624 342.125 256.506 345.654 258.712C349.184 260.918 349.184 264.006 349.184 265.771C349.184 267.535 346.096 268.418 344.331 270.182C342.566 271.947 343.89 275.917 340.802 280.329C337.713 284.741 326.243 287.388 320.508 290.476C314.773 293.564 312.567 300.181 308.155 300.181C303.744 300.181 279.039 315.622 275.951 315.622C272.862 315.622 269.774 316.504 268.01 311.652C266.245 306.799 262.716 290.917 261.392 286.505C260.069 282.094 240.657 246.359 236.246 237.095C231.834 227.831 226.54 226.507 224.775 226.507C223.011 226.507 229.187 249.889 236.246 262.241C243.304 274.594 240.657 275.476 241.54 280.329C242.422 285.182 242.863 282.976 246.393 290.476C249.922 297.975 258.304 304.152 264.039 313.857C269.774 323.563 274.186 326.21 280.362 325.328C286.538 324.445 291.832 322.681 294.921 322.681C298.009 322.681 299.773 320.475 303.303 320.475C306.832 320.475 306.391 321.357 305.95 329.298C304.185 345.18 271.098 374.297 260.069 382.679C249.039 391.061 248.157 402.531 247.716 410.472C247.275 418.413 253.892 434.736 253.892 436.942C253.892 439.148 255.657 439.148 255.657 441.795C255.657 444.442 254.775 445.324 253.892 448.412C253.01 451.5 247.716 456.794 238.452 460.765C229.187 464.735 230.511 468.264 230.511 471.353C230.511 474.441 236.246 479.735 236.246 480.617C236.246 481.499 236.246 482.823 232.275 484.146C228.305 485.47 226.54 486.352 223.452 493.411C220.981 499.058 214.188 505.469 211.099 507.969C204.041 508.263 188.776 508.675 184.188 507.969C178.453 507.087 165.218 488.999 162.571 486.352C159.924 483.705 145.807 465.617 142.719 457.677C139.631 449.736 134.337 444.442 133.013 442.677C131.69 440.912 126.837 436.06 126.837 432.53C126.837 429.001 130.366 427.236 130.808 416.648C131.249 406.06 126.837 405.619 123.749 392.826C120.661 380.032 109.632 367.238 107.867 361.503C106.102 355.768 112.279 338.562 106.102 333.71C99.926 328.857 95.0732 324.886 93.7497 320.916C92.4262 316.945 82.2795 315.181 79.6325 315.181C76.9855 315.181 75.2208 316.504 73.4562 316.504C71.6915 316.504 70.8092 315.622 69.0445 315.181C67.2799 314.74 64.6329 309.887 59.3389 309.005C54.045 308.122 47.8687 286.946 47.8687 280.77C47.8687 274.594 45.6628 258.712 45.6628 251.653C45.6628 244.595 52.7215 229.154 52.7215 222.978C52.7215 216.801 62.8682 204.008 66.8387 200.92C70.8092 197.831 88.0146 175.332 92.8674 174.009C97.7202 172.685 102.132 164.744 105.661 164.744C109.19 164.744 109.632 166.509 113.161 166.95C116.69 167.391 142.719 166.95 145.366 166.95C148.013 166.95 147.572 167.391 148.895 168.273C150.219 169.156 151.542 171.803 149.778 174.45C148.013 177.097 145.807 181.95 146.248 185.92C146.689 189.89 165.218 207.096 168.306 207.096C171.395 207.096 174.483 202.243 177.571 202.243C180.659 202.243 182.865 203.125 189.041 206.214C195.217 209.302 211.099 210.184 215.511 210.184C219.923 210.184 223.452 209.743 231.393 207.537C239.334 205.331 241.981 192.537 241.981 187.243C241.981 181.95 217.276 182.391 213.746 181.95C210.217 181.508 208.452 176.656 208.452 174.009C208.452 171.362 211.099 170.479 211.099 166.509C211.099 162.538 209.335 161.215 206.452 161.215C203.569 161.215 197.423 165.185 197.423 170.038C197.423 174.891 195.659 180.185 194.776 180.185C193.894 180.185 190.806 181.508 189.482 178.861C188.159 176.214 188.6 154.156 188.159 148.421C187.718 142.686 181.983 133.863 178.894 133.863C175.806 133.863 174.924 141.363 174.924 143.568C174.924 145.774 177.571 148.862 178.012 149.303C178.453 149.745 178.453 151.95 180.218 153.274C181.983 154.597 181.541 158.568 181.541 159.009C181.541 159.45 180.659 160.774 179.777 161.215C178.894 161.656 176.689 161.215 176.247 162.538C175.806 163.862 175.365 166.509 174.042 166.509C172.718 166.509 171.836 169.597 170.953 169.597C170.071 169.597 169.63 168.715 169.63 166.95C169.63 165.185 171.395 164.744 171.836 162.097C172.277 159.45 170.953 155.48 168.748 152.392C166.542 149.303 165.66 144.451 165.66 140.921C165.66 137.392 159.924 136.951 155.954 136.951C151.983 136.951 149.336 137.833 146.689 138.274C144.042 138.716 132.131 146.656 127.719 151.509C123.308 156.362 114.926 158.127 111.838 158.127C108.749 158.127 103.455 153.715 103.897 151.068C104.338 148.421 117.573 126.363 123.749 126.363C129.925 126.363 126.837 129.892 133.013 129.892C139.19 129.892 140.513 122.834 142.719 116.216C144.925 109.599 151.542 107.834 157.277 106.952C163.013 106.069 162.571 105.187 162.571 102.981C162.571 100.776 150.219 104.746 150.219 101.658C150.219 98.5697 160.807 93.2757 161.248 91.0699C161.689 88.8641 149.778 93.7169 148.895 93.7169C148.013 93.7169 147.131 92.3934 146.689 91.5111C146.248 90.6288 146.689 88.8641 152.425 87.0995C158.16 85.3348 161.248 84.8937 163.012 84.8937C164.777 84.8937 174.483 75.6292 175.365 74.7469C176.247 73.8646 181.1 71.2176 181.983 73.8646C182.865 76.5116 166.101 93.7169 165.66 95.4816C165.218 97.2462 166.983 99.8932 168.748 100.776C170.512 101.658 172.718 100.776 177.13 99.0109C181.541 97.2462 185.071 97.6874 187.277 96.8051C189.482 95.9227 191.247 92.8346 193.453 92.8346C195.659 92.8346 199.188 97.2462 200.511 97.6874C201.835 98.1285 217.717 99.0109 220.364 97.2462C223.011 95.4816 244.628 80.482 244.628 78.7174C244.628 76.9527 241.099 77.3939 238.452 77.3939C235.805 77.3939 235.805 76.9527 235.363 75.6292C234.922 74.3057 250.363 62.8355 250.363 61.512C250.363 60.1885 249.922 60.1885 249.04 59.7474C248.157 59.3062 228.746 68.1295 225.658 76.0704C222.57 84.0113 210.658 91.5111 207.129 91.5111C203.6 91.5111 201.835 91.5111 201.394 89.3053C200.953 87.0995 205.805 83.129 206.247 81.3643C206.688 79.5997 206.247 79.1585 204.482 78.2762C202.717 77.3939 195.659 80.482 195.218 79.5997C194.776 78.7174 195.659 76.5116 196.982 74.3057C197.423 70.7764 223.011 62.8355 232.275 59.3062C241.54 55.7769 257.422 47.3948 268.01 47.3948C278.598 47.3948 284.774 57.1004 284.774 58.4239C284.774 59.7474 283.009 60.1885 278.156 61.0708C273.303 61.9532 270.215 62.3943 271.098 65.4825C271.98 68.5706 279.48 68.1295 284.774 66.3648C290.068 64.6001 305.067 57.5415 313.891 55.7769C322.714 54.0122 332.861 57.1004 336.39 53.5711C339.919 50.0418 334.184 49.1594 332.861 46.5125C331.537 43.8655 335.949 41.6597 338.155 41.6597C340.36 41.6597 341.684 44.7478 344.772 44.7478C347.86 44.7478 349.625 36.3657 350.066 33.7187C350.507 31.0717 357.566 25.7778 366.83 27.9836Z" fill="url(#paint2_linear_122_516)" style="mix-blend-mode:soft-light"/>
<path d="M366.83 27.9836C374.242 29.7483 383.742 27.2483 387.565 25.7778L405.949 22.2524C419.38 27.214 447.728 38.3907 453.675 43.4045C459.621 48.4184 462.372 51.389 463.004 52.2476C459.475 49.4535 451.975 44.6596 450.21 47.8359C448.005 51.8064 498.738 94.5992 505.356 99.0109C511.973 103.423 511.973 111.805 516.385 117.981C520.797 124.157 530.061 131.657 532.708 135.627C535.355 139.598 542.414 145.774 536.237 147.539C530.061 149.303 522.12 133.863 519.032 131.657C515.944 129.451 515.503 126.804 511.973 130.333C508.444 133.863 523.002 146.657 527.855 154.597C532.708 162.538 545.502 170.92 547.708 173.567C549.913 176.214 548.149 181.95 549.913 187.243C551.678 192.537 552.56 210.184 548.149 217.684C543.737 225.184 546.825 241.507 545.502 241.507C544.178 241.507 541.531 229.595 538.002 229.154C534.473 228.713 535.355 242.389 537.12 246.359C538.884 250.33 551.678 259.594 551.678 271.064C551.678 282.535 550.796 294.005 545.061 293.564C539.325 293.123 538.002 285.182 536.237 282.094C534.473 279.005 533.149 278.564 530.943 278.564C528.738 278.564 527.414 282.535 528.296 292.681C529.179 302.828 539.767 313.416 541.972 320.034C544.178 326.651 541.972 333.268 539.767 333.268C537.561 333.268 532.708 326.651 530.943 320.034C529.179 313.416 527.414 311.21 524.767 306.799C522.12 302.387 519.914 277.241 519.914 275.035C519.914 272.829 517.708 269.741 515.503 269.741C513.297 269.741 514.179 272.388 510.65 272.388C507.12 272.388 498.738 256.506 495.65 251.212C492.562 245.918 490.797 237.095 485.945 241.507C481.092 245.918 477.562 245.036 474.915 252.536C474.474 258.712 460.357 274.153 455.504 282.976C450.651 291.799 451.975 315.622 451.093 319.592C450.21 323.563 447.122 329.298 444.034 329.298C440.946 329.298 436.975 315.181 433.005 308.563C429.034 301.946 420.652 286.946 417.123 275.035C413.594 263.124 411.829 260.477 410.064 260.477C408.3 260.477 406.976 264.447 403.447 264.447C399.918 264.447 395.947 257.388 389.771 251.212C384.83 246.271 379.771 245.036 377.859 245.036H352.713C347.86 245.036 339.478 237.095 335.949 237.095C332.42 237.095 331.537 241.065 329.331 241.065C327.126 241.065 325.802 241.065 322.273 239.301C318.743 237.536 310.361 228.713 306.391 224.742C302.42 220.772 299.773 220.772 296.685 221.213C293.597 221.654 293.156 226.066 294.921 229.595C296.685 233.124 302.42 241.065 305.508 241.507C308.597 241.948 308.155 242.83 309.92 247.242C311.685 251.653 316.096 254.3 319.626 254.3C323.155 254.3 329.773 244.595 331.537 244.595C333.302 244.595 334.184 245.036 337.272 250.33C340.36 255.624 342.125 256.506 345.654 258.712C349.184 260.918 349.184 264.006 349.184 265.771C349.184 267.535 346.096 268.418 344.331 270.182C342.566 271.947 343.89 275.917 340.802 280.329C337.713 284.741 326.243 287.388 320.508 290.476C314.773 293.564 312.567 300.181 308.155 300.181C303.744 300.181 279.039 315.622 275.951 315.622C272.862 315.622 269.774 316.504 268.01 311.652C266.245 306.799 262.716 290.917 261.392 286.505C260.069 282.094 240.657 246.359 236.246 237.095C231.834 227.831 226.54 226.507 224.775 226.507C223.011 226.507 229.187 249.889 236.246 262.241C243.304 274.594 240.657 275.476 241.54 280.329C242.422 285.182 242.863 282.976 246.393 290.476C249.922 297.975 258.304 304.152 264.039 313.857C269.774 323.563 274.186 326.21 280.362 325.328C286.538 324.445 291.832 322.681 294.921 322.681C298.009 322.681 299.773 320.475 303.303 320.475C306.832 320.475 306.391 321.357 305.95 329.298C304.185 345.18 271.098 374.297 260.069 382.679C249.039 391.061 248.157 402.531 247.716 410.472C247.275 418.413 253.892 434.736 253.892 436.942C253.892 439.148 255.657 439.148 255.657 441.795C255.657 444.442 254.775 445.324 253.892 448.412C253.01 451.5 247.716 456.794 238.452 460.765C229.187 464.735 230.511 468.264 230.511 471.353C230.511 474.441 236.246 479.735 236.246 480.617C236.246 481.499 236.246 482.823 232.275 484.146C228.305 485.47 226.54 486.352 223.452 493.411C220.981 499.058 214.188 505.469 211.099 507.969C204.041 508.263 188.776 508.675 184.188 507.969C178.453 507.087 165.218 488.999 162.571 486.352C159.924 483.705 145.807 465.617 142.719 457.677C139.631 449.736 134.337 444.442 133.013 442.677C131.69 440.912 126.837 436.06 126.837 432.53C126.837 429.001 130.366 427.236 130.808 416.648C131.249 406.06 126.837 405.619 123.749 392.826C120.661 380.032 109.632 367.238 107.867 361.503C106.102 355.768 112.279 338.562 106.102 333.71C99.926 328.857 95.0732 324.886 93.7497 320.916C92.4262 316.945 82.2795 315.181 79.6325 315.181C76.9855 315.181 75.2208 316.504 73.4562 316.504C71.6915 316.504 70.8092 315.622 69.0445 315.181C67.2799 314.74 64.6329 309.887 59.3389 309.005C54.045 308.122 47.8687 286.946 47.8687 280.77C47.8687 274.594 45.6628 258.712 45.6628 251.653C45.6628 244.595 52.7215 229.154 52.7215 222.978C52.7215 216.801 62.8682 204.008 66.8387 200.92C70.8092 197.831 88.0146 175.332 92.8674 174.009C97.7202 172.685 102.132 164.744 105.661 164.744C109.19 164.744 109.632 166.509 113.161 166.95C116.69 167.391 142.719 166.95 145.366 166.95C148.013 166.95 147.572 167.391 148.895 168.273C150.219 169.156 151.542 171.803 149.778 174.45C148.013 177.097 145.807 181.95 146.248 185.92C146.689 189.89 165.218 207.096 168.306 207.096C171.395 207.096 174.483 202.243 177.571 202.243C180.659 202.243 182.865 203.125 189.041 206.214C195.217 209.302 211.099 210.184 215.511 210.184C219.923 210.184 223.452 209.743 231.393 207.537C239.334 205.331 241.981 192.537 241.981 187.243C241.981 181.95 217.276 182.391 213.746 181.95C210.217 181.508 208.452 176.656 208.452 174.009C208.452 171.362 211.099 170.479 211.099 166.509C211.099 162.538 209.335 161.215 206.452 161.215C203.569 161.215 197.423 165.185 197.423 170.038C197.423 174.891 195.659 180.185 194.776 180.185C193.894 180.185 190.806 181.508 189.482 178.861C188.159 176.214 188.6 154.156 188.159 148.421C187.718 142.686 181.983 133.863 178.894 133.863C175.806 133.863 174.924 141.363 174.924 143.568C174.924 145.774 177.571 148.862 178.012 149.303C178.453 149.745 178.453 151.95 180.218 153.274C181.983 154.597 181.541 158.568 181.541 159.009C181.541 159.45 180.659 160.774 179.777 161.215C178.894 161.656 176.689 161.215 176.247 162.538C175.806 163.862 175.365 166.509 174.042 166.509C172.718 166.509 171.836 169.597 170.953 169.597C170.071 169.597 169.63 168.715 169.63 166.95C169.63 165.185 171.395 164.744 171.836 162.097C172.277 159.45 170.953 155.48 168.748 152.392C166.542 149.303 165.66 144.451 165.66 140.921C165.66 137.392 159.924 136.951 155.954 136.951C151.983 136.951 149.336 137.833 146.689 138.274C144.042 138.716 132.131 146.656 127.719 151.509C123.308 156.362 114.926 158.127 111.838 158.127C108.749 158.127 103.455 153.715 103.897 151.068C104.338 148.421 117.573 126.363 123.749 126.363C129.925 126.363 126.837 129.892 133.013 129.892C139.19 129.892 140.513 122.834 142.719 116.216C144.925 109.599 151.542 107.834 157.277 106.952C163.013 106.069 162.571 105.187 162.571 102.981C162.571 100.776 150.219 104.746 150.219 101.658C150.219 98.5697 160.807 93.2757 161.248 91.0699C161.689 88.8641 149.778 93.7169 148.895 93.7169C148.013 93.7169 147.131 92.3934 146.689 91.5111C146.248 90.6288 146.689 88.8641 152.425 87.0995C158.16 85.3348 161.248 84.8937 163.012 84.8937C164.777 84.8937 174.483 75.6292 175.365 74.7469C176.247 73.8646 181.1 71.2176 181.983 73.8646C182.865 76.5116 166.101 93.7169 165.66 95.4816C165.218 97.2462 166.983 99.8932 168.748 100.776C170.512 101.658 172.718 100.776 177.13 99.0109C181.541 97.2462 185.071 97.6874 187.277 96.8051C189.482 95.9227 191.247 92.8346 193.453 92.8346C195.659 92.8346 199.188 97.2462 200.511 97.6874C201.835 98.1285 217.717 99.0109 220.364 97.2462C223.011 95.4816 244.628 80.482 244.628 78.7174C244.628 76.9527 241.099 77.3939 238.452 77.3939C235.805 77.3939 235.805 76.9527 235.363 75.6292C234.922 74.3057 250.363 62.8355 250.363 61.512C250.363 60.1885 249.922 60.1885 249.04 59.7474C248.157 59.3062 228.746 68.1295 225.658 76.0704C222.57 84.0113 210.658 91.5111 207.129 91.5111C203.6 91.5111 201.835 91.5111 201.394 89.3053C200.953 87.0995 205.805 83.129 206.247 81.3643C206.688 79.5997 206.247 79.1585 204.482 78.2762C202.717 77.3939 195.659 80.482 195.218 79.5997C194.776 78.7174 195.659 76.5116 196.982 74.3057C197.423 70.7764 223.011 62.8355 232.275 59.3062C241.54 55.7769 257.422 47.3948 268.01 47.3948C278.598 47.3948 284.774 57.1004 284.774 58.4239C284.774 59.7474 283.009 60.1885 278.156 61.0708C273.303 61.9532 270.215 62.3943 271.098 65.4825C271.98 68.5706 279.48 68.1295 284.774 66.3648C290.068 64.6001 305.067 57.5415 313.891 55.7769C322.714 54.0122 332.861 57.1004 336.39 53.5711C339.919 50.0418 334.184 49.1594 332.861 46.5125C331.537 43.8655 335.949 41.6597 338.155 41.6597C340.36 41.6597 341.684 44.7478 344.772 44.7478C347.86 44.7478 349.625 36.3657 350.066 33.7187C350.507 31.0717 357.566 25.7778 366.83 27.9836Z" fill="url(#paint3_radial_122_516)" fill-opacity="0.3"/>
<path d="M294.479 480.617C292.009 486.97 285.215 489.734 282.127 490.323C276.392 490.323 271.098 486.352 270.657 481.499C270.215 476.647 275.509 470.47 275.509 467.823C275.509 465.176 273.304 462.97 273.304 459.882C273.304 456.794 276.833 454.147 280.803 454.147C283.98 454.147 286.538 453.559 287.421 453.265C290.068 450.03 296.156 443.559 299.332 443.559C303.303 443.559 304.626 443.559 305.067 446.647C305.508 449.736 302.862 450.618 301.097 455.03C299.332 459.441 302.862 460.323 299.332 466.941C295.803 473.558 297.568 472.676 294.479 480.617Z" fill="url(#paint4_linear_122_516)" style="mix-blend-mode:hard-light"/>
<path d="M294.479 480.617C292.009 486.97 285.215 489.734 282.127 490.323C276.392 490.323 271.098 486.352 270.657 481.499C270.215 476.647 275.509 470.47 275.509 467.823C275.509 465.176 273.304 462.97 273.304 459.882C273.304 456.794 276.833 454.147 280.803 454.147C283.98 454.147 286.538 453.559 287.421 453.265C290.068 450.03 296.156 443.559 299.332 443.559C303.303 443.559 304.626 443.559 305.067 446.647C305.508 449.736 302.862 450.618 301.097 455.03C299.332 459.441 302.862 460.323 299.332 466.941C295.803 473.558 297.568 472.676 294.479 480.617Z" fill="url(#paint5_linear_122_516)" style="mix-blend-mode:soft-light"/>
<path d="M294.479 480.617C292.009 486.97 285.215 489.734 282.127 490.323C276.392 490.323 271.098 486.352 270.657 481.499C270.215 476.647 275.509 470.47 275.509 467.823C275.509 465.176 273.304 462.97 273.304 459.882C273.304 456.794 276.833 454.147 280.803 454.147C283.98 454.147 286.538 453.559 287.421 453.265C290.068 450.03 296.156 443.559 299.332 443.559C303.303 443.559 304.626 443.559 305.067 446.647C305.508 449.736 302.862 450.618 301.097 455.03C299.332 459.441 302.862 460.323 299.332 466.941C295.803 473.558 297.568 472.676 294.479 480.617Z" fill="url(#paint6_radial_122_516)" fill-opacity="0.3"/>
<path d="M519.473 323.122C518.061 322.063 516.238 322.681 515.503 323.122C512.414 325.328 521.679 338.121 525.649 342.974C529.62 347.827 530.943 360.179 536.678 361.503C542.414 362.826 541.09 360.179 543.296 355.327C545.502 350.474 539.767 343.856 537.561 341.651C535.355 339.445 535.355 332.386 529.62 331.063C523.885 329.739 521.238 324.445 519.473 323.122Z" fill="url(#paint7_linear_122_516)" style="mix-blend-mode:hard-light"/>
<path d="M519.473 323.122C518.061 322.063 516.238 322.681 515.503 323.122C512.414 325.328 521.679 338.121 525.649 342.974C529.62 347.827 530.943 360.179 536.678 361.503C542.414 362.826 541.09 360.179 543.296 355.327C545.502 350.474 539.767 343.856 537.561 341.651C535.355 339.445 535.355 332.386 529.62 331.063C523.885 329.739 521.238 324.445 519.473 323.122Z" fill="url(#paint8_linear_122_516)" style="mix-blend-mode:soft-light"/>
<path d="M519.473 323.122C518.061 322.063 516.238 322.681 515.503 323.122C512.414 325.328 521.679 338.121 525.649 342.974C529.62 347.827 530.943 360.179 536.678 361.503C542.414 362.826 541.09 360.179 543.296 355.327C545.502 350.474 539.767 343.856 537.561 341.651C535.355 339.445 535.355 332.386 529.62 331.063C523.885 329.739 521.238 324.445 519.473 323.122Z" fill="url(#paint9_radial_122_516)" fill-opacity="0.3"/>
<path d="M559.619 317.387C555.031 332.563 555.06 339.886 555.649 341.651C558.296 344.298 560.943 344.298 565.354 341.651C569.766 339.004 568.883 333.268 568.883 326.651C568.883 320.034 571.53 308.122 573.295 300.181C575.06 292.24 571.53 290.035 568.883 290.035C566.236 290.035 565.354 298.417 559.619 317.387Z" fill="url(#paint10_linear_122_516)" style="mix-blend-mode:hard-light"/>
<path d="M559.619 317.387C555.031 332.563 555.06 339.886 555.649 341.651C558.296 344.298 560.943 344.298 565.354 341.651C569.766 339.004 568.883 333.268 568.883 326.651C568.883 320.034 571.53 308.122 573.295 300.181C575.06 292.24 571.53 290.035 568.883 290.035C566.236 290.035 565.354 298.417 559.619 317.387Z" fill="url(#paint11_linear_122_516)" style="mix-blend-mode:soft-light"/>
<path d="M559.619 317.387C555.031 332.563 555.06 339.886 555.649 341.651C558.296 344.298 560.943 344.298 565.354 341.651C569.766 339.004 568.883 333.268 568.883 326.651C568.883 320.034 571.53 308.122 573.295 300.181C575.06 292.24 571.53 290.035 568.883 290.035C566.236 290.035 565.354 298.417 559.619 317.387Z" fill="url(#paint12_radial_122_516)" fill-opacity="0.3"/>
</g>
<defs>
<linearGradient id="paint0_linear_122_516" x1="158.021" y1="562.274" x2="317.838" y2="248.962" gradientUnits="userSpaceOnUse">
<stop stop-color="#0400BD"/>
<stop offset="1" stop-color="#007ED8"/>
</linearGradient>
<linearGradient id="paint1_linear_122_516" x1="309.716" y1="22.2524" x2="309.716" y2="508.359" gradientUnits="userSpaceOnUse">
<stop offset="0.279514" stop-color="#75CFB4"/>
<stop offset="0.692716" stop-color="#DBD9C9"/>
<stop offset="1" stop-color="#E0CEC3"/>
</linearGradient>
<linearGradient id="paint2_linear_122_516" x1="309.716" y1="22.2524" x2="309.716" y2="508.359" gradientUnits="userSpaceOnUse">
<stop offset="0.119776" stop-color="#007854"/>
<stop offset="0.692716" stop-color="#FFF177"/>
<stop offset="1" stop-color="#E0CEC3"/>
</linearGradient>
<radialGradient id="paint3_radial_122_516" cx="0" cy="0" r="1" gradientUnits="userSpaceOnUse" gradientTransform="translate(303.066 215.755) rotate(88.9194) scale(373.362 405.621)">
<stop stop-opacity="0"/>
<stop offset="1" stop-color="#392683"/>
<stop offset="1" stop-color="#392683" stop-opacity="0.56"/>
</radialGradient>
<linearGradient id="paint4_linear_122_516" x1="309.716" y1="22.2524" x2="309.716" y2="508.359" gradientUnits="userSpaceOnUse">
<stop offset="0.279514" stop-color="#75CFB4"/>
<stop offset="0.692716" stop-color="#DBD9C9"/>
<stop offset="1" stop-color="#E0CEC3"/>
</linearGradient>
<linearGradient id="paint5_linear_122_516" x1="309.716" y1="22.2524" x2="309.716" y2="508.359" gradientUnits="userSpaceOnUse">
<stop offset="0.119776" stop-color="#007854"/>
<stop offset="0.692716" stop-color="#FFF177"/>
<stop offset="1" stop-color="#E0CEC3"/>
</linearGradient>
<radialGradient id="paint6_radial_122_516" cx="0" cy="0" r="1" gradientUnits="userSpaceOnUse" gradientTransform="translate(303.066 215.755) rotate(88.9194) scale(373.362 405.621)">
<stop stop-opacity="0"/>
<stop offset="1" stop-color="#392683"/>
<stop offset="1" stop-color="#392683" stop-opacity="0.56"/>
</radialGradient>
<linearGradient id="paint7_linear_122_516" x1="309.716" y1="22.2524" x2="309.716" y2="508.359" gradientUnits="userSpaceOnUse">
<stop offset="0.279514" stop-color="#75CFB4"/>
<stop offset="0.692716" stop-color="#DBD9C9"/>
<stop offset="1" stop-color="#E0CEC3"/>
</linearGradient>
<linearGradient id="paint8_linear_122_516" x1="309.716" y1="22.2524" x2="309.716" y2="508.359" gradientUnits="userSpaceOnUse">
<stop offset="0.119776" stop-color="#007854"/>
<stop offset="0.692716" stop-color="#FFF177"/>
<stop offset="1" stop-color="#E0CEC3"/>
</linearGradient>
<radialGradient id="paint9_radial_122_516" cx="0" cy="0" r="1" gradientUnits="userSpaceOnUse" gradientTransform="translate(303.066 215.755) rotate(88.9194) scale(373.362 405.621)">
<stop stop-opacity="0"/>
<stop offset="1" stop-color="#392683"/>
<stop offset="1" stop-color="#392683" stop-opacity="0.56"/>
</radialGradient>
<linearGradient id="paint10_linear_122_516" x1="309.716" y1="22.2524" x2="309.716" y2="508.359" gradientUnits="userSpaceOnUse">
<stop offset="0.279514" stop-color="#75CFB4"/>
<stop offset="0.692716" stop-color="#DBD9C9"/>
<stop offset="1" stop-color="#E0CEC3"/>
</linearGradient>
<linearGradient id="paint11_linear_122_516" x1="309.716" y1="22.2524" x2="309.716" y2="508.359" gradientUnits="userSpaceOnUse">
<stop offset="0.119776" stop-color="#007854"/>
<stop offset="0.692716" stop-color="#FFF177"/>
<stop offset="1" stop-color="#E0CEC3"/>
</linearGradient>
<radialGradient id="paint12_radial_122_516" cx="0" cy="0" r="1" gradientUnits="userSpaceOnUse" gradientTransform="translate(303.066 215.755) rotate(88.9194) scale(373.362 405.621)">
<stop stop-opacity="0"/>
<stop offset="1" stop-color="#392683"/>
<stop offset="1" stop-color="#392683" stop-opacity="0.56"/>
</radialGradient>
</defs>
</svg>
