<svg width="545" height="303" viewBox="0 0 545 303" fill="none" xmlns="http://www.w3.org/2000/svg">
<g filter="url(#filter0_d_122_552)">
<path fill-rule="evenodd" clip-rule="evenodd" d="M283.043 79.4574C287.928 79.1238 298.035 78.4761 299.39 78.554L299.464 78.5583C301.142 78.6543 305.282 78.8913 305.08 80.9125C305.081 80.9124 305.081 80.9124 305.081 80.9124C305.081 80.9137 305.08 80.9151 305.08 80.9165C305.071 81.0013 305.055 81.0892 305.03 81.1804C305.011 81.1807 304.989 81.1812 304.964 81.1818C303.895 83.25 299.466 83.9344 297.671 84.2117L297.592 84.224C296.142 84.4484 286.111 84.8517 281.277 85.0253L278.037 88.1954L274.432 92.2016L269.917 96.7111L266.173 100.816C264.038 103.2 259.673 108.064 259.296 108.447C258.919 108.83 258.494 109.065 258.329 109.135C257.587 109.326 255.999 109.697 255.583 109.648C255.167 109.598 255.177 109.216 255.233 109.032L265.056 92.5328C265.642 90.6264 266.856 86.6119 267.018 85.8049C265.237 86.2651 254.105 86.2993 248.761 86.2589C246.187 88.667 240.889 93.6183 240.291 94.1589C239.693 94.6995 239.067 94.9816 238.829 95.0551C238.252 95.1773 237.022 95.3897 236.717 95.2613C236.411 95.1329 236.41 94.8548 236.448 94.7318C238.489 91.8389 242.627 85.8688 242.854 85.1308C240.876 85.3037 239.397 84.8763 238.734 84.5661C238.665 84.5698 238.596 84.5734 238.527 84.577C238.562 84.5591 238.6 84.5403 238.641 84.5207C238.6 84.4997 238.563 84.4795 238.531 84.4602C238.621 84.4555 238.713 84.4508 238.804 84.4461C239.686 84.0552 241.483 83.4568 243.417 83.4256C243.65 82.6873 243.155 76.959 242.878 74.1871C242.917 74.064 243.094 73.7767 243.491 73.6116C243.888 73.4465 245.024 73.5354 245.542 73.6004C245.742 73.6511 246.21 73.8761 246.485 74.3711C246.761 74.8661 249.099 79.4188 250.234 81.6333C255.78 81.0246 267.258 79.8787 268.807 80.1651C269.15 79.3487 270.438 75.3303 271.039 73.4231L271.337 57.4211C271.395 57.2366 271.627 56.8435 272.088 56.7479C272.549 56.6523 273.955 56.8671 274.6 56.9864C274.727 57.0407 275.016 57.2382 275.163 57.5943C275.31 57.9503 276.74 62.5119 277.437 64.7481L278.705 68.591L280.515 72.7704L281.703 76.5265L283.043 79.4574Z" fill="white"/>
</g>
<g filter="url(#filter1_d_122_552)">
<path fill-rule="evenodd" clip-rule="evenodd" d="M283.043 79.4574C287.928 79.1238 298.035 78.4761 299.39 78.554L299.464 78.5583C301.142 78.6543 305.282 78.8913 305.08 80.9125C305.081 80.9124 305.081 80.9124 305.081 80.9124C305.081 80.9137 305.08 80.9151 305.08 80.9165C305.071 81.0013 305.055 81.0892 305.03 81.1804C305.011 81.1807 304.989 81.1812 304.964 81.1818C303.895 83.25 299.466 83.9344 297.671 84.2117L297.592 84.224C296.142 84.4484 286.111 84.8517 281.277 85.0253L278.037 88.1954L274.432 92.2016L269.917 96.7111L266.173 100.816C264.038 103.2 259.673 108.064 259.296 108.447C258.919 108.83 258.494 109.065 258.329 109.135C257.587 109.326 255.999 109.697 255.583 109.648C255.167 109.598 255.177 109.216 255.233 109.032L265.056 92.5328C265.642 90.6264 266.856 86.6119 267.018 85.8049C265.237 86.2651 254.105 86.2993 248.761 86.2589C246.187 88.667 240.889 93.6183 240.291 94.1589C239.693 94.6995 239.067 94.9816 238.829 95.0551C238.252 95.1773 237.022 95.3897 236.717 95.2613C236.411 95.1329 236.41 94.8548 236.448 94.7318C238.489 91.8389 242.627 85.8688 242.854 85.1308C240.876 85.3037 239.397 84.8763 238.734 84.5661C238.665 84.5698 238.596 84.5734 238.527 84.577C238.562 84.5591 238.6 84.5403 238.641 84.5207C238.6 84.4997 238.563 84.4795 238.531 84.4602C238.621 84.4555 238.713 84.4508 238.804 84.4461C239.686 84.0552 241.483 83.4568 243.417 83.4256C243.65 82.6873 243.155 76.959 242.878 74.1871C242.917 74.064 243.094 73.7767 243.491 73.6116C243.888 73.4465 245.024 73.5354 245.542 73.6004C245.742 73.6511 246.21 73.8761 246.485 74.3711C246.761 74.8661 249.099 79.4188 250.234 81.6333C255.78 81.0246 267.258 79.8787 268.807 80.1651C269.15 79.3487 270.438 75.3303 271.039 73.4231L271.337 57.4211C271.395 57.2366 271.627 56.8435 272.088 56.7479C272.549 56.6523 273.955 56.8671 274.6 56.9864C274.727 57.0407 275.016 57.2382 275.163 57.5943C275.31 57.9503 276.74 62.5119 277.437 64.7481L278.705 68.591L280.515 72.7704L281.703 76.5265L283.043 79.4574Z" fill="white"/>
</g>
<g filter="url(#filter2_d_122_552)">
<path fill-rule="evenodd" clip-rule="evenodd" d="M241.752 168.327C246.636 167.993 256.743 167.346 258.098 167.424L258.173 167.428C259.85 167.524 263.99 167.761 263.788 169.782C263.789 169.782 263.789 169.782 263.789 169.782C263.789 169.783 263.788 169.785 263.788 169.786C263.779 169.871 263.763 169.959 263.739 170.05C263.72 170.05 263.698 170.051 263.672 170.051C262.603 172.12 258.174 172.804 256.38 173.081L256.3 173.094C254.851 173.318 244.82 173.721 239.985 173.895L236.745 177.065L233.14 181.071L228.625 185.581L224.881 189.685C222.746 192.069 218.381 196.933 218.004 197.317C217.627 197.7 217.202 197.935 217.037 198.004C216.295 198.196 214.707 198.567 214.291 198.517C213.875 198.467 213.885 198.086 213.942 197.902L223.764 181.402C224.35 179.496 225.564 175.482 225.726 174.675C223.945 175.135 212.813 175.169 207.469 175.129C204.895 177.537 199.597 182.488 198.999 183.029C198.402 183.569 197.776 183.851 197.537 183.925C196.96 184.047 195.73 184.259 195.425 184.131C195.119 184.002 195.119 183.724 195.156 183.601C197.197 180.709 201.335 174.738 201.562 174C199.584 174.173 198.106 173.746 197.443 173.436C197.373 173.439 197.304 173.443 197.235 173.447C197.27 173.429 197.308 173.41 197.35 173.39C197.308 173.369 197.271 173.349 197.239 173.33C197.33 173.325 197.421 173.32 197.512 173.316C198.394 172.925 200.191 172.326 202.125 172.295C202.358 171.557 201.863 165.829 201.586 163.057C201.625 162.934 201.802 162.646 202.199 162.481C202.596 162.316 203.732 162.405 204.25 162.47C204.45 162.521 204.918 162.746 205.193 163.241C205.469 163.736 207.807 168.288 208.942 170.503C214.488 169.894 225.967 168.748 227.515 169.035C227.858 168.218 229.146 164.2 229.747 162.293L230.045 146.291C230.103 146.106 230.335 145.713 230.796 145.618C231.257 145.522 232.663 145.737 233.308 145.856C233.435 145.91 233.725 146.108 233.871 146.464C234.018 146.82 235.448 151.381 236.145 153.618L237.413 157.461L239.223 161.64L240.411 165.396L241.752 168.327Z" fill="black" fill-opacity="0.25" shape-rendering="crispEdges"/>
</g>
<path d="M262.586 57.6593C192.239 67.225 73.7306 110.546 43.8959 188.749" stroke="url(#paint0_linear_122_552)" stroke-linecap="round"/>
<path d="M249.334 109.971C178.987 119.537 30.8348 158.219 1.00004 236.423" stroke="url(#paint1_linear_122_552)" stroke-linecap="round"/>
<path d="M210.597 196.95C134.956 198.639 100.949 208.543 56.1021 242.984" stroke="url(#paint2_linear_122_552)" stroke-opacity="0.25" stroke-linecap="round"/>
<path d="M227.337 146.381C151.696 148.071 117.689 157.975 72.8418 192.416" stroke="url(#paint3_linear_122_552)" stroke-opacity="0.25" stroke-linecap="round"/>
<path d="M311.5 82.5C360.833 77.8333 476.4 89.8 544 175" stroke="url(#paint4_linear_122_552)" stroke-opacity="0.5" stroke-linecap="round" stroke-dasharray="10 10"/>
<defs>
<filter id="filter0_d_122_552" x="176.431" y="0.724121" width="188.656" height="172.928" filterUnits="userSpaceOnUse" color-interpolation-filters="sRGB">
<feFlood flood-opacity="0" result="BackgroundImageFix"/>
<feColorMatrix in="SourceAlpha" type="matrix" values="0 0 0 0 0 0 0 0 0 0 0 0 0 0 0 0 0 0 127 0" result="hardAlpha"/>
<feOffset dy="4"/>
<feGaussianBlur stdDeviation="30"/>
<feComposite in2="hardAlpha" operator="out"/>
<feColorMatrix type="matrix" values="0 0 0 0 0 0 0 0 0 0 0 0 0 0 0 0 0 0 0.4 0"/>
<feBlend mode="normal" in2="BackgroundImageFix" result="effect1_dropShadow_122_552"/>
<feBlend mode="normal" in="SourceGraphic" in2="effect1_dropShadow_122_552" result="shape"/>
</filter>
<filter id="filter1_d_122_552" x="176.431" y="0.724121" width="188.656" height="172.928" filterUnits="userSpaceOnUse" color-interpolation-filters="sRGB">
<feFlood flood-opacity="0" result="BackgroundImageFix"/>
<feColorMatrix in="SourceAlpha" type="matrix" values="0 0 0 0 0 0 0 0 0 0 0 0 0 0 0 0 0 0 127 0" result="hardAlpha"/>
<feOffset dy="4"/>
<feGaussianBlur stdDeviation="30"/>
<feComposite in2="hardAlpha" operator="out"/>
<feColorMatrix type="matrix" values="0 0 0 0 0 0 0 0 0 0 0 0 0 0 0 0 0 0 0.4 0"/>
<feBlend mode="normal" in2="BackgroundImageFix" result="effect1_dropShadow_122_552"/>
<feBlend mode="normal" in="SourceGraphic" in2="effect1_dropShadow_122_552" result="shape"/>
</filter>
<filter id="filter2_d_122_552" x="135.139" y="89.5938" width="188.656" height="172.928" filterUnits="userSpaceOnUse" color-interpolation-filters="sRGB">
<feFlood flood-opacity="0" result="BackgroundImageFix"/>
<feColorMatrix in="SourceAlpha" type="matrix" values="0 0 0 0 0 0 0 0 0 0 0 0 0 0 0 0 0 0 127 0" result="hardAlpha"/>
<feOffset dy="4"/>
<feGaussianBlur stdDeviation="30"/>
<feComposite in2="hardAlpha" operator="out"/>
<feColorMatrix type="matrix" values="0 0 0 0 0 0 0 0 0 0 0 0 0 0 0 0 0 0 0.4 0"/>
<feBlend mode="normal" in2="BackgroundImageFix" result="effect1_dropShadow_122_552"/>
<feBlend mode="normal" in="SourceGraphic" in2="effect1_dropShadow_122_552" result="shape"/>
</filter>
<linearGradient id="paint0_linear_122_552" x1="263.441" y1="55.3729" x2="66.6439" y2="123.649" gradientUnits="userSpaceOnUse">
<stop stop-color="white"/>
<stop offset="0.690408" stop-color="white" stop-opacity="0"/>
</linearGradient>
<linearGradient id="paint1_linear_122_552" x1="250.189" y1="107.685" x2="53.3917" y2="175.961" gradientUnits="userSpaceOnUse">
<stop stop-color="white"/>
<stop offset="1" stop-color="white" stop-opacity="0"/>
</linearGradient>
<linearGradient id="paint2_linear_122_552" x1="200.832" y1="193.811" x2="133.349" y2="242.984" gradientUnits="userSpaceOnUse">
<stop/>
<stop offset="1" stop-opacity="0"/>
</linearGradient>
<linearGradient id="paint3_linear_122_552" x1="212.689" y1="146.381" x2="150.089" y2="192.416" gradientUnits="userSpaceOnUse">
<stop/>
<stop offset="1" stop-opacity="0"/>
</linearGradient>
<linearGradient id="paint4_linear_122_552" x1="327.627" y1="81.2932" x2="539.932" y2="151.55" gradientUnits="userSpaceOnUse">
<stop stop-color="white"/>
<stop offset="1" stop-color="white" stop-opacity="0"/>
</linearGradient>
</defs>
</svg>
