<svg width="575" height="575" viewBox="0 0 575 575" fill="none" xmlns="http://www.w3.org/2000/svg">
<path d="M100.417 287.499C100.417 337.117 120.127 384.702 155.212 419.787C172.584 437.16 193.208 450.94 215.906 460.342C238.604 469.744 262.932 474.583 287.5 474.583C337.118 474.583 384.703 454.872 419.788 419.787C454.873 384.702 474.583 337.117 474.583 287.499C474.583 262.931 469.744 238.604 460.343 215.906C450.941 193.208 437.16 172.584 419.788 155.211C402.416 137.839 381.792 124.059 359.094 114.657C336.396 105.255 312.068 100.416 287.5 100.416C262.932 100.416 238.604 105.255 215.906 114.657C193.208 124.059 172.584 137.839 155.212 155.211C120.127 190.296 100.417 237.882 100.417 287.499ZM161.032 413.968C144.368 397.401 131.158 377.692 122.166 355.983C113.174 334.274 108.579 310.997 108.648 287.499C108.648 239.793 127.17 194.893 161.032 161.031C177.598 144.367 197.307 131.157 219.016 122.165C240.725 113.173 264.003 108.579 287.5 108.648C335.206 108.648 380.106 127.169 413.968 161.031C430.632 177.598 443.842 197.307 452.834 219.015C461.826 240.724 466.421 264.002 466.352 287.499C466.352 335.206 447.83 380.106 413.968 413.968C397.402 430.631 377.693 443.842 355.984 452.834C334.275 461.825 310.997 466.42 287.5 466.351C239.794 466.351 194.894 447.83 161.032 413.968ZM181.798 240.729C144.194 283.571 151.49 318.929 151.49 318.929C151.49 318.929 161.78 294.609 186.662 268.791C198.635 257.005 207.428 252.889 213.415 252.889C220.15 252.889 223.33 257.753 223.33 262.243V349.05C223.33 357.656 217.718 359.526 212.667 359.339C209.801 359.273 206.961 358.769 204.248 357.843C229.878 394.698 291.055 399.749 291.055 399.749L317.995 371.687H318.743L343.625 392.827C388.338 366.261 410.04 317.058 410.04 317.058C390.396 338.012 377.113 343.063 369.63 342.876C362.895 342.876 360.088 338.947 360.088 338.947C359.901 337.076 358.966 229.503 360.275 229.503C368.133 215.098 392.828 185.726 392.828 185.726C346.618 194.893 321.362 225.014 321.362 225.014C313.879 219.214 298.538 220.149 298.538 220.149C305.647 224.078 312.756 235.303 312.756 244.844V337.076C312.756 337.076 296.854 350.734 285.255 350.734C278.146 350.734 273.843 346.805 271.411 343.624C269.727 341.379 268.792 339.696 268.792 339.696V225.575C267.482 226.697 265.424 227.633 263.366 227.633C260.747 227.446 258.128 226.323 256.444 222.581C254.948 219.775 254.199 215.472 254.199 209.486C254.199 188.345 278.146 174.501 278.146 174.501C247.651 182.546 219.402 198.074 181.798 240.729Z" fill="white"/>
</svg>
