<svg width="6631" height="4716" viewBox="0 0 6631 4716" fill="none" xmlns="http://www.w3.org/2000/svg">
<path d="M1925.21 501C1820.96 612.413 1717.26 724.044 1601.9 824.326C1330.17 1060.54 1024.92 1246.38 724.204 1442.09C680.928 1470.26 576.432 1537.74 526.677 1578.13C517.639 1585.47 495.093 1594.27 502.452 1603.29C510.75 1613.46 528.658 1599.96 541.119 1595.84C576.628 1584.08 611.288 1569.86 645.939 1555.77C1147.94 1351.66 1644.89 1138.46 2163.73 979.001C2359.28 918.901 2461.64 893.582 2653.82 848.552C2709.28 835.557 2764.92 823.307 2820.6 811.281C2850.49 804.826 2880.44 798.663 2910.51 793.112C2920.84 791.206 2948.39 780.803 2941.73 788.919C2930.89 802.128 2911.16 804.217 2895.61 811.281C2853.7 830.31 2811.59 848.902 2769.36 867.188C2507.47 980.572 2243.65 1088.96 1977.85 1192.84C1651.98 1320.2 1309.78 1427.31 994.407 1580C941.096 1605.81 1106.14 1540.64 1162.12 1521.29C1643.52 1354.92 2130 1209.18 2624.47 1086.16C3101.62 967.447 3459.81 891.36 3940.08 809.418C4195.8 765.787 4440.33 728.624 4697.57 714.843C4749.27 712.073 4876.69 700.814 4849.91 745.125C4835.1 769.632 4808.74 785.484 4784.69 801.032C4691.79 861.104 4462.4 976.066 4377.52 1014.41C3616.14 1358.35 2810.49 1597.6 2032.36 1899.6C1975.34 1921.72 1881.47 1957.21 1817.13 1992.31C1727.69 2041.09 2008.14 1921.4 2103.17 1884.69C2801.25 1615.03 3501.08 1352.59 4227.98 1170.02C4468.04 1109.72 4642.71 1071.92 4880.19 1033.04C4943.46 1022.69 5006.89 1012.71 5070.73 1006.95C5114.06 1003.05 5214.48 988.541 5199.31 1029.32C5190.08 1054.14 5162.56 1067.87 5141.08 1083.36C5101.13 1112.16 5059.57 1139.13 5015.76 1161.63C4513.55 1419.53 3962.86 1606.88 3438.8 1810.15C2986.36 1985.64 2368.47 2220.04 1909.37 2403.69C1493.35 2570.1 1073.29 2740.49 673.891 2945.05C626.782 2969.18 498.925 3048.03 551.834 3046.61C614.461 3044.94 675.885 3028.49 737.249 3015.86C860.126 2990.58 982.409 2962.4 1104.35 2932.94C2302.24 2643.5 3487.58 2284.13 4701.3 2064.05C4810.8 2044.2 5126.1 1986.35 5034.86 2050.08C4973.96 2092.61 4901.39 2115.72 4832.21 2142.79C4591.86 2236.85 3997.41 2438.56 3784.94 2509.91C3354.53 2654.44 3096.04 2735.94 2676.18 2873.3C2582.6 2903.92 2488.85 2934.02 2395.73 2966.01C2212.41 3028.99 2363.41 2987.88 2469.34 2961.35C3591.82 2680.24 4722.83 2394.9 5871.09 2238.76C5966.19 2225.83 6310.04 2175.22 6008.99 2305.85C5846.89 2376.19 5679.11 2432.77 5512.37 2491.27C4919.38 2699.34 4510.6 2824.18 3899.55 3009.34C3858.76 3021.7 2874.33 3310.48 2683.17 3375.06C2646.64 3387.4 1816.54 3612.26 1855.1 3611.91C1959.12 3610.95 2783.98 3392.04 2886.29 3373.2C3104.52 3333.02 3322.05 3289.17 3539.9 3246.94C4042.22 3149.59 4816.24 2996.46 5324.16 2906.85C5509.71 2874.11 5695.42 2841.57 5882.27 2817.39C6120.66 2786.55 6185.96 2789.27 5935.85 2890.07C5651.83 3004.55 4968.08 3225.52 4743.23 3300.52C4307.37 3445.9 3731.91 3631.89 3293.45 3799.49C3157.86 3851.32 3019.57 3899.17 2892.34 3969.07C2863.47 3984.94 2805.3 4039.82 2836.44 4050.6C2922.75 4080.48 3019.7 4055.55 3110.37 4044.54C3429.98 4005.73 4146.07 3860.96 4436.22 3802.28C4520.23 3785.29 5332.49 3614.82 5501.19 3579.59C5570.31 3565.15 5934.19 3471.45 5557.1 3577.26C5317.55 3644.48 5176.63 3688.35 4934.7 3773.86C4713.68 3851.98 4463.64 3931.15 4257.33 4048.27C4250.36 4052.23 4236.92 4067.08 4244.75 4068.77C4271.38 4074.53 4299.23 4066.39 4326.28 4063.18C4554.27 4036.07 4780.51 3999.49 5009.24 3977.46C5150.42 3963.85 5264.68 3955.17 5403.83 3951.37C5439.07 3950.4 5474.47 3948.16 5509.58 3951.37C5554.01 3955.42 5547.55 3968.22 5519.83 3992.36C5493.95 4014.91 5257.13 4154.55 5283.63 4198.29C5310.71 4242.96 5452.68 4189.94 5489.08 4182.45" stroke="black" stroke-width="1000" stroke-linecap="round"/>
</svg>
