<svg width="28" height="39" viewBox="0 0 28 39" fill="none" xmlns="http://www.w3.org/2000/svg">
<path d="M4 1L14 11L24 1M7 13L14 20L21 13M9 22L14 27L19 22" stroke="url(#paint0_linear_628_2134)" stroke-linecap="round"/>
<path d="M3.21254 35.4094C3.19833 35.2662 3.13737 35.1549 3.02965 35.0756C2.92193 34.9963 2.77575 34.9567 2.59109 34.9567C2.46561 34.9567 2.35967 34.9744 2.27326 35.0099C2.18685 35.0443 2.12056 35.0922 2.0744 35.1538C2.02942 35.2153 2.00692 35.2852 2.00692 35.3633C2.00456 35.4284 2.01817 35.4852 2.04776 35.5337C2.07854 35.5823 2.12056 35.6243 2.17383 35.6598C2.2271 35.6941 2.28865 35.7243 2.35849 35.7504C2.42833 35.7752 2.5029 35.7965 2.58221 35.8143L2.90891 35.8924C3.06753 35.9279 3.21313 35.9753 3.3457 36.0344C3.47828 36.0936 3.5931 36.1664 3.69016 36.2528C3.78723 36.3393 3.86239 36.4411 3.91566 36.5582C3.97011 36.6754 3.99793 36.8098 3.99911 36.9613C3.99793 37.1838 3.94111 37.3768 3.82866 37.5401C3.71739 37.7023 3.5564 37.8284 3.3457 37.9183C3.13619 38.0071 2.88346 38.0515 2.58754 38.0515C2.29397 38.0515 2.03829 38.0065 1.82049 37.9165C1.60387 37.8266 1.4346 37.6934 1.31268 37.517C1.19194 37.3395 1.12861 37.1199 1.12269 36.8583H1.86665C1.87494 36.9802 1.90986 37.082 1.97141 37.1637C2.03415 37.2442 2.1176 37.3052 2.22177 37.3466C2.32712 37.3868 2.44608 37.407 2.57866 37.407C2.70887 37.407 2.82191 37.388 2.91779 37.3501C3.01486 37.3123 3.09002 37.2596 3.14329 37.1921C3.19656 37.1246 3.22319 37.0471 3.22319 36.9595C3.22319 36.8778 3.19892 36.8092 3.15039 36.7536C3.10304 36.6979 3.0332 36.6506 2.94087 36.6115C2.84973 36.5724 2.73787 36.5369 2.60529 36.505L2.20934 36.4055C1.90276 36.331 1.66069 36.2144 1.48313 36.0558C1.30558 35.8971 1.21739 35.6835 1.21857 35.4148C1.21739 35.1946 1.27598 35.0022 1.39435 34.8377C1.51391 34.6732 1.67785 34.5447 1.88619 34.4524C2.09452 34.3601 2.33126 34.3139 2.59641 34.3139C2.8663 34.3139 3.10186 34.3601 3.30309 34.4524C3.5055 34.5447 3.66294 34.6732 3.77539 34.8377C3.88784 35.0022 3.94585 35.1928 3.9494 35.4094H3.21254ZM8.9747 35.6367H8.197C8.18279 35.5361 8.15379 35.4467 8.11 35.3686C8.0662 35.2893 8.00997 35.2218 7.94132 35.1662C7.87266 35.1106 7.79335 35.0679 7.70339 35.0384C7.61461 35.0088 7.51814 34.994 7.41397 34.994C7.22576 34.994 7.06182 35.0407 6.92214 35.1342C6.78246 35.2266 6.67415 35.3615 6.59721 35.5391C6.52027 35.7154 6.4818 35.9297 6.4818 36.1818C6.4818 36.4411 6.52027 36.6589 6.59721 36.8352C6.67534 37.0116 6.78424 37.1448 6.92392 37.2347C7.06359 37.3247 7.22517 37.3697 7.40865 37.3697C7.51163 37.3697 7.60692 37.3561 7.69451 37.3288C7.78329 37.3016 7.86201 37.262 7.93066 37.2099C7.99932 37.1566 8.05614 37.0921 8.10112 37.0163C8.14728 36.9406 8.17924 36.8542 8.197 36.7571L8.9747 36.7607C8.95458 36.9276 8.90427 37.0885 8.82377 37.2436C8.74447 37.3975 8.63734 37.5354 8.5024 37.6573C8.36864 37.7781 8.20884 37.8739 8.02299 37.945C7.83833 38.0148 7.62941 38.0497 7.39622 38.0497C7.07188 38.0497 6.78187 37.9763 6.52619 37.8295C6.27169 37.6828 6.07046 37.4703 5.9225 37.1921C5.77572 36.9139 5.70233 36.5772 5.70233 36.1818C5.70233 35.7853 5.7769 35.4479 5.92605 35.1697C6.0752 34.8916 6.27761 34.6797 6.53329 34.5341C6.78897 34.3873 7.07662 34.3139 7.39622 34.3139C7.60692 34.3139 7.80223 34.3435 7.98216 34.4027C8.16326 34.4619 8.32366 34.5483 8.46333 34.6619C8.60301 34.7744 8.71665 34.9123 8.80424 35.0756C8.89302 35.239 8.94984 35.426 8.9747 35.6367ZM10.776 38V34.3636H12.2107C12.4853 34.3636 12.7197 34.4128 12.9138 34.511C13.1091 34.6081 13.2577 34.746 13.3595 34.9247C13.4624 35.1023 13.5139 35.3112 13.5139 35.5515C13.5139 35.793 13.4619 36.0007 13.3577 36.1747C13.2535 36.3475 13.1026 36.4801 12.9049 36.5724C12.7084 36.6648 12.4705 36.7109 12.1911 36.7109H11.2306V36.093H12.0669C12.2136 36.093 12.3356 36.0729 12.4326 36.0327C12.5297 35.9924 12.6019 35.9321 12.6492 35.8516C12.6978 35.7711 12.722 35.671 12.722 35.5515C12.722 35.4308 12.6978 35.329 12.6492 35.2461C12.6019 35.1632 12.5291 35.1005 12.4308 35.0579C12.3338 35.0141 12.2113 34.9922 12.0633 34.9922H11.5448V38H10.776ZM12.7398 36.3452L13.6436 38H12.7948L11.9106 36.3452H12.7398ZM18.6489 36.1818C18.6489 36.5784 18.5737 36.9157 18.4234 37.1939C18.2742 37.4721 18.0706 37.6845 17.8126 37.8313C17.5557 37.9769 17.2669 38.0497 16.9461 38.0497C16.623 38.0497 16.3329 37.9763 16.0761 37.8295C15.8192 37.6828 15.6162 37.4703 15.4671 37.1921C15.3179 36.9139 15.2433 36.5772 15.2433 36.1818C15.2433 35.7853 15.3179 35.4479 15.4671 35.1697C15.6162 34.8916 15.8192 34.6797 16.0761 34.5341C16.3329 34.3873 16.623 34.3139 16.9461 34.3139C17.2669 34.3139 17.5557 34.3873 17.8126 34.5341C18.0706 34.6797 18.2742 34.8916 18.4234 35.1697C18.5737 35.4479 18.6489 35.7853 18.6489 36.1818ZM17.8694 36.1818C17.8694 35.925 17.8309 35.7083 17.754 35.532C17.6782 35.3556 17.5711 35.2218 17.4326 35.1307C17.2941 35.0395 17.132 34.994 16.9461 34.994C16.7603 34.994 16.5981 35.0395 16.4596 35.1307C16.3211 35.2218 16.2134 35.3556 16.1365 35.532C16.0607 35.7083 16.0228 35.925 16.0228 36.1818C16.0228 36.4387 16.0607 36.6553 16.1365 36.8317C16.2134 37.008 16.3211 37.1418 16.4596 37.233C16.5981 37.3241 16.7603 37.3697 16.9461 37.3697C17.132 37.3697 17.2941 37.3241 17.4326 37.233C17.5711 37.1418 17.6782 37.008 17.754 36.8317C17.8309 36.6553 17.8694 36.4387 17.8694 36.1818ZM20.4684 38V34.3636H21.2372V37.3661H22.7962V38H20.4684ZM24.5553 38V34.3636H25.3241V37.3661H26.8831V38H24.5553Z" fill="white"/>
<defs>
<linearGradient id="paint0_linear_628_2134" x1="14" y1="1" x2="14" y2="27" gradientUnits="userSpaceOnUse">
<stop stop-color="white"/>
<stop offset="1" stop-color="white" stop-opacity="0.25"/>
</linearGradient>
</defs>
</svg>
