<svg width="216" height="336" viewBox="0 0 216 336" fill="none" xmlns="http://www.w3.org/2000/svg">
<path d="M105.043 256.019L106.916 256.534C105.645 260.138 103.736 263.529 101.701 265.71C101.318 265.411 100.475 264.859 100.014 264.606C102.113 262.629 103.914 259.357 105.043 256.019ZM104.383 259.886L121.327 260.914L121.215 262.761L103.722 261.7L104.383 259.886ZM99.8185 267.424L122.252 268.785L122.14 270.631L99.7065 269.271L99.8185 267.424ZM111.073 255.709L113.045 255.828L111.654 278.761L109.682 278.642L111.073 255.709Z" fill="white"/>
<path d="M105.043 256.019L105.176 255.537C104.92 255.467 104.655 255.608 104.57 255.859L105.043 256.019ZM106.916 256.534L107.387 256.7C107.433 256.569 107.423 256.425 107.359 256.302C107.294 256.179 107.182 256.088 107.048 256.052L106.916 256.534ZM101.701 265.71L101.393 266.104C101.597 266.263 101.889 266.24 102.066 266.051L101.701 265.71ZM100.014 264.606L99.6716 264.242C99.5552 264.351 99.4983 264.51 99.5184 264.669C99.5385 264.827 99.6333 264.967 99.7734 265.044L100.014 264.606ZM104.383 259.886L104.413 259.387C104.193 259.374 103.989 259.507 103.913 259.715L104.383 259.886ZM121.327 260.914L121.826 260.944C121.843 260.669 121.633 260.432 121.357 260.415L121.327 260.914ZM121.215 262.761L121.185 263.26C121.46 263.277 121.697 263.067 121.714 262.791L121.215 262.761ZM103.722 261.7L103.252 261.529C103.198 261.677 103.217 261.842 103.304 261.974C103.391 262.106 103.534 262.189 103.692 262.199L103.722 261.7ZM99.8185 267.424L99.8487 266.925C99.5731 266.908 99.3361 267.118 99.3194 267.394L99.8185 267.424ZM122.252 268.785L122.751 268.815C122.768 268.539 122.558 268.302 122.282 268.285L122.252 268.785ZM122.14 270.631L122.11 271.13C122.386 271.147 122.623 270.937 122.639 270.661L122.14 270.631ZM99.7065 269.271L99.2074 269.24C99.1907 269.516 99.4005 269.753 99.6762 269.77L99.7065 269.271ZM111.073 255.709L111.104 255.21C110.828 255.193 110.591 255.403 110.574 255.679L111.073 255.709ZM113.045 255.828L113.544 255.859C113.56 255.583 113.351 255.346 113.075 255.329L113.045 255.828ZM111.654 278.761L111.624 279.26C111.899 279.277 112.136 279.067 112.153 278.792L111.654 278.761ZM109.682 278.642L109.183 278.611C109.167 278.887 109.377 279.124 109.652 279.141L109.682 278.642ZM104.911 256.502L106.783 257.016L107.048 256.052L105.176 255.537L104.911 256.502ZM106.444 256.367C105.189 259.927 103.311 263.252 101.335 265.369L102.066 266.051C104.162 263.806 106.101 260.349 107.387 256.7L106.444 256.367ZM102.008 265.316C101.603 264.999 100.737 264.433 100.255 264.168L99.7734 265.044C100.212 265.285 101.033 265.823 101.393 266.104L102.008 265.316ZM100.357 264.97C102.537 262.916 104.373 259.561 105.517 256.18L104.57 255.859C103.455 259.154 101.689 262.342 99.6716 264.242L100.357 264.97ZM104.353 260.386L121.297 261.413L121.357 260.415L104.413 259.387L104.353 260.386ZM120.828 260.884L120.716 262.73L121.714 262.791L121.826 260.944L120.828 260.884ZM121.245 262.262L103.752 261.201L103.692 262.199L121.185 263.26L121.245 262.262ZM104.192 261.871L104.853 260.058L103.913 259.715L103.252 261.529L104.192 261.871ZM99.7882 267.923L122.222 269.284L122.282 268.285L99.8487 266.925L99.7882 267.923ZM121.753 268.754L121.641 270.601L122.639 270.661L122.751 268.815L121.753 268.754ZM122.17 270.132L99.7367 268.772L99.6762 269.77L122.11 271.13L122.17 270.132ZM100.206 269.301L100.318 267.454L99.3194 267.394L99.2074 269.24L100.206 269.301ZM111.043 256.208L113.014 256.327L113.075 255.329L111.104 255.21L111.043 256.208ZM112.546 255.798L111.155 278.731L112.153 278.792L113.544 255.859L112.546 255.798ZM111.684 278.262L109.713 278.143L109.652 279.141L111.624 279.26L111.684 278.262ZM110.182 278.672L111.572 255.739L110.574 255.679L109.183 278.611L110.182 278.672Z" fill="white"/>
<path d="M100.717 224.097C100.216 224.284 100.332 225.032 100.377 225.496C100.525 227.054 100.882 228.657 101.221 230.182C102.56 236.213 104.775 242.014 107.221 247.668C108.001 249.472 108.633 251.325 109.471 253.105C109.787 253.779 110.106 254.389 110.549 254.979C110.568 255.006 110.954 255.481 110.971 255.449C111.044 255.303 110.793 255 110.736 254.887" stroke="white" stroke-width="2.5" stroke-miterlimit="1.5" stroke-linecap="round" stroke-linejoin="round"/>
<path d="M112.949 254.658C113.43 253.862 114.099 253.175 114.58 252.363C118.381 245.95 121.106 238.842 123.581 231.83C124.11 230.333 124.729 228.824 124.941 227.237C124.99 226.861 125.038 225.5 125.362 225.174C125.488 225.049 125.61 225.567 125.644 225.549C125.92 225.41 126.252 224.384 126.252 224.097" stroke="white" stroke-width="2.5" stroke-miterlimit="1.5" stroke-linecap="round" stroke-linejoin="round"/>
<path fill-rule="evenodd" clip-rule="evenodd" d="M177.849 64.2782C177.269 64.1961 175.775 63.9781 175.443 63.8678C174.666 63.6087 173.945 63.6087 173.134 63.5074C171.053 63.2473 169.02 62.3015 166.922 62.0685C166.416 62.0123 165.886 62.1462 165.383 62.0742C163.892 61.8614 162.614 61.3833 161.061 61.5321C160.265 61.6085 159.681 62.3173 159.757 63.1137C159.833 63.9101 160.542 64.4946 161.338 64.4182C162.647 64.2927 163.715 64.7648 164.972 64.9443C165.504 65.0205 166.067 64.8905 166.602 64.9501C168.686 65.1816 170.707 66.1257 172.774 66.3842C173.387 66.4609 173.938 66.4223 174.527 66.6181C175.152 66.8269 177.307 67.3711 178.539 67.1734C179.815 66.9688 180.496 66.2204 180.496 65.0943C180.496 64.2943 179.847 63.6447 179.047 63.6447C178.549 63.6447 178.11 63.8958 177.849 64.2782ZM177.599 65.0483C177.597 65.0634 177.597 65.0788 177.597 65.0943L177.599 65.0483Z" fill="white"/>
<path fill-rule="evenodd" clip-rule="evenodd" d="M183.602 73.8329C183.781 74.43 184.336 74.8655 184.991 74.8655C185.79 74.8655 186.441 74.2159 186.441 73.4159C186.441 73.1062 186.346 72.7177 186.091 72.3185C185.756 71.7927 184.911 71.0817 184.645 70.7771C184.182 70.248 183.921 69.5746 183.456 69.0433C183.007 68.5296 182.335 67.8841 181.732 67.1943C181.293 66.691 180.863 66.1816 180.735 65.6775C180.541 64.9016 179.751 64.4306 178.975 64.6263C178.2 64.822 177.728 65.6108 177.924 66.3865C178.108 67.1139 178.565 67.8936 179.158 68.6347C179.848 69.4975 180.723 70.3229 181.274 70.9525C181.74 71.4838 182.001 72.1571 182.463 72.6863C182.647 72.8967 183.408 73.6427 183.602 73.8329Z" fill="white"/>
<path fill-rule="evenodd" clip-rule="evenodd" d="M36.9195 46.0496C36.6327 46.3221 36.3747 46.6648 36.1555 47.0636C35.6055 48.0641 35.2937 49.4988 35.0163 50.1926C34.8013 50.7297 34.5796 51.2886 34.4137 51.8418C34.3583 52.0265 34.2303 52.3902 34.2303 52.3902C33.9692 53.1356 34.3529 53.9528 35.0932 54.228C35.8334 54.5033 36.6578 54.1354 36.9473 53.4006L36.9667 53.3568C37.3245 52.8563 37.6456 52.1776 37.8393 51.5967C37.9545 51.2508 38.1908 51.0412 38.4078 50.8111C38.6996 50.5018 38.9935 50.1866 39.2486 49.8039C39.6194 49.2477 39.7897 48.5854 40.0424 47.9789C40.1102 47.8162 40.1805 47.6466 40.2585 47.4809C40.8255 47.3032 41.244 46.7865 41.2726 46.1639C41.3078 45.3956 40.7368 44.7336 39.9717 44.6555C39.9717 44.6555 39.9159 44.651 39.8277 44.6486C39.7576 44.5812 39.6927 44.5032 39.6207 44.4334C39.416 44.2345 39.2 44.0488 38.9634 43.9009C38.508 43.6162 37.8719 43.2786 37.3368 42.8573C37.082 42.6566 36.7909 42.4823 36.7602 42.1967C36.6745 41.4013 35.9591 40.8251 35.1635 40.9108C34.3681 40.9965 33.7919 41.7118 33.8776 42.5074C33.9692 43.358 34.4292 44.1269 35.1176 44.771C35.6516 45.2705 36.3343 45.6944 36.9195 46.0496ZM39.6775 47.5324L39.6772 47.5398C39.6772 47.5398 39.689 47.5382 39.7081 47.5353L39.6813 47.5328L39.6775 47.5324Z" fill="white"/>
<path fill-rule="evenodd" clip-rule="evenodd" d="M36.2923 71.6552C33.8807 71.5418 31.8648 73.4381 30.4946 76.6365C27.9317 82.6194 27.2371 93.2572 26.7497 96.5874C22.9659 122.444 28.129 146.077 45.549 165.674C46.0806 166.273 46.9976 166.327 47.5956 165.795C48.1936 165.264 48.2475 164.347 47.7159 163.749C30.8916 144.822 25.964 121.98 29.6185 97.0072C30.0879 93.7995 30.6909 83.541 33.1596 77.7783C33.6154 76.7145 34.1254 75.8172 34.7402 75.2065C35.1563 74.7929 35.6131 74.5257 36.1562 74.5513C36.9553 74.5888 37.6346 73.9705 37.6722 73.1714C37.7097 72.3722 37.0915 71.6929 36.2923 71.6552Z" fill="white"/>
<path fill-rule="evenodd" clip-rule="evenodd" d="M164.326 79.6952C164.272 79.9007 164.117 80.5249 164.077 80.8395C163.982 81.5942 164.197 82.2065 164.609 82.6183C166.756 84.7655 167.762 89.4606 168.404 94.771C169.437 103.32 169.29 113.452 169.871 118.455C170.726 125.817 172.557 133.054 172.903 140.453C173.05 143.573 173.58 147.424 173.257 150.959C172.972 154.078 172.022 156.96 169.172 158.588C168.478 158.985 168.236 159.871 168.633 160.567C169.03 161.261 169.916 161.503 170.61 161.106C174.34 158.975 175.769 155.305 176.143 151.222C176.48 147.555 175.952 143.555 175.8 140.317C175.449 132.852 173.614 125.548 172.75 118.12C172.068 112.26 172.376 99.3925 170.643 90.2151C169.888 86.2237 168.707 82.9049 167.016 80.9527C167.088 80.6626 167.198 80.1906 167.225 79.9373C167.277 79.4593 167.196 79.0433 167.032 78.7181C166.673 78.0033 165.802 77.7151 165.087 78.0748C164.478 78.3811 164.178 79.0592 164.326 79.6952Z" fill="white"/>
<path fill-rule="evenodd" clip-rule="evenodd" d="M52.4096 163.066C44.4914 167.326 37.9272 178.786 37.6821 188.92C37.5122 195.936 40.2896 202.301 47.4126 205.436C52.4544 207.655 58.1599 208.004 63.9408 207.287C72.3402 206.244 80.9015 202.949 87.6727 200.179C88.4135 199.876 88.7672 199.03 88.4657 198.289C88.1627 197.548 87.3147 197.193 86.5739 197.496C80.0129 200.181 71.7238 203.399 63.5837 204.409C58.3382 205.06 53.1553 204.795 48.5804 202.783C42.6558 200.175 40.4393 194.826 40.5805 188.991C40.8017 179.847 46.6401 169.463 53.7835 165.619C54.488 165.239 54.7522 164.359 54.3731 163.656C53.9939 162.951 53.1141 162.686 52.4096 163.066Z" fill="white"/>
<path fill-rule="evenodd" clip-rule="evenodd" d="M151.975 154.285C153.386 155.89 155.61 156.526 158.204 157.16C161.314 157.921 165.039 158.808 167.874 163.081C171.305 168.252 173.549 174.722 174.125 180.863C174.629 186.238 173.759 190.456 171.856 193.777C168.987 198.781 163.819 201.71 157.799 203.578C150.796 205.751 142.642 206.47 135.313 207.057C134.515 207.121 133.919 207.82 133.983 208.617C134.047 209.414 134.746 210.01 135.544 209.946C143.078 209.345 151.458 208.581 158.659 206.347C165.423 204.248 171.149 200.841 174.371 195.218C176.528 191.455 177.584 186.684 177.012 180.593C176.393 173.991 173.978 167.037 170.289 161.478C166.927 156.412 162.58 155.246 158.892 154.345C156.951 153.869 155.207 153.57 154.15 152.37C153.621 151.769 152.705 151.711 152.104 152.24C151.503 152.769 151.445 153.685 151.975 154.285Z" fill="white"/>
<path fill-rule="evenodd" clip-rule="evenodd" d="M73.2017 204.296C73.9393 205.013 75.26 205.702 77.072 206.279C79.4378 207.033 82.7212 207.66 86.5236 208.172C101.002 210.117 123.14 210.41 129.806 210.154C130.607 210.122 131.23 209.448 131.2 208.649C131.169 207.849 130.495 207.225 129.696 207.256C123.105 207.509 101.221 207.221 86.9092 205.297C83.3069 204.815 80.1931 204.23 77.952 203.517C76.6922 203.116 75.7355 202.716 75.2223 202.217C74.6487 201.659 73.7302 201.672 73.1726 202.246C72.6149 202.82 72.6279 203.738 73.2017 204.296Z" fill="white"/>
<path fill-rule="evenodd" clip-rule="evenodd" d="M64.845 174.765C61.2593 177.824 60.8565 182.047 62.4129 185.063C63.9968 188.131 67.6219 190.095 72.2737 188.371C73.0241 188.093 73.4075 187.26 73.1296 186.509C72.8518 185.759 72.017 185.375 71.2668 185.653C68.3309 186.741 65.9889 185.669 64.9892 183.733C63.9623 181.744 64.3607 178.989 66.7266 176.972C67.3353 176.453 67.4079 175.536 66.8887 174.928C66.3694 174.319 65.4537 174.246 64.845 174.765Z" fill="white"/>
<path fill-rule="evenodd" clip-rule="evenodd" d="M68.9618 172.541C70.4008 172.773 72.1159 172.85 73.7821 173.072C75.2078 173.26 76.6038 173.54 77.6663 174.237C79.2102 175.246 79.3798 176.899 78.929 178.527C78.439 180.298 77.2445 182.065 75.8731 183.301C75.044 184.049 74.1553 184.611 73.3109 184.779C72.5264 184.937 72.0168 185.701 72.1738 186.485C72.3307 187.27 73.0951 187.78 73.8796 187.623C75.1614 187.367 76.5545 186.591 77.8142 185.455C79.5784 183.866 81.0918 181.578 81.7224 179.301C82.5182 176.429 81.9746 173.591 79.2551 171.811C78.1157 171.066 76.7081 170.626 75.2107 170.358C73.258 170.01 71.1421 169.957 69.4222 169.68C68.6323 169.552 67.8879 170.09 67.7607 170.88C67.6338 171.67 68.1719 172.415 68.9618 172.541Z" fill="white"/>
<path fill-rule="evenodd" clip-rule="evenodd" d="M133.042 173.05C130.355 175.094 130.248 177.957 131.58 180.679C132.61 182.78 134.559 184.78 136.61 186.035C138.081 186.937 139.611 187.449 140.902 187.449C141.703 187.449 142.352 186.799 142.352 185.999C142.352 185.199 141.703 184.549 140.902 184.549C140.06 184.549 139.085 184.152 138.123 183.564C136.526 182.584 134.986 181.041 134.185 179.403C133.482 177.97 133.382 176.435 134.798 175.357C135.434 174.872 135.559 173.961 135.073 173.325C134.589 172.689 133.679 172.565 133.042 173.05Z" fill="white"/>
<path fill-rule="evenodd" clip-rule="evenodd" d="M145.984 171.053C146.295 171.137 146.927 171.329 147.388 171.604C149.579 172.91 152.234 175.856 152.429 179.191C152.576 181.688 152.109 183.556 151.064 184.917C149.443 187.03 146.557 187.881 143.001 188.204C142.204 188.276 141.615 188.982 141.688 189.78C141.76 190.577 142.466 191.164 143.263 191.091C147.765 190.683 151.312 189.356 153.364 186.683C154.768 184.854 155.521 182.375 155.323 179.022C155.024 173.938 150.425 169.501 147.421 168.412C145.236 167.622 143.706 168.357 143.304 170.015C143.114 170.792 143.592 171.577 144.369 171.767C145.022 171.925 145.677 171.614 145.984 171.053Z" fill="white"/>
<path fill-rule="evenodd" clip-rule="evenodd" d="M63.9824 161.758C72.6993 157.338 86.627 153.461 99.5315 152.639C107.987 152.101 116.001 152.855 121.75 155.729C122.465 156.087 123.337 155.796 123.694 155.081C124.052 154.365 123.762 153.494 123.046 153.136C116.911 150.068 108.371 149.171 99.3474 149.745C86.0326 150.593 71.6655 154.612 62.671 159.172C61.9575 159.534 61.672 160.407 62.0338 161.12C62.3958 161.835 63.2687 162.121 63.9824 161.758Z" fill="white"/>
<path fill-rule="evenodd" clip-rule="evenodd" d="M49.0218 82.1946C48.3897 81.9659 47.6617 82.2032 47.2954 82.7981C46.8758 83.4793 47.0883 84.373 47.7694 84.7927C48.0017 84.9356 48.3354 85.0608 48.7767 85.0916C49.2134 85.122 49.8734 85.0533 50.6586 84.9051C52.6305 84.5332 55.6566 83.5916 57.1288 83.7752C60.4264 84.1863 63.1102 87.4678 65.3676 91.4873C69.0544 98.0524 71.3806 106.766 72.1078 110.805C72.9664 115.576 73.7506 133.009 75.8864 143.93C76.4619 146.875 77.1432 149.364 77.9332 151.065C78.6088 152.52 79.4293 153.461 80.2512 153.88C80.963 154.244 81.8371 153.961 82.2009 153.248C82.5648 152.536 82.2821 151.662 81.5689 151.298C81.1702 151.094 80.8905 150.55 80.5628 149.844C79.8482 148.303 79.2524 146.042 78.732 143.373C76.5981 132.467 75.8182 115.056 74.9615 110.291C74.1999 106.062 71.7558 96.9417 67.8955 90.0677C65.1209 85.1271 61.5407 81.4036 57.4876 80.8982C56.3634 80.7581 54.4661 81.0993 52.636 81.5084C51.2493 81.8185 49.2933 82.1491 49.0218 82.1946Z" fill="white"/>
<path fill-rule="evenodd" clip-rule="evenodd" d="M141.94 55.7798C141.934 55.7501 141.927 55.7202 141.918 55.6906C141.699 54.921 140.896 54.4743 140.128 54.6934C138.785 55.0753 138.556 55.9514 138.549 56.3982C138.542 56.8395 138.782 57.634 139.839 58.1182C142.202 59.2006 152.939 60.6143 153.964 60.7607C156.226 61.0838 158.049 62.4772 159.495 64.331C161.862 67.3678 163.226 71.6349 163.665 75.1489C163.764 75.9429 164.489 76.5068 165.283 76.4075C166.077 76.3084 166.641 75.5832 166.541 74.7893C166.044 70.8085 164.462 65.9885 161.781 62.5484C159.86 60.0843 157.381 58.32 154.375 57.8906C153.516 57.7679 145.529 56.7532 142.03 55.8056L141.94 55.7798Z" fill="white"/>
<path fill-rule="evenodd" clip-rule="evenodd" d="M31.9214 73.7371C32.2945 70.604 31.5059 67.1968 31.8101 64.0048C32.9541 51.9922 43.5427 51.1873 53.5799 51.1873C54.38 51.1873 55.0296 50.5378 55.0296 49.7377C55.0296 48.9377 54.38 48.2881 53.5799 48.2881C42.0212 48.2881 30.2413 49.8963 28.9238 63.7299C28.6219 66.8997 29.4129 70.2831 29.0424 73.3943C28.9478 74.1888 29.516 74.9106 30.3104 75.0052C31.105 75.0998 31.8267 74.5317 31.9214 73.7371Z" fill="white"/>
<path fill-rule="evenodd" clip-rule="evenodd" d="M51.854 45.6998C55.9417 43.2627 60.7808 42.4475 65.7189 42.1607C70.888 41.8605 76.1687 42.1457 80.8945 41.9341C95.2182 41.2928 122.471 38.3438 135.437 42.048C136.205 42.2678 137.008 41.8216 137.228 41.0524C137.449 40.2831 137.002 39.48 136.232 39.2603C123.048 35.4933 95.3327 38.3854 80.7655 39.0377C76.0266 39.2498 70.7329 38.9653 65.5509 39.2663C60.1379 39.5808 54.8499 40.5381 50.3693 43.2095C49.6822 43.6193 49.4569 44.5098 49.8666 45.1969C50.2762 45.8842 51.1669 46.1094 51.854 45.6998Z" fill="white"/>
<path fill-rule="evenodd" clip-rule="evenodd" d="M148.172 52.3786C163.255 46.0867 176.073 32.5192 186.237 20.2143C186.748 19.5975 186.661 18.6831 186.043 18.1736C185.427 17.664 184.512 17.7511 184.002 18.368C174.121 30.3295 161.718 43.5864 147.055 49.7029C146.316 50.0109 145.967 50.8604 146.275 51.5989C146.583 52.3373 147.432 52.6867 148.172 52.3786Z" fill="white"/>
<path fill-rule="evenodd" clip-rule="evenodd" d="M192.113 7.85248C192.936 8.73603 193.168 10.365 193.28 12.1358C193.481 15.3385 193.058 19.0098 193.058 20.9455C193.058 35.035 188.57 55.3631 177.841 65.1977C177.251 65.7385 177.211 66.6562 177.752 67.2459C178.292 67.8356 179.21 67.8756 179.8 67.3349C191.062 57.0111 195.957 35.7357 195.957 20.9455C195.957 18.9698 196.379 15.2224 196.173 11.9533C196.012 9.4088 195.417 7.14579 194.234 5.87621C193.689 5.29085 192.771 5.25838 192.185 5.80373C191.6 6.34908 191.566 7.26712 192.113 7.85248Z" fill="white"/>
<path fill-rule="evenodd" clip-rule="evenodd" d="M15.7912 1.13759C14.6214 6.44148 15.8482 12.9715 18.4423 19.4159C22.2479 28.8696 28.9569 38.1426 34.7846 42.9784C35.4004 43.4894 36.315 43.4043 36.826 42.7885C37.3368 42.1728 37.2518 41.2581 36.6361 40.7473C31.0972 36.1511 24.7487 27.3184 21.1318 18.3333C18.7777 12.4853 17.5608 6.57513 18.6225 1.76209C18.7948 0.980888 18.3004 0.206643 17.5192 0.0342831C16.7378 -0.138077 15.9636 0.356389 15.7912 1.13759Z" fill="white"/>
<path fill-rule="evenodd" clip-rule="evenodd" d="M9.09961 0.619397C5.35885 5.52681 4.55416 12.6681 4.1087 18.5697C3.44578 27.3544 3.66555 37.6614 6.1302 47.0894C8.64747 56.719 13.5052 65.4249 22.0379 70.804C22.7148 71.2306 23.6106 71.0275 24.0374 70.3507C24.464 69.6739 24.2609 68.778 23.5841 68.3514C15.6874 63.3734 11.2648 55.2678 8.93522 46.3561C6.55276 37.243 6.35895 27.2792 6.99983 18.7878C7.40602 13.4055 7.99369 6.85264 11.4054 2.37707C11.8904 1.74068 11.7676 0.830317 11.1314 0.345418C10.495 -0.139627 9.58465 -0.0168437 9.09961 0.619397Z" fill="white"/>
<path fill-rule="evenodd" clip-rule="evenodd" d="M60.1515 207.294C60.2046 207.268 60.2565 207.239 60.3069 207.206C60.9758 206.766 61.1622 205.866 60.7229 205.198C59.9825 204.07 59.3017 203.737 58.9931 203.673C58.4746 203.564 58.0468 203.695 57.6883 203.979C57.4411 204.174 57.1682 204.509 57.0682 205.065C56.9399 205.778 57.2855 207.83 57.7032 209.815C59.8603 220.061 66.4227 226.515 76.7281 226.515C77.5283 226.515 78.1777 225.865 78.1777 225.065C78.1777 224.265 77.5283 223.615 76.7281 223.615C67.9087 223.615 62.3863 217.986 60.5403 209.218C60.402 208.561 60.2631 207.897 60.1515 207.294Z" fill="white"/>
<path fill-rule="evenodd" clip-rule="evenodd" d="M162.973 204.463C163.547 207.686 163.912 210.263 163.929 212.358C163.944 214.186 163.702 215.601 163.005 216.724C162.322 217.826 161.209 218.616 159.608 219.303C157.754 220.097 155.301 220.724 152.128 221.358C151.344 221.515 150.834 222.28 150.992 223.065C151.148 223.849 151.912 224.358 152.696 224.201C156.116 223.518 158.753 222.824 160.752 221.966C163.005 221 164.508 219.803 165.469 218.252C166.417 216.724 166.848 214.822 166.829 212.335C166.811 210.112 166.436 207.375 165.827 203.954C165.686 203.167 164.934 202.641 164.145 202.782C163.358 202.922 162.832 203.674 162.973 204.463Z" fill="white"/>
<path fill-rule="evenodd" clip-rule="evenodd" d="M87.4419 224.884C86.8055 224.414 85.9068 224.543 85.4269 225.175C84.9428 225.812 85.0674 226.722 85.7052 227.206C85.6879 227.192 85.6531 227.164 85.6531 227.164C85.6531 227.164 86.0575 227.486 86.2967 227.572C87.2897 227.93 89.1641 227.802 91.4008 227.272C95.7468 226.242 101.769 223.893 104.159 223.526C115.089 221.844 124.329 223.569 135.026 225.352C135.814 225.483 136.562 224.949 136.693 224.161C136.825 223.371 136.291 222.624 135.501 222.492C124.489 220.657 114.972 218.928 103.717 220.66C101.286 221.034 95.1525 223.404 90.7326 224.451C89.7091 224.694 88.7872 224.864 88.0493 224.896C87.8159 224.906 87.6115 224.912 87.4419 224.884Z" fill="white"/>
<path fill-rule="evenodd" clip-rule="evenodd" d="M19.8411 72.6171C20.454 72.9021 21.2037 72.7257 21.6192 72.1601C22.0928 71.5153 21.9537 70.6072 21.309 70.1336C20.247 69.3536 18.8165 69.4878 17.3584 70.8924C14.0798 74.0508 9.58338 84.9058 8.90626 86.7113C3.12748 102.121 -0.673296 125.01 8.31742 139.995C8.72911 140.681 9.62035 140.904 10.3063 140.492C10.9924 140.08 11.2152 139.189 10.8035 138.503C2.23567 124.223 6.11385 102.415 11.621 87.7293C12.1781 86.2438 15.4357 78.2176 18.3094 74.2461C18.6901 73.72 19.0593 73.2712 19.415 72.9375C19.542 72.8185 19.7265 72.6914 19.8411 72.6171Z" fill="white"/>
<path fill-rule="evenodd" clip-rule="evenodd" d="M13.3157 140.924C12.9017 140.318 12.087 140.111 11.4282 140.469C10.725 140.85 10.4639 141.732 10.8456 142.433C11.4199 143.493 12.3552 143.941 13.5896 143.821C14.3441 143.748 15.2758 143.402 16.2837 142.813C20.1361 140.569 25.5825 134.657 26.3639 133.615C26.8439 132.975 26.714 132.066 26.074 131.586C25.434 131.106 24.5245 131.235 24.0445 131.876C23.329 132.83 18.3514 138.254 14.8241 140.308C14.4395 140.533 14.0771 140.714 13.7437 140.829C13.6113 140.875 13.4266 140.907 13.3157 140.924Z" fill="white"/>
<path fill-rule="evenodd" clip-rule="evenodd" d="M24.1374 89.9009C24.1817 89.8142 24.2177 89.7219 24.2445 89.6245C24.2449 89.6229 24.2329 89.6062 24.2097 89.5778C24.2332 89.153 23.9078 88.9343 23.4729 88.8304C22.811 88.2708 21.8947 87.7897 21.4431 88.8331C21.0101 89.8339 18.8129 94.953 18.3795 96.2532C17.3797 99.253 14.8431 107.698 15.2206 113.71C15.4104 116.731 16.3745 119.168 18.2476 120.417C18.9132 120.86 19.814 120.68 20.2579 120.015C20.7016 119.349 20.5214 118.448 19.8558 118.004C19.1025 117.502 18.6811 116.634 18.4163 115.592C18.0859 114.291 18.0261 112.734 18.1197 111.083C18.4198 105.791 20.3214 99.5958 21.13 97.17C21.5498 95.9105 23.6844 90.9539 24.1039 89.9845C24.1162 89.956 24.1275 89.9282 24.1374 89.9009Z" fill="white"/>
<path fill-rule="evenodd" clip-rule="evenodd" d="M20.2329 118.673L20.1591 118.677C19.3609 118.733 18.7583 119.426 18.8141 120.224C18.861 120.895 19.1699 121.256 19.4425 121.47C19.7577 121.718 20.1397 121.847 20.598 121.798C20.8656 121.77 21.2414 121.649 21.6335 121.353C22.1687 120.95 22.9788 119.971 23.4167 119.533C23.9825 118.967 23.9825 118.049 23.4167 117.483C22.851 116.917 21.9324 116.917 21.3666 117.483C21.1247 117.725 20.5873 118.295 20.2329 118.673Z" fill="white"/>
<path fill-rule="evenodd" clip-rule="evenodd" d="M182.505 72.9494C183.876 73.6735 185.011 75.2837 185.993 77.116C187.634 80.1778 188.76 83.9068 189.315 86.1292C192.213 97.7183 195.842 115.526 191.267 126.962C190.969 127.705 191.332 128.549 192.074 128.846C192.818 129.143 193.661 128.782 193.959 128.039C198.731 116.107 195.152 97.5176 192.129 85.426C191.532 83.0383 190.311 79.0359 188.549 75.7466C187.261 73.3447 185.657 71.3348 183.859 70.3856C183.152 70.012 182.275 70.2831 181.901 70.9907C181.527 71.6981 181.798 72.5758 182.505 72.9494Z" fill="white"/>
<path fill-rule="evenodd" clip-rule="evenodd" d="M173.205 124.259C173.201 127.367 175.123 129.673 177.898 131.244C181.562 133.319 186.724 134.081 189.641 134.081C190.441 134.081 191.091 133.432 191.091 132.632C191.091 131.832 190.441 131.182 189.641 131.182C187.081 131.182 182.542 130.543 179.327 128.721C177.512 127.694 176.101 126.294 176.104 124.262C176.104 123.462 175.456 122.811 174.656 122.811C173.856 122.81 173.205 123.459 173.205 124.259Z" fill="white"/>
<path fill-rule="evenodd" clip-rule="evenodd" d="M182.848 113.892C182.644 114.142 182.521 114.461 182.521 114.808C182.521 115.608 183.17 116.258 183.97 116.258C184.314 116.258 184.956 116.145 185.382 115.354C185.861 114.465 186.771 109.836 186.904 105.947C187.049 101.732 186.048 94.8626 184.126 88.8748C182.808 84.7681 181.041 81.08 178.969 78.8534C178.424 78.2677 177.507 78.2347 176.921 78.7797C176.335 79.3248 176.302 80.2428 176.847 80.8285C178.687 82.8062 180.194 86.1134 181.365 89.7609C183.176 95.4043 184.144 101.874 184.007 105.847C183.901 108.932 182.993 113.224 182.848 113.892Z" fill="white"/>
<path fill-rule="evenodd" clip-rule="evenodd" d="M175.652 110.172C175.097 111.644 175.71 113.557 177.213 114.972C179.217 116.858 182.62 117.805 185.42 115.566C186.044 115.066 186.146 114.153 185.646 113.528C185.146 112.903 184.232 112.802 183.608 113.302C182.101 114.507 180.279 113.876 179.201 112.861C178.854 112.535 178.579 112.167 178.431 111.789C178.351 111.583 178.296 111.379 178.366 111.195C178.647 110.446 178.269 109.609 177.521 109.327C176.771 109.045 175.935 109.423 175.652 110.172Z" fill="white"/>
<path fill-rule="evenodd" clip-rule="evenodd" d="M111.855 11.1638L111.897 11.208C113.468 12.9473 115.095 15.5236 115.219 15.7242C116.798 18.2902 118.545 21.4182 119.631 24.689C120.653 27.7648 121.102 30.9699 120.124 33.9092C120.019 34.2211 119.86 34.6456 119.702 35.0523C119.694 35.0484 119.687 35.0445 119.68 35.0406C117.129 33.6231 115.027 30.9905 113.041 28.9051C110.085 25.8018 107.465 22.4071 103.879 19.9739C102.409 18.976 89.5915 13.8669 83.1262 12.0964C82.8044 11.9236 82.4391 11.842 81.9839 11.8034C80.9097 11.551 80.0675 11.4352 79.5573 11.4566C78.86 11.4861 78.4193 11.7538 78.1743 11.9991C77.7612 12.4131 77.7017 12.8389 77.7235 13.173C77.751 13.6154 77.9554 14.1773 78.673 14.4811C78.8542 14.5574 79.176 14.6347 79.5471 14.6596C79.9356 14.686 80.5024 14.6702 80.585 14.6677L81.378 14.6638L81.4751 14.6628L81.6114 14.6955L81.7418 14.7286C81.7984 14.8324 81.8737 14.9785 81.9288 15.1148C84.0496 20.4181 85.5833 26.5323 86.7039 32.1295C86.959 33.4099 87.0707 35.125 86.8866 36.6321C86.6372 36.2303 86.3371 35.8054 85.9907 35.3625C81.1243 29.156 66.2078 18.2229 62.7832 15.7325C62.4067 15.4585 61.9708 15.1736 61.4929 14.8956C61.4295 14.7495 61.3634 14.6071 61.2952 14.4681C60.3054 12.4553 58.8556 11.1257 57.0434 10.6727C56.7115 10.5896 56.2221 10.5918 55.6502 10.8139C55.0476 11.048 54.2022 11.5874 53.4288 12.2173C52.6632 12.8407 51.9702 13.5489 51.6162 14.0728C51.2778 14.5735 51.1675 15.0362 51.1675 15.3525C51.1675 15.976 51.4557 16.3035 51.6792 16.4986C51.9826 16.7636 52.3619 16.91 52.8349 16.852C53.0169 16.8298 53.2677 16.7644 53.5332 16.5848C53.6416 16.5113 53.918 16.2569 54.0134 16.1682C54.7175 15.78 55.5937 15.8077 56.4801 15.9799C57.4013 16.1588 58.3353 16.5153 59.1757 16.9336C59.8767 19.0246 60.0982 21.7394 59.8947 24.6381C59.5176 30.0094 57.6543 36.0178 54.2936 40.0369C52.1983 42.5427 49.5099 44.259 46.2046 44.3973C45.4051 44.4307 44.7834 45.1068 44.8167 45.9062C44.8502 46.7056 45.5263 47.3275 46.3256 47.294C50.4739 47.1206 53.8882 45.0415 56.5178 41.8966C60.2446 37.4397 62.3686 30.7977 62.7868 24.8412C62.9261 22.8561 62.8738 20.9476 62.6371 19.2165C66.9339 22.3735 76.3492 29.4436 81.5896 34.7831C82.8088 36.0242 83.7945 37.1604 84.4034 38.1229C84.4207 38.1513 84.4381 38.1806 84.457 38.2105C83.8568 38.352 83.3988 38.4939 83.2581 38.5762C82.7464 38.8757 82.5971 39.2877 82.5406 39.5547C82.4391 40.0279 82.513 40.5205 82.9943 40.9543C83.1132 41.0609 83.3408 41.2454 83.7728 41.3321C84.0018 41.3785 84.5845 41.421 85.6732 41.421C86.211 41.421 86.5705 41.3721 86.8866 41.1754C87.1069 41.0374 87.3417 40.8329 87.5374 40.4528C87.7897 40.3785 88.0129 40.3013 88.1869 40.2223C88.874 39.9097 89.1944 39.4301 89.306 39.0946C90.025 36.9352 89.983 33.7426 89.5466 31.5608C88.513 26.396 87.1315 20.8054 85.2833 15.77C91.7819 17.8593 101.041 21.5518 102.251 22.3729C105.664 24.6888 108.128 27.9509 110.942 30.9045C113.119 33.191 115.475 36.021 118.272 37.575C118.848 37.8953 120.119 38.2809 120.119 38.2809C120.832 38.4898 121.586 38.1273 121.869 37.4409C121.869 37.4409 122.578 35.7118 122.873 34.8259C123.82 31.9877 123.722 28.9426 123.002 25.9371C121.985 21.6814 119.718 17.504 117.688 14.2047C117.617 14.0902 117.103 13.2801 116.382 12.2584C118.98 12.8944 121.643 13.9574 123.798 15.3945C133.683 21.9844 140.889 30.482 144.164 41.9449C144.384 42.7142 145.188 43.1602 145.956 42.9405C146.726 42.7207 147.172 41.9178 146.952 41.1484C143.481 29.0003 135.882 19.9661 125.407 12.9822C122.504 11.0467 118.787 9.69955 115.354 9.07549C115.261 9.05853 114.277 8.77382 113.291 8.48607L113.136 8.34097C112.43 7.6998 111.736 7.3055 111.185 7.18373C110.408 7.01166 109.749 7.20156 109.219 7.73038C108.803 8.14672 108.701 8.61031 108.77 9.07578C108.822 9.42543 109.07 10.003 109.808 10.412C110.239 10.6514 111.027 10.92 111.855 11.1638Z" fill="white"/>
<path fill-rule="evenodd" clip-rule="evenodd" d="M43.7928 22.6421C44.3976 24.4156 44.7216 26.361 44.8533 27.0198C46.2806 34.1562 44.6185 41.3569 38.5243 45.0842C37.8418 45.5015 37.6265 46.3946 38.044 47.0771C38.4615 47.7597 39.3545 47.9749 40.0371 47.5574C47.1856 43.1852 49.3705 34.8224 47.6963 26.4511C47.5979 25.9596 47.391 24.8479 47.0618 23.5725C47.2441 23.6106 47.4261 23.6465 47.6079 23.6815C49.4656 24.0382 51.3114 24.2696 53.6715 25.2626C53.8078 25.3198 53.8939 25.4818 54.0051 25.6414C54.2444 25.9844 54.4529 26.4032 54.6395 26.8202C55.1305 27.9173 55.5065 29.0083 55.7286 29.3453C56.1836 30.0359 56.7856 30.11 57.1299 30.0909C57.5531 30.0672 58.0803 29.9123 58.4133 29.2164C58.5078 29.0193 58.6485 28.4548 58.6485 27.3598C58.6485 26.6334 58.1132 26.0312 57.4159 25.9264C57.2718 25.5961 57.1185 25.264 56.9681 24.9705C56.3918 23.846 55.6091 22.9325 54.796 22.5902C52.7022 21.7093 50.9768 21.356 49.3151 21.0494C48.2101 20.8456 47.1364 20.6664 45.9817 20.3233C45.7367 19.7642 45.4636 19.2495 45.1617 18.8216C44.1361 17.3678 42.8024 16.7413 41.2907 17.2453C39.7353 17.7637 39.4604 18.681 39.4496 19.2264C39.4377 19.8182 39.8189 20.5886 40.6912 21.112C41.8162 21.787 42.836 22.2745 43.7928 22.6421Z" fill="white"/>
<path fill-rule="evenodd" clip-rule="evenodd" d="M73.7595 23.462C73.7836 23.2312 73.8299 22.8484 73.8911 22.5719C74.1702 21.3132 74.5166 19.9146 74.3912 19.1617L74.3637 19.0079C77.2467 21.1445 80.6504 22.3923 83.9208 23.8459C84.6514 24.1709 85.5096 23.8411 85.8343 23.1099C86.159 22.3788 85.8299 21.5214 85.0979 21.1965C81.5492 19.6189 77.7932 18.3699 74.8809 15.6819C74.0715 14.9346 73.2153 13.8413 72.253 12.9832C71.432 12.2512 70.5341 11.6809 69.5675 11.4392C69.3642 11.3885 68.9434 11.3666 68.7637 11.4059C68.5754 11.4472 68.4186 11.5188 68.2898 11.6004C67.964 11.8064 67.7588 12.094 67.6612 12.4486C67.5979 12.6784 67.5708 12.9626 67.6846 13.304C68.0686 14.4561 68.7693 15.3957 69.5356 16.3091C70.3494 17.2792 71.2908 18.1948 71.5314 19.6383C71.5832 19.949 71.4195 20.4336 71.2944 20.9562C71.0939 21.7932 70.8768 22.6792 70.8421 23.3628C70.775 24.6904 71.3457 25.5322 72.2486 25.8427C73.0051 26.1029 73.8305 25.6999 74.0907 24.9434C74.2744 24.4096 74.1278 23.8414 73.7595 23.462Z" fill="white"/>
<path fill-rule="evenodd" clip-rule="evenodd" d="M105.428 22.7738C105.16 22.935 104.942 23.1839 104.822 23.4989C104.538 24.2466 104.913 25.0846 105.661 25.3692C106.335 25.6252 106.692 25.4856 106.88 25.4157C107.247 25.2786 107.814 24.3764 107.814 24.3764C107.814 24.3764 107.772 24.4944 107.72 24.5745C109.6 21.754 109.078 19.2721 107.852 16.8586C107.567 16.2986 107.237 15.745 106.899 15.1915C110.923 16.9308 114.22 18.865 117.586 21.7499C118.193 22.2706 119.109 22.2002 119.63 21.5926C120.15 20.9853 120.081 20.0694 119.473 19.5487C115.822 16.42 112.253 14.3309 107.865 12.4503C107.062 12.1064 106.171 11.8271 105.597 11.1381C105.547 11.0768 104.545 10.017 104.31 9.88099C103.842 9.60947 103.446 9.66195 103.226 9.71297C102.782 9.81575 102.456 10.0706 102.252 10.4814C102.031 10.9204 102.023 11.4734 102.142 11.9495C102.682 14.1108 104.225 16.1199 105.267 18.1715C106 19.6159 106.441 21.1006 105.428 22.7738ZM106.585 22.6235L106.611 22.631L106.601 22.6278L106.585 22.6235Z" fill="white"/>
<path fill-rule="evenodd" clip-rule="evenodd" d="M140.177 15.286V15.3069V18.463C140.177 18.6108 140.295 22.3882 140.124 24.9961C140.117 25.1136 140.107 25.235 140.094 25.3563C140.024 25.3725 139.955 25.3941 139.887 25.4215C139.143 25.7175 138.779 26.5614 139.076 27.3047C139.482 28.3253 140.003 28.7312 140.297 28.8687C140.664 29.0404 141.016 29.0586 141.349 28.9799C141.691 28.899 142.061 28.7016 142.354 28.2702C142.635 27.8565 142.921 26.6756 143.018 25.1855C143.167 22.897 143.103 19.7332 143.082 18.757C143.838 19.2345 144.662 19.7058 145.373 20.1345C145.932 20.4711 146.416 20.7471 146.629 20.9867C150.353 25.1771 153.004 30.0057 153.929 35.5556C154.06 36.3447 154.808 36.8788 155.598 36.7472C156.386 36.6157 156.92 35.8681 156.789 35.0789C155.773 28.982 152.887 23.664 148.795 19.0606C148.164 18.351 145.966 17.1956 144.285 16.0858C143.805 15.7692 143.238 15.2611 143.07 15.1066C143.006 13.5871 142.316 13.3092 141.626 13.564C140.909 13.2993 140.193 13.609 140.177 15.286Z" fill="white"/>
<path fill-rule="evenodd" clip-rule="evenodd" d="M13.3121 220.099C13.5536 219.653 13.8372 219.179 14.1519 218.685C17.3832 213.612 23.8338 206.642 25.2601 205.216C25.6403 204.836 26.7546 203.511 27.8499 202.608C28.1236 202.382 28.5648 202.124 28.7132 202.04C29.3899 202.144 30.0667 201.756 30.3011 201.086C30.5657 200.331 30.1675 199.503 29.4124 199.239C28.7145 198.994 27.7003 199.165 26.6733 199.865C25.3054 200.799 23.6978 202.678 23.2098 203.166C21.7321 204.643 15.0547 211.871 11.7066 217.128C10.5898 218.88 9.84387 220.455 9.65035 221.582C9.51466 222.372 9.61584 223.029 9.8675 223.532C10.0546 223.906 10.4529 224.328 11.18 224.383C11.6788 224.419 12.7343 224.081 12.8937 223.986C15.6077 222.358 17.897 219.315 20.674 217.49C26.1913 213.865 32.1398 210.797 38.4451 208.807C39.208 208.565 39.6318 207.75 39.3908 206.987C39.1499 206.225 38.3349 205.8 37.572 206.041C31.0129 208.112 24.8211 211.296 19.0819 215.066C17.0102 216.427 15.2192 218.483 13.3121 220.099Z" fill="white"/>
<path fill-rule="evenodd" clip-rule="evenodd" d="M27.7128 201.525C31.2071 199.983 34.6586 199.176 38.4293 199.176C39.2293 199.176 39.8789 198.526 39.8789 197.726C39.8789 196.926 39.2293 196.276 38.4293 196.276C34.2477 196.276 30.4178 197.162 26.5425 198.873C25.8104 199.196 25.4783 200.053 25.8013 200.785C26.1243 201.517 26.9807 201.849 27.7128 201.525Z" fill="white"/>
<path fill-rule="evenodd" clip-rule="evenodd" d="M39.4323 208.006C42.3962 207.494 45.3967 207.241 48.3662 206.746C49.1554 206.614 49.6893 205.868 49.5577 205.078C49.4262 204.289 48.6788 203.754 47.8896 203.886C44.9148 204.382 41.909 204.637 38.9399 205.149C38.1514 205.285 37.6217 206.035 37.7576 206.823C37.8935 207.612 38.644 208.141 39.4323 208.006Z" fill="white"/>
<path fill-rule="evenodd" clip-rule="evenodd" d="M6.5124 203.989C8.09713 202.194 9.67577 200.443 11.4503 198.786C16.2617 194.295 28.9987 186.082 36.0624 185.512C36.86 185.448 37.4552 184.748 37.391 183.951C37.3266 183.154 36.627 182.558 35.8296 182.623C28.2853 183.23 14.6109 191.87 9.47195 196.667C7.20111 198.786 5.23716 201.054 3.19 203.373C2.42576 204.24 1.52351 204.934 0.848712 205.879C0.845378 205.884 0.214214 206.788 0.137384 206.967C-0.224588 207.804 0.224503 208.355 0.39005 208.538C0.644459 208.819 0.987006 209.015 1.46611 209.015C2.03711 209.015 3.61749 208.486 5.56782 207.616C9.45644 205.881 15.192 202.915 16.4378 202.463C19.9727 201.177 23.662 200.43 27.223 199.243C27.9819 198.989 28.3927 198.167 28.1398 197.409C27.8868 196.65 27.0652 196.239 26.3061 196.492C22.7205 197.688 19.0066 198.443 15.447 199.737C14.3933 200.121 10.1772 202.264 6.5124 203.989Z" fill="white"/>
<path fill-rule="evenodd" clip-rule="evenodd" d="M207.067 178.65C205.946 180.886 204.724 183.012 202.667 184.6C200.803 186.038 198.284 187.02 196.144 187.918C192.279 189.538 188.259 190.694 184.125 191.329C183.335 191.45 182.791 192.191 182.913 192.983C183.035 193.773 183.776 194.316 184.566 194.195C188.935 193.522 193.182 192.304 197.266 190.591C199.624 189.602 202.382 188.482 204.439 186.894C206.875 185.016 208.367 182.532 209.692 179.882C209.928 179.41 210.644 177.417 210.733 176.448C210.808 175.648 210.502 175.115 210.256 174.868C210.128 174.741 209.518 174.188 208.529 174.588C207.69 174.929 203.733 177.167 199.704 179.287C193.81 182.389 184.928 184.327 178.435 182.479C177.666 182.26 176.862 182.708 176.644 183.476C176.425 184.246 176.871 185.049 177.641 185.268C184.785 187.302 194.57 185.265 201.054 181.853C203.117 180.768 205.382 179.555 207.067 178.65Z" fill="white"/>
<path fill-rule="evenodd" clip-rule="evenodd" d="M177.077 194.279C177.387 194.553 178.212 195.213 179.057 195.324C187.39 196.436 195.934 196.58 203.321 201.105C206.207 202.874 210.358 205.321 212.109 208.349C211.922 208.646 211.841 209.01 211.907 209.381C212.049 210.168 212.803 210.693 213.59 210.551C214.624 210.366 215.062 209.709 215.152 208.877C215.212 208.309 214.979 207.546 214.715 207.068C212.787 203.589 208.134 200.653 204.836 198.634C197.095 193.891 188.173 193.615 179.44 192.451C179.249 192.425 179.166 192.268 179.075 192.181C178.87 191.984 178.676 191.82 178.489 191.707C178.111 191.481 177.718 191.393 177.295 191.444C176.5 191.539 175.933 192.261 176.029 193.056C176.1 193.654 176.529 194.125 177.077 194.279Z" fill="white"/>
<path fill-rule="evenodd" clip-rule="evenodd" d="M169.777 202.691C177.722 202.579 188.387 203.269 197.762 205.958C203.852 207.705 209.398 210.285 213.212 214.099C213.777 214.665 214.696 214.665 215.262 214.099C215.827 213.534 215.827 212.615 215.262 212.05C211.132 207.92 205.156 205.064 198.56 203.172C188.905 200.402 177.921 199.677 169.736 199.792C168.936 199.803 168.295 200.461 168.307 201.262C168.318 202.062 168.977 202.702 169.777 202.691Z" fill="white"/>
<path fill-rule="evenodd" clip-rule="evenodd" d="M187.459 204.875C187.76 204.987 188.228 205.175 188.562 205.368C189.771 206.073 190.98 207.064 191.159 207.253C192.735 208.897 194.05 211.676 194.601 214.427C194.953 216.183 195.001 217.931 194.528 219.348C194.276 220.107 194.686 220.929 195.445 221.182C196.204 221.434 197.026 221.024 197.278 220.265C197.894 218.419 197.902 216.143 197.444 213.857C196.781 210.546 195.149 207.225 193.253 205.247C192.927 204.907 190.013 202.527 188.105 202.007C187.215 201.765 186.451 201.872 185.91 202.202C185.438 202.489 185.052 202.947 184.89 203.684C184.717 204.465 185.212 205.239 185.993 205.412C186.563 205.538 187.128 205.31 187.459 204.875Z" fill="white"/>
<path fill-rule="evenodd" clip-rule="evenodd" d="M170.984 201.264C170.894 201.193 170.794 201.132 170.685 201.082C169.956 200.753 169.096 201.079 168.767 201.809C168.515 202.367 168.585 202.812 168.724 203.151C168.85 203.46 169.062 203.726 169.382 203.924C169.657 204.092 170.144 204.235 170.752 204.202C171.274 204.174 171.999 204.003 172.332 204.003C175.086 204.003 177.04 204.46 179.483 205.823C179.979 206.098 180.769 206.863 181.74 207.887C184.283 210.566 187.807 214.965 190.117 218.468C190.932 219.701 191.593 220.816 191.987 221.693C192.158 222.07 192.296 222.364 192.296 222.58C192.296 223.38 192.946 224.03 193.746 224.03C194.546 224.03 195.195 223.38 195.195 222.58C195.195 222.183 195.091 221.651 194.849 221.021C194.445 219.97 193.617 218.507 192.537 216.87C190.139 213.237 186.482 208.671 183.843 205.891C182.595 204.576 181.533 203.645 180.895 203.29C177.97 201.659 175.631 201.104 172.332 201.104C172.067 201.104 171.604 201.174 171.135 201.245L170.984 201.264Z" fill="white"/>
<path fill-rule="evenodd" clip-rule="evenodd" d="M33.1955 229.168C33.0245 229.173 32.8521 229.211 32.6855 229.282C31.95 229.597 31.608 230.449 31.9226 231.186C32.4214 232.351 33.1468 232.667 33.5658 232.729C34.0317 232.797 34.5024 232.693 34.9365 232.308C35.1263 232.139 35.3357 231.876 35.511 231.494C35.7082 231.065 35.9023 230.378 36.0716 229.51C36.5443 227.086 36.9229 223.01 37.427 219.884C38.0005 216.328 39.8276 212.087 42.6939 209.267C44.4778 207.512 46.6743 206.314 49.2445 206.314C50.0445 206.314 50.6941 205.665 50.6941 204.865C50.6941 204.064 50.0445 203.415 49.2445 203.415C45.8887 203.415 42.9898 204.908 40.6607 207.2C37.3574 210.45 35.2256 215.325 34.5647 219.423C34.0465 222.636 33.688 226.887 33.1955 229.168Z" fill="white"/>
<path fill-rule="evenodd" clip-rule="evenodd" d="M37.2729 229.858C37.5144 229.61 37.7955 229.316 37.9059 229.175C39.7017 226.889 41.4539 224.548 43.1729 222.204C44.9768 219.744 47.4364 215.31 50.41 212.16C52.1198 210.349 53.9679 208.931 56.0228 208.931C56.8228 208.931 57.4724 208.282 57.4724 207.482C57.4724 206.682 56.8228 206.032 56.0228 206.032C53.243 206.032 50.6151 207.721 48.3021 210.169C45.2424 213.409 42.691 217.958 40.8349 220.489C39.1348 222.809 37.4022 225.124 35.6263 227.384C35.3752 227.704 34.6794 228.312 34.4321 228.7C34.1279 229.175 34.0947 229.625 34.1453 229.937C34.1968 230.253 34.3331 230.529 34.5569 230.763C34.773 230.989 35.1437 231.27 35.8243 231.27C36.6114 231.27 37.253 230.641 37.2729 229.858ZM35.9127 228.374L35.9527 228.377L35.9355 228.375L35.9127 228.374ZM35.8916 228.372C35.8697 228.371 35.8472 228.371 35.8243 228.371L35.8916 228.372Z" fill="white"/>
<path fill-rule="evenodd" clip-rule="evenodd" d="M31.0699 158.368C31.4267 157.669 31.1606 156.808 30.4664 156.434C29.719 156.031 29.152 156.182 28.8111 156.356C28.4074 156.562 28.0629 156.92 27.9583 157.54C27.8945 157.918 28.0248 158.791 28.551 159.942C30.2265 163.607 35.7441 171.968 39.9109 175.394C40.9713 176.265 41.977 176.836 42.831 177.055C44.14 177.391 45.2252 177.075 46.0328 176.066C46.5325 175.442 46.4311 174.528 45.8064 174.028C45.1816 173.529 44.2686 173.631 43.7688 174.256C43.7037 174.337 43.6061 174.263 43.499 174.233C43.1344 174.124 42.7387 173.89 42.3097 173.585C39.0465 171.249 34.664 165 32.3206 160.899C31.8098 160.005 31.3398 158.983 31.0699 158.368Z" fill="white"/>
<path fill-rule="evenodd" clip-rule="evenodd" d="M25.4589 156.756C24.5851 157.815 24.1299 159.218 24.0766 160.865C24.0083 162.967 24.6057 165.514 25.6319 168.123C27.1032 171.864 29.4432 175.751 31.7293 178.583C33.3616 180.607 34.997 182.097 36.2847 182.738C37.001 183.095 37.8719 182.802 38.2282 182.086C38.5847 181.37 38.2926 180.498 37.5762 180.142C36.5465 179.63 35.291 178.38 33.9856 176.763C31.8654 174.136 29.6944 170.531 28.3299 167.062C27.6016 165.211 27.1012 163.401 26.9919 161.813C26.9028 160.517 27.0489 159.385 27.695 158.602C28.2042 157.984 28.1167 157.069 27.4996 156.561C26.8826 156.052 25.9682 156.139 25.4589 156.756Z" fill="white"/>
<path fill-rule="evenodd" clip-rule="evenodd" d="M176.63 171.031C176.212 170.827 175.705 170.827 175.271 171.076C174.526 171.503 174.494 172.105 174.503 172.417C174.515 172.823 174.652 173.44 175.458 173.755C175.563 173.795 175.75 173.849 176.011 173.881C176.343 173.923 177.03 173.955 177.699 174.178C179.01 174.614 180.296 175.09 181.535 175.709C185.146 177.515 186.558 180.168 189.209 182.818C189.775 183.383 190.694 183.383 191.259 182.818C191.825 182.252 191.825 181.333 191.259 180.768C188.374 177.883 186.761 175.081 182.831 173.115C181.47 172.436 180.058 171.908 178.616 171.427C177.95 171.205 177.082 171.083 176.63 171.031ZM176.837 173.511L176.783 173.549L176.793 173.542L176.837 173.511ZM177.051 173.324C176.988 173.392 176.918 173.453 176.841 173.508C176.924 173.45 176.993 173.388 177.051 173.324Z" fill="white"/>
<path fill-rule="evenodd" clip-rule="evenodd" d="M196.663 192.18C196.796 191.407 196.286 190.664 195.512 190.513C194.726 190.361 193.965 190.874 193.812 191.66C193.674 192.37 193.846 193.141 194.238 193.895C194.575 194.543 195.108 195.185 195.377 195.726C195.735 196.441 196.606 196.732 197.323 196.374C198.039 196.016 198.329 195.145 197.971 194.428C197.728 193.944 197.298 193.379 196.949 192.802C196.859 192.653 196.776 192.505 196.715 192.354C196.693 192.3 196.669 192.205 196.663 192.18Z" fill="white"/>
<path fill-rule="evenodd" clip-rule="evenodd" d="M193.744 162.387C193.129 162.709 191.433 163.68 190.35 165.124C189.527 166.222 187.184 168.829 184.838 170.221C184.183 170.61 183.535 170.906 182.928 170.986C182.571 171.032 182.234 170.996 181.961 170.763C181.352 170.242 180.436 170.315 179.917 170.924C179.397 171.531 179.469 172.447 180.076 172.968C181.377 174.078 183.063 174.155 184.859 173.442C187.989 172.199 191.55 168.355 192.669 166.863C193.668 165.532 195.071 164.979 195.383 164.805C195.743 164.606 195.902 164.379 195.967 164.279C196.367 163.664 196.248 163.133 195.985 162.711C195.87 162.526 195.554 162.019 194.709 162.019C194.338 162.019 194 162.158 193.744 162.387ZM194.107 164.787C194.239 164.853 194.409 164.905 194.625 164.915C194.441 164.905 194.267 164.86 194.107 164.787Z" fill="white"/>
<path fill-rule="evenodd" clip-rule="evenodd" d="M194.212 164.089C194.251 164.356 194.322 164.9 194.331 165.375C194.376 167.934 193.874 172.159 193.121 174.999C192.9 175.833 192.465 176.803 192.326 177.104C191.788 177.316 191.407 177.839 191.407 178.452C191.407 179.252 192.057 179.902 192.857 179.902C193.395 179.902 193.988 179.677 194.505 179.06C194.999 178.47 195.517 177.278 195.924 175.743C196.862 172.204 197.425 166.691 197.167 164.175C197.056 163.108 196.707 162.408 196.407 162.108C196.468 162.169 196.523 162.263 196.523 162.263C196.523 162.263 196.076 161.679 195.831 161.554C195.617 161.444 195.281 161.277 194.604 161.458C193.831 161.666 193.371 162.461 193.577 163.234C193.677 163.604 193.911 163.902 194.212 164.089ZM195.191 164.292L195.163 164.297L195.176 164.295L195.191 164.292ZM195.272 164.278L195.236 164.285L195.262 164.281L195.272 164.278Z" fill="white"/>
<path fill-rule="evenodd" clip-rule="evenodd" d="M192.92 175.341C192.6 176.363 191.989 177.925 191.201 179.185C190.789 179.843 190.359 180.436 189.851 180.69C189.135 181.048 188.845 181.919 189.203 182.635C189.561 183.35 190.433 183.641 191.147 183.283C192.046 182.834 192.927 181.892 193.659 180.723C194.586 179.242 195.311 177.408 195.687 176.206C195.927 175.444 195.5 174.629 194.736 174.39C193.974 174.151 193.159 174.577 192.92 175.341Z" fill="white"/>
<path fill-rule="evenodd" clip-rule="evenodd" d="M34.065 179.042C33.7581 179.04 33.3778 179.026 33.044 178.982C28.6059 178.395 20.1333 175.441 19.3702 175.212C17.3989 174.62 15.0895 174.255 14.663 174.191C14.5579 174.164 14.448 174.148 14.3348 174.145C13.5831 174.129 13.2782 174.551 13.2205 174.613C13.1138 174.729 12.3107 176.683 14.0294 177.025C14.2821 177.075 16.4794 177.37 18.5371 177.988C19.4514 178.263 30.9432 182.186 34.5909 181.96C35.8017 181.885 36.5065 181.347 36.8005 180.791C37.0603 180.302 37.1634 179.643 36.7483 178.813C36.3906 178.098 35.5191 177.807 34.8035 178.165C34.4326 178.35 34.176 178.674 34.065 179.042ZM15.2572 176.685C14.994 176.917 14.6464 177.053 14.2686 177.044C14.812 177.057 15.1141 176.828 15.2572 176.685ZM15.7062 175.237C15.8224 175.605 15.7776 175.953 15.577 176.283C15.6833 176.089 15.7456 175.866 15.751 175.628C15.7542 175.493 15.7385 175.361 15.7062 175.237Z" fill="white"/>
<path fill-rule="evenodd" clip-rule="evenodd" d="M10.9222 175.654C11.4818 178.437 13.6152 182.621 16.49 185.516C18.5593 187.599 21.0139 188.992 23.4987 188.992C24.2989 188.992 24.9484 188.342 24.9484 187.542C24.9484 186.742 24.2989 186.093 23.4987 186.093C21.7195 186.093 20.0288 184.965 18.547 183.473C16.0955 181.004 14.2417 177.456 13.7647 175.083C13.6068 174.299 12.842 173.79 12.0576 173.948C11.2732 174.106 10.7645 174.87 10.9222 175.654Z" fill="white"/>
<path fill-rule="evenodd" clip-rule="evenodd" d="M158.186 44.9894L158.163 44.8986C158.002 44.1994 157.877 43.5329 157.725 42.8314C157.39 41.2915 157.373 39.7077 157.105 38.1542C157.078 37.9957 156.793 36.874 156.7 36.5077L156.704 36.4499C156.741 35.6505 156.123 34.9715 155.323 34.9344C154.955 34.9172 154.636 35.0246 154.36 35.2368C154.14 35.4055 153.85 35.7092 153.786 36.2626C153.77 36.4033 153.77 36.6629 153.831 36.9888C153.928 37.5104 154.218 38.4711 154.249 38.6468C154.523 40.2416 154.549 41.8665 154.892 43.4473C155.047 44.1611 155.174 44.8391 155.339 45.5504C155.366 45.6712 155.54 46.3008 155.62 46.4553C155.811 46.8257 156.069 46.9951 156.22 47.0785C156.765 47.381 157.268 47.3222 157.725 47.0221C157.854 46.9376 158.39 46.6451 158.39 45.7299C158.39 45.4594 158.316 45.2062 158.186 44.9894ZM155.723 44.9445C155.595 45.1151 155.491 45.3645 155.491 45.7299C155.491 45.4404 155.575 45.1706 155.723 44.9445ZM156.106 37.5564C155.849 37.7428 155.53 37.8463 155.188 37.8305C155.537 37.8467 155.845 37.7574 156.106 37.5564Z" fill="white"/>
<path fill-rule="evenodd" clip-rule="evenodd" d="M59.1331 214.836C58.8005 232.506 58.1357 267.845 58.1357 273.272C58.1357 274.072 58.7853 274.722 59.5854 274.722C60.3854 274.722 61.035 274.072 61.035 273.272C61.035 267.851 61.6989 232.545 62.0323 214.891C62.0468 214.091 61.409 213.43 60.6097 213.414C59.8098 213.4 59.148 214.036 59.1331 214.836Z" fill="white"/>
<path fill-rule="evenodd" clip-rule="evenodd" d="M160.749 222.552C161.116 221.866 160.877 221.007 160.199 220.614C159.507 220.212 158.618 220.448 158.217 221.14C158.066 221.399 157.902 221.853 157.788 222.497C157.608 223.509 157.489 225.181 157.424 227.311C157.07 238.967 158.263 264.945 158.263 269.149C158.263 269.949 158.913 270.598 159.713 270.598C160.513 270.598 161.163 269.949 161.163 269.149C161.163 264.953 159.968 239.031 160.322 227.399C160.372 225.715 160.455 224.342 160.583 223.396C160.631 223.037 160.738 222.594 160.749 222.552Z" fill="white"/>
<path fill-rule="evenodd" clip-rule="evenodd" d="M88.6353 228.016C88.56 229.406 88.4527 231.443 88.4266 232.049C88.2787 235.502 88.918 238.448 89.4225 241.805C89.5892 242.92 89.4196 244.114 89.6936 245.21C89.8878 245.986 90.6764 246.458 91.452 246.266C92.2275 246.071 92.7015 245.283 92.5073 244.507C92.255 243.5 92.4421 242.399 92.2884 241.375C91.8144 238.207 91.1838 235.431 91.3229 232.172C91.3664 231.165 91.6622 227.265 91.5998 226.433C91.5317 225.52 90.9359 225.178 90.7677 225.094C90.472 224.946 90.0951 224.872 89.6631 224.994C89.3036 225.095 88.6962 225.523 88.4252 226.103C88.199 226.588 88.186 227.117 88.373 227.568C88.4339 227.716 88.5165 227.871 88.6353 228.016Z" fill="white"/>
<path fill-rule="evenodd" clip-rule="evenodd" d="M132.652 246.003C132.635 245.699 132.592 244.919 132.592 244.777C132.592 243.262 132.565 241.743 132.509 240.229C132.386 236.891 132.183 233.575 132.183 230.231C132.183 229.763 132.044 228.889 131.975 228.022C131.944 227.619 131.991 226.962 132 226.864C132.41 226.223 132.254 225.365 131.63 224.911C130.982 224.441 130.075 224.585 129.605 225.233C129.291 225.665 129.086 226.33 129.055 227.119C129.011 228.193 129.284 229.598 129.284 230.231C129.284 233.612 129.486 236.962 129.611 240.336C129.666 241.814 129.692 243.298 129.692 244.777C129.692 244.991 129.75 246.167 129.774 246.4C129.891 247.641 131.11 247.745 131.178 247.748C131.239 247.75 132.673 247.705 132.673 246.248C132.673 246.164 132.667 246.083 132.652 246.003ZM130.265 245.161C130.008 245.352 129.798 245.661 129.776 246.161C129.8 245.764 129.984 245.409 130.265 245.161Z" fill="white"/>
<path fill-rule="evenodd" clip-rule="evenodd" d="M90.8725 245.109C90.3695 244.882 89.7578 244.953 89.3156 245.343C88.7648 245.828 88.485 246.078 88.2545 246.771C87.7819 248.19 88.2371 248.936 88.6241 249.281C88.6488 249.912 88.9083 250.408 89.2939 250.741C89.6055 251.011 90.0274 251.212 90.6101 251.212C91.0146 251.212 91.4712 251.083 91.922 250.789L91.9989 250.735C92.9759 250.793 93.8413 250.432 94.3038 249.815C94.5024 249.549 94.6575 249.184 94.7082 248.745C94.7749 248.156 94.6386 247.372 94.3357 246.772C94.24 246.582 94.1298 246.412 94.0081 246.262C93.837 245.63 93.4296 245.161 92.7831 244.902C92.4062 244.751 91.9728 244.725 91.5263 244.84C91.3089 244.896 91.0813 244.999 90.8725 245.109Z" fill="white"/>
<path fill-rule="evenodd" clip-rule="evenodd" d="M128.615 248.538C128.42 248.784 128.304 249.096 128.304 249.435C128.304 250.711 128.982 251.256 129.695 251.466C130.349 251.659 131.407 251.439 132.258 250.669C132.347 250.605 132.434 250.537 132.518 250.462C133.06 249.973 133.506 249.195 133.672 248.451C133.818 247.786 133.744 247.149 133.501 246.662C133.267 246.195 132.944 245.905 132.59 245.726C132.161 245.334 131.691 245.205 131.246 245.211C130.643 245.218 129.965 245.539 129.449 246.211C128.988 246.814 128.647 247.726 128.615 248.525V248.538Z" fill="white"/>
<circle cx="51.0675" cy="123.163" r="6.00796" fill="white"/>
<circle cx="147.195" cy="117.155" r="6.00796" fill="white"/>
</svg>
