<svg width="30" height="30" viewBox="0 0 30 30" fill="none" xmlns="http://www.w3.org/2000/svg">
<circle cx="15" cy="15" r="15" fill="white" fill-opacity="0.1"/>
<path d="M15 10C13.6193 10 12.5 11.1193 12.5 12.5C12.5 13.8807 13.6193 15 15 15C16.3807 15 17.5 13.8807 17.5 12.5C17.5 11.1193 16.3807 10 15 10ZM13.125 12.5C13.125 12.0027 13.3225 11.5258 13.6742 11.1742C14.0258 10.8225 14.5027 10.625 15 10.625C15.4973 10.625 15.9742 10.8225 16.3258 11.1742C16.6775 11.5258 16.875 12.0027 16.875 12.5C16.875 12.9973 16.6775 13.4742 16.3258 13.8258C15.9742 14.1775 15.4973 14.375 15 14.375C14.5027 14.375 14.0258 14.1775 13.6742 13.8258C13.3225 13.4742 13.125 12.9973 13.125 12.5ZM12.0625 16C11.7808 16 11.5105 16.1119 11.3113 16.3111C11.112 16.5103 11.0001 16.7805 11 17.0623V17.25C11 18.1888 11.4855 18.8918 12.23 19.345C12.9625 19.7908 13.9465 20 15 20C16.0535 20 17.0375 19.7908 17.77 19.345C18.5145 18.8918 19 18.1888 19 17.25V17.0623C19 16.9227 18.9725 16.7846 18.9191 16.6557C18.8657 16.5268 18.7875 16.4097 18.6888 16.311C18.5901 16.2124 18.473 16.1342 18.3441 16.0808C18.2152 16.0274 18.077 16 17.9375 16H12.0625ZM11.625 17.0623C11.6251 16.9463 11.6712 16.835 11.7532 16.7531C11.8353 16.6711 11.9465 16.625 12.0625 16.625H17.9375C18.1793 16.625 18.375 16.8208 18.375 17.0623V17.25C18.375 17.936 18.035 18.452 17.445 18.8112C16.8425 19.178 15.983 19.375 15 19.375C14.017 19.375 13.1575 19.178 12.555 18.8112C11.965 18.452 11.625 17.9362 11.625 17.25V17.0623Z" fill="white"/>
</svg>
