<svg width="30" height="30" viewBox="0 0 30 30" fill="none" xmlns="http://www.w3.org/2000/svg">
<circle cx="15" cy="15" r="15" fill="white" fill-opacity="0.1"/>
<path d="M18.5 18.375H11.5C11.2683 18.3737 11.0465 18.2811 10.8827 18.1173C10.7189 17.9535 10.6263 17.7317 10.625 17.5V12.5C10.6263 12.2683 10.7189 12.0465 10.8827 11.8827C11.0465 11.7189 11.2683 11.6263 11.5 11.625H18.5C18.7317 11.6263 18.9535 11.7189 19.1173 11.8827C19.2811 12.0465 19.3737 12.2683 19.375 12.5V17.5C19.3737 17.7317 19.2811 17.9535 19.1173 18.1173C18.9535 18.2811 18.7317 18.3737 18.5 18.375ZM11.5 12.375C11.4668 12.375 11.4351 12.3882 11.4116 12.4116C11.3882 12.4351 11.375 12.4668 11.375 12.5V17.5C11.375 17.5332 11.3882 17.5649 11.4116 17.5884C11.4351 17.6118 11.4668 17.625 11.5 17.625H18.5C18.5332 17.625 18.5649 17.6118 18.5884 17.5884C18.6118 17.5649 18.625 17.5332 18.625 17.5V12.5C18.625 12.4668 18.6118 12.4351 18.5884 12.4116C18.5649 12.3882 18.5332 12.375 18.5 12.375H11.5Z" fill="#F8F8F8"/>
<path d="M13.5 14.875C13.3022 14.875 13.1089 14.8164 12.9444 14.7065C12.78 14.5966 12.6518 14.4404 12.5761 14.2577C12.5004 14.075 12.4806 13.8739 12.5192 13.6799C12.5578 13.4859 12.653 13.3077 12.7929 13.1679C12.9327 13.028 13.1109 12.9328 13.3049 12.8942C13.4989 12.8556 13.7 12.8754 13.8827 12.9511C14.0654 13.0268 14.2216 13.155 14.3315 13.3194C14.4414 13.4839 14.5 13.6772 14.5 13.875C14.5 14.1402 14.3946 14.3946 14.2071 14.5821C14.0196 14.7696 13.7652 14.875 13.5 14.875ZM13.5 13.625C13.4506 13.625 13.4022 13.6397 13.3611 13.6671C13.32 13.6946 13.288 13.7336 13.269 13.7793C13.2501 13.825 13.2452 13.8753 13.2548 13.9238C13.2644 13.9723 13.2883 14.0168 13.3232 14.0518C13.3582 14.0867 13.4027 14.1106 13.4512 14.1202C13.4997 14.1298 13.55 14.1249 13.5957 14.106C13.6414 14.087 13.6804 14.055 13.7079 14.0139C13.7353 13.9728 13.75 13.9244 13.75 13.875C13.75 13.8087 13.7237 13.7451 13.6768 13.6982C13.6299 13.6513 13.5663 13.625 13.5 13.625ZM15 16.875C14.9009 16.8737 14.8063 16.8338 14.7363 16.7637C14.6662 16.6937 14.6263 16.5991 14.625 16.5C14.625 16.16 14.54 15.875 13.5 15.875C12.46 15.875 12.375 16.16 12.375 16.5C12.375 16.5995 12.3355 16.6948 12.2652 16.7652C12.1948 16.8355 12.0995 16.875 12 16.875C11.9005 16.875 11.8052 16.8355 11.7348 16.7652C11.6645 16.6948 11.625 16.5995 11.625 16.5C11.625 15.125 13.035 15.125 13.5 15.125C13.965 15.125 15.375 15.125 15.375 16.5C15.3737 16.5991 15.3338 16.6937 15.2637 16.7637C15.1937 16.8338 15.0991 16.8737 15 16.875ZM17.5 14.375H16C15.9005 14.375 15.8052 14.3355 15.7348 14.2652C15.6645 14.1948 15.625 14.0995 15.625 14C15.625 13.9005 15.6645 13.8052 15.7348 13.7348C15.8052 13.6645 15.9005 13.625 16 13.625H17.5C17.5995 13.625 17.6948 13.6645 17.7652 13.7348C17.8355 13.8052 17.875 13.9005 17.875 14C17.875 14.0995 17.8355 14.1948 17.7652 14.2652C17.6948 14.3355 17.5995 14.375 17.5 14.375ZM17 15.875H16C15.9005 15.875 15.8052 15.8355 15.7348 15.7652C15.6645 15.6948 15.625 15.5995 15.625 15.5C15.625 15.4005 15.6645 15.3052 15.7348 15.2348C15.8052 15.1645 15.9005 15.125 16 15.125H17C17.0995 15.125 17.1948 15.1645 17.2652 15.2348C17.3355 15.3052 17.375 15.4005 17.375 15.5C17.375 15.5995 17.3355 15.6948 17.2652 15.7652C17.1948 15.8355 17.0995 15.875 17 15.875Z" fill="#F8F8F8"/>
</svg>
