<svg width="30" height="30" viewBox="0 0 30 30" fill="none" xmlns="http://www.w3.org/2000/svg">
<circle cx="15" cy="15" r="15" fill="white" fill-opacity="0.1"/>
<g clip-path="url(#clip0_414_8316)">
<path d="M12 14.626V17.8226H15.1967L14.53 17.156H12.6667V15.2926L12 14.626Z" fill="#F8F8F8"/>
<path d="M20.6237 19.586L19.667 18.616V19.4893H10.3337V18.106H11.0003V17.5727H10.3337V15.356H11.0003V14.8227H10.3337V12.6893H11.0003V12.156H10.3337V10.2927L15.647 15.576V14.636L10.237 9.25266C10.1904 9.20565 10.1308 9.17359 10.0659 9.16056C10.001 9.14754 9.93365 9.15415 9.8725 9.17953C9.81136 9.20492 9.75915 9.24795 9.72255 9.30312C9.68595 9.35829 9.66661 9.42312 9.667 9.48932V19.8227C9.667 19.9111 9.70212 19.9958 9.76463 20.0584C9.82714 20.1209 9.91193 20.156 10.0003 20.156H20.387C20.4532 20.1564 20.518 20.137 20.5732 20.1004C20.6284 20.0638 20.6714 20.0116 20.6968 19.9505C20.7222 19.8893 20.7288 19.822 20.7158 19.7571C20.7027 19.6922 20.6707 19.6326 20.6237 19.586Z" fill="#F8F8F8"/>
<path d="M16.9997 18.8226H18.333C18.5098 18.8226 18.6794 18.7524 18.8044 18.6274C18.9294 18.5024 18.9997 18.3328 18.9997 18.156V11.7226L18.233 10.3126C18.1737 10.2099 18.0881 10.1249 17.985 10.0663C17.8818 10.0077 17.7649 9.97766 17.6463 9.97931C17.5251 9.98028 17.4063 10.0143 17.303 10.0777C17.1996 10.1412 17.1155 10.2316 17.0597 10.3393L16.333 11.7293V18.156C16.333 18.3328 16.4032 18.5024 16.5283 18.6274C16.6533 18.7524 16.8229 18.8226 16.9997 18.8226ZM16.9997 11.8893L17.6463 10.6326L18.333 11.8926V16.8226H16.9997V11.8893ZM16.9997 17.366H18.333V18.1793H16.9997V17.366Z" fill="#F8F8F8"/>
</g>
<defs>
<clipPath id="clip0_414_8316">
<rect width="12" height="12" fill="white" transform="translate(9 9)"/>
</clipPath>
</defs>
</svg>
