<svg width="30" height="30" viewBox="0 0 30 30" fill="none" xmlns="http://www.w3.org/2000/svg">
<circle cx="15" cy="15" r="15" fill="white" fill-opacity="0.1"/>
<path d="M12.2399 13.236L10.3358 14.8228L12.2399 16.4095C12.2788 16.4406 12.3111 16.4793 12.335 16.5231C12.3588 16.5669 12.3736 16.615 12.3786 16.6646C12.3836 16.7142 12.3787 16.7643 12.3641 16.812C12.3495 16.8597 12.3256 16.904 12.2936 16.9423C12.2617 16.9806 12.2225 17.0121 12.1782 17.0351C12.134 17.0581 12.0856 17.072 12.0359 17.076C11.9862 17.08 11.9361 17.0741 11.8888 17.0586C11.8414 17.0431 11.7976 17.0182 11.7599 16.9856L9.50989 15.1106C9.46767 15.0754 9.4337 15.0313 9.41039 14.9816C9.38708 14.9318 9.375 14.8775 9.375 14.8225C9.375 14.7676 9.38708 14.7133 9.41039 14.6635C9.4337 14.6137 9.46767 14.5697 9.50989 14.5345L11.7599 12.6595C11.8363 12.5958 11.935 12.5652 12.034 12.5742C12.1331 12.5833 12.2245 12.6313 12.2882 12.7078C12.3518 12.7842 12.3825 12.8828 12.3734 12.9819C12.3644 13.081 12.3163 13.1724 12.2399 13.236ZM20.4899 14.5345L18.2399 12.6595C18.202 12.628 18.1583 12.6042 18.1113 12.5896C18.0643 12.575 18.0148 12.5697 17.9657 12.5742C17.9167 12.5787 17.869 12.5928 17.8254 12.6157C17.7818 12.6386 17.7431 12.6699 17.7116 12.7078C17.648 12.7842 17.6173 12.8828 17.6263 12.9819C17.6354 13.081 17.6834 13.1724 17.7599 13.236L19.6639 14.8228L17.7599 16.4095C17.721 16.4406 17.6886 16.4793 17.6648 16.5231C17.641 16.5669 17.6261 16.615 17.6211 16.6646C17.6161 16.7142 17.6211 16.7643 17.6357 16.812C17.6503 16.8597 17.6742 16.904 17.7061 16.9423C17.7381 16.9806 17.7773 17.0121 17.8216 17.0351C17.8658 17.0581 17.9142 17.072 17.9639 17.076C18.0136 17.08 18.0636 17.0741 18.111 17.0586C18.1584 17.0431 18.2022 17.0182 18.2399 16.9856L20.4899 15.1106C20.5321 15.0754 20.5661 15.0313 20.5894 14.9816C20.6127 14.9318 20.6248 14.8775 20.6248 14.8225C20.6248 14.7676 20.6127 14.7133 20.5894 14.6635C20.5661 14.6137 20.5321 14.5697 20.4899 14.5345ZM16.6279 10.3453C16.5816 10.3285 16.5324 10.3209 16.4832 10.3231C16.434 10.3253 16.3857 10.3372 16.3411 10.358C16.2965 10.3789 16.2564 10.4083 16.2232 10.4446C16.1899 10.481 16.1642 10.5235 16.1474 10.5698L13.1474 18.8198C13.1305 18.8661 13.1229 18.9153 13.1251 18.9646C13.1272 19.0138 13.1391 19.0622 13.1599 19.1068C13.1808 19.1515 13.2102 19.1916 13.2466 19.2249C13.283 19.2582 13.3256 19.2839 13.3719 19.3007C13.413 19.3153 13.4563 19.3228 13.4999 19.3228C13.5769 19.3228 13.652 19.2991 13.7151 19.2549C13.7782 19.2107 13.8261 19.1481 13.8524 19.0757L16.8524 10.8257C16.8692 10.7794 16.8767 10.7303 16.8745 10.6811C16.8723 10.6319 16.8605 10.5836 16.8396 10.539C16.8188 10.4944 16.7894 10.4543 16.753 10.4211C16.7167 10.3878 16.6741 10.3621 16.6279 10.3453Z" fill="white"/>
</svg>
