<svg width="30" height="30" viewBox="0 0 30 30" fill="none" xmlns="http://www.w3.org/2000/svg">
<circle cx="15" cy="15" r="15" fill="white" fill-opacity="0.1"/>
<path d="M11.25 12.9166C11.25 12.6956 11.3378 12.4836 11.4941 12.3273C11.6504 12.171 11.8623 12.0833 12.0833 12.0833H17.9167C18.1377 12.0833 18.3496 12.171 18.5059 12.3273C18.6622 12.4836 18.75 12.6956 18.75 12.9166V17.0833C18.75 17.3043 18.6622 17.5162 18.5059 17.6725C18.3496 17.8288 18.1377 17.9166 17.9167 17.9166H12.0833C11.8623 17.9166 11.6504 17.8288 11.4941 17.6725C11.3378 17.5162 11.25 17.3043 11.25 17.0833V12.9166Z" stroke="#F8F8F8" stroke-width="0.75" stroke-linecap="round" stroke-linejoin="round"/>
<path d="M11.25 12.9165L15 15.4165L18.75 12.9165" stroke="#F8F8F8" stroke-width="0.75" stroke-linecap="round" stroke-linejoin="round"/>
</svg>
