<svg width="30" height="31" viewBox="0 0 30 31" fill="none" xmlns="http://www.w3.org/2000/svg">
<circle cx="15" cy="15.405" r="15" fill="white" fill-opacity="0.1"/>
<g clip-path="url(#clip0_487_2817)">
<path d="M15.0003 10.0718C13.9455 10.0718 12.9143 10.3846 12.0373 10.9706C11.1602 11.5566 10.4766 12.3896 10.073 13.3641C9.6693 14.3387 9.56369 15.411 9.76947 16.4456C9.97526 17.4802 10.4832 18.4305 11.2291 19.1763C11.975 19.9222 12.9253 20.4302 13.9598 20.636C14.9944 20.8418 16.0668 20.7361 17.0413 20.3325C18.0158 19.9288 18.8488 19.2452 19.4348 18.3682C20.0209 17.4911 20.3337 16.4599 20.3337 15.4051C20.3337 13.9906 19.7718 12.6341 18.7716 11.6339C17.7714 10.6337 16.4148 10.0718 15.0003 10.0718ZM15.0003 20.0718C14.0773 20.0718 13.1751 19.7981 12.4077 19.2853C11.6402 18.7725 11.0421 18.0437 10.6889 17.191C10.3357 16.3382 10.2433 15.3999 10.4233 14.4947C10.6034 13.5894 11.0479 12.7579 11.7005 12.1053C12.3531 11.4526 13.1847 11.0082 14.0899 10.8281C14.9952 10.648 15.9335 10.7405 16.7862 11.0937C17.6389 11.4469 18.3677 12.045 18.8805 12.8124C19.3933 13.5799 19.667 14.4821 19.667 15.4051C19.667 16.6428 19.1753 17.8298 18.3002 18.7049C17.425 19.5801 16.238 20.0718 15.0003 20.0718Z" fill="white"/>
<path d="M15.3063 15.5384V12.9884C15.3063 12.9 15.2712 12.8152 15.2087 12.7527C15.1462 12.6901 15.0614 12.655 14.973 12.655C14.8846 12.655 14.7998 12.6901 14.7373 12.7527C14.6748 12.8152 14.6396 12.9 14.6396 12.9884V15.895L16.6063 17.2284C16.6425 17.2556 16.6839 17.2752 16.728 17.2859C16.772 17.2966 16.8178 17.2982 16.8625 17.2906C16.9072 17.283 16.9499 17.2664 16.9879 17.2417C17.026 17.2171 17.0586 17.1849 17.0838 17.1473C17.109 17.1096 17.1262 17.0671 17.1345 17.0226C17.1427 16.978 17.1418 16.9322 17.1317 16.888C17.1216 16.8438 17.1027 16.8021 17.076 16.7655C17.0492 16.7289 17.0153 16.6981 16.9763 16.675L15.3063 15.5384Z" fill="white"/>
<path d="M11.6666 15.3851C11.6635 14.7855 11.8233 14.1963 12.1288 13.6803C12.4343 13.1643 12.8741 12.7408 13.4014 12.4552C13.9286 12.1695 14.5235 12.0322 15.1226 12.058C15.7217 12.0839 16.3025 12.2718 16.8032 12.6018L17.0866 12.1485C16.611 11.8369 16.0723 11.6346 15.5092 11.556C14.9461 11.4774 14.3726 11.5245 13.8299 11.6939C13.2872 11.8633 12.7887 12.1508 12.3703 12.5357C11.9519 12.9206 11.6239 13.3934 11.41 13.9202C11.196 14.4469 11.1014 15.0145 11.1329 15.5822C11.1643 16.1498 11.3211 16.7035 11.592 17.2034C11.8629 17.7032 12.2411 18.1369 12.6995 18.4732C13.1579 18.8095 13.6851 19.0401 14.2432 19.1485L14.3332 18.6385C13.5826 18.4853 12.9076 18.0781 12.4219 17.4856C11.9362 16.8931 11.6695 16.1513 11.6666 15.3851Z" fill="white"/>
</g>
<defs>
<clipPath id="clip0_487_2817">
<rect width="12" height="12" fill="white" transform="translate(9 9.40503)"/>
</clipPath>
</defs>
</svg>
