<svg width="30" height="30" viewBox="0 0 30 30" fill="none" xmlns="http://www.w3.org/2000/svg">
<circle cx="15" cy="15" r="15" fill="white" fill-opacity="0.1"/>
<path d="M19 18.5V14.25C19 14.1724 18.9819 14.0958 18.9472 14.0264C18.9125 13.957 18.8621 13.8966 18.8 13.85L15.3 11.225C15.2135 11.1601 15.1082 11.125 15 11.125C14.8918 11.125 14.7865 11.1601 14.7 11.225L11.2 13.85C11.1379 13.8966 11.0875 13.957 11.0528 14.0264C11.0181 14.0958 11 14.1724 11 14.25V18.5C11 18.6326 11.0527 18.7598 11.1464 18.8536C11.2402 18.9473 11.3674 19 11.5 19H13.5C13.6326 19 13.7598 18.9473 13.8536 18.8536C13.9473 18.7598 14 18.6326 14 18.5V17C14 16.8674 14.0527 16.7402 14.1464 16.6464C14.2402 16.5527 14.3674 16.5 14.5 16.5H15.5C15.6326 16.5 15.7598 16.5527 15.8536 16.6464C15.9473 16.7402 16 16.8674 16 17V18.5C16 18.6326 16.0527 18.7598 16.1464 18.8536C16.2402 18.9473 16.3674 19 16.5 19H18.5C18.6326 19 18.7598 18.9473 18.8536 18.8536C18.9473 18.7598 19 18.6326 19 18.5Z" stroke="white" stroke-width="0.75" stroke-linecap="round" stroke-linejoin="round"/>
</svg>
