<svg width="30" height="30" viewBox="0 0 30 30" fill="none" xmlns="http://www.w3.org/2000/svg">
<circle cx="15" cy="15" r="15" fill="white" fill-opacity="0.1"/>
<path d="M14.4961 16.2252C14.9987 15.8906 15.3802 15.4031 15.5844 14.8349C15.7885 14.2667 15.8043 13.6478 15.6295 13.0699C15.4548 12.4919 15.0986 11.9856 14.6138 11.6257C14.129 11.2658 13.5412 11.0715 12.9375 11.0715C12.3337 11.0715 11.7459 11.2658 11.2611 11.6257C10.7763 11.9856 10.4202 12.4919 10.2454 13.0699C10.0706 13.6478 10.0864 14.2667 10.2906 14.8349C10.4947 15.4031 10.8763 15.8906 11.3789 16.2252C10.4697 16.5603 9.69329 17.1803 9.16543 17.9928C9.13769 18.0341 9.11842 18.0804 9.10874 18.1291C9.09906 18.1779 9.09917 18.2281 9.10906 18.2768C9.11895 18.3255 9.13842 18.3717 9.16634 18.4128C9.19426 18.454 9.23007 18.4891 9.2717 18.5163C9.31332 18.5434 9.35993 18.562 9.40881 18.571C9.45769 18.58 9.50787 18.5791 9.55642 18.5686C9.60498 18.558 9.65095 18.5379 9.69166 18.5093C9.73237 18.4808 9.767 18.4445 9.79356 18.4025C10.1341 17.8788 10.6 17.4485 11.149 17.1506C11.698 16.8527 12.3128 16.6966 12.9375 16.6966C13.5621 16.6966 14.1769 16.8527 14.7259 17.1506C15.275 17.4485 15.7409 17.8788 16.0814 18.4025C16.1364 18.4843 16.2213 18.5411 16.3179 18.5607C16.4144 18.5803 16.5148 18.5611 16.5974 18.5073C16.6799 18.4534 16.7379 18.3693 16.7589 18.273C16.7799 18.1768 16.7621 18.0761 16.7095 17.9928C16.1816 17.1803 15.4052 16.5603 14.4961 16.2252ZM10.875 13.8852C10.875 13.4773 10.9959 13.0785 11.2226 12.7393C11.4492 12.4001 11.7713 12.1358 12.1482 11.9797C12.5251 11.8236 12.9398 11.7827 13.3398 11.8623C13.7399 11.9419 14.1074 12.1383 14.3959 12.4268C14.6843 12.7152 14.8807 13.0827 14.9603 13.4828C15.0399 13.8829 14.9991 14.2976 14.843 14.6745C14.6869 15.0513 14.4225 15.3734 14.0833 15.6001C13.7441 15.8267 13.3454 15.9477 12.9375 15.9477C12.3906 15.9471 11.8664 15.7296 11.4797 15.3429C11.0931 14.9562 10.8756 14.432 10.875 13.8852ZM20.7253 18.5117C20.642 18.5661 20.5405 18.5851 20.4432 18.5646C20.3459 18.5441 20.2607 18.4858 20.2064 18.4025C19.8663 17.8785 19.4004 17.448 18.8513 17.1502C18.3021 16.8524 17.6872 16.6968 17.0625 16.6977C16.963 16.6977 16.8676 16.6582 16.7973 16.5878C16.727 16.5175 16.6875 16.4221 16.6875 16.3227C16.6875 16.2232 16.727 16.1278 16.7973 16.0575C16.8676 15.9872 16.963 15.9477 17.0625 15.9477C17.3662 15.9474 17.6661 15.88 17.9408 15.7504C18.2155 15.6207 18.4581 15.432 18.6514 15.1978C18.8447 14.9635 18.9839 14.6894 19.059 14.3951C19.1341 14.1008 19.1432 13.7935 19.0858 13.4952C19.0284 13.197 18.9058 12.9151 18.7268 12.6697C18.5478 12.4243 18.3168 12.2215 18.0504 12.0757C17.7839 11.93 17.4885 11.8448 17.1853 11.8265C16.8822 11.8081 16.5787 11.8569 16.2965 11.9694C16.2505 11.9893 16.201 11.9997 16.1509 12.0002C16.1008 12.0006 16.0511 11.991 16.0048 11.9719C15.9584 11.9528 15.9164 11.9246 15.8812 11.8889C15.8459 11.8533 15.8182 11.811 15.7995 11.7645C15.7809 11.7179 15.7718 11.6681 15.7728 11.618C15.7737 11.5679 15.7847 11.5185 15.8051 11.4727C15.8255 11.4269 15.8548 11.3857 15.8914 11.3515C15.928 11.3172 15.9711 11.2906 16.0181 11.2733C16.6638 11.0158 17.3819 11.0065 18.0341 11.2473C18.6862 11.488 19.226 11.9618 19.5495 12.5771C19.8729 13.1924 19.957 13.9057 19.7856 14.5794C19.6141 15.253 19.1993 15.8393 18.6211 16.2252C19.5302 16.5603 20.3066 17.1803 20.8345 17.9928C20.8888 18.0761 20.9078 18.1776 20.8873 18.2749C20.8669 18.3722 20.8086 18.4574 20.7253 18.5117Z" fill="white"/>
</svg>
