<svg width="30" height="30" viewBox="0 0 30 30" fill="none" xmlns="http://www.w3.org/2000/svg">
<circle cx="15" cy="15" r="15" fill="white" fill-opacity="0.1"/>
<path d="M12 13.3228C12 14.1184 12.3161 14.8815 12.8787 15.4441C13.4413 16.0067 14.2044 16.3228 15 16.3228C15.7956 16.3228 16.5587 16.0067 17.1213 15.4441C17.6839 14.8815 18 14.1184 18 13.3228C18 12.5271 17.6839 11.764 17.1213 11.2014C16.5587 10.6388 15.7956 10.3228 15 10.3228C14.2044 10.3228 13.4413 10.6388 12.8787 11.2014C12.3161 11.764 12 12.5271 12 13.3228Z" stroke="white" stroke-width="0.75" stroke-linecap="round" stroke-linejoin="round"/>
<path d="M15.0002 16.3228L16.7002 19.2678L17.4992 17.6513L19.2982 17.7673L17.5982 14.8228M12.4012 14.8228L10.7012 17.7678L12.5002 17.6513L13.2992 19.2673L14.9992 16.3228" stroke="white" stroke-width="0.75" stroke-linecap="round" stroke-linejoin="round"/>
</svg>
