<svg width="30" height="30" viewBox="0 0 30 30" fill="none" xmlns="http://www.w3.org/2000/svg">
<circle cx="15" cy="15" r="15" fill="white" fill-opacity="0.1"/>
<path d="M15.5 16.3228C15.3674 16.3228 15.2402 16.3754 15.1464 16.4692C15.0527 16.563 15 16.6901 15 16.8228C15 16.9554 15.0527 17.0825 15.1464 17.1763C15.2402 17.2701 15.3674 17.3228 15.5 17.3228C15.6326 17.3228 15.7598 17.2701 15.8536 17.1763C15.9473 17.0825 16 16.9554 16 16.8228C16 16.6901 15.9473 16.563 15.8536 16.4692C15.7598 16.3754 15.6326 16.3228 15.5 16.3228ZM14 17.3228C13.8674 17.3228 13.7402 17.3754 13.6464 17.4692C13.5527 17.563 13.5 17.6901 13.5 17.8228C13.5 17.9554 13.5527 18.0825 13.6464 18.1763C13.7402 18.2701 13.8674 18.3228 14 18.3228C14.1326 18.3228 14.2598 18.2701 14.3536 18.1763C14.4473 18.0825 14.5 17.9554 14.5 17.8228C14.5 17.6901 14.4473 17.563 14.3536 17.4692C14.2598 17.3754 14.1326 17.3228 14 17.3228Z" fill="white"/>
<path fill-rule="evenodd" clip-rule="evenodd" d="M16.2466 10.4478H13.2501C13.1507 10.4478 13.0553 10.4873 12.985 10.5576C12.9146 10.6279 12.8751 10.7233 12.8751 10.8228C12.8751 10.9222 12.9146 11.0176 12.985 11.0879C13.0553 11.1582 13.1507 11.1978 13.2501 11.1978H13.3801V13.7413C13.3801 14.4685 13.1613 15.179 12.7521 15.7803L11.2056 18.0543C11.1157 18.1864 11.0615 18.3395 11.0482 18.4987C11.0348 18.658 11.0629 18.818 11.1296 18.9632C11.1963 19.1084 11.2994 19.2339 11.4289 19.3276C11.5583 19.4213 11.7098 19.4799 11.8686 19.4978C13.9496 19.7318 16.0506 19.7318 18.1316 19.4978C18.2904 19.4799 18.4419 19.4213 18.5714 19.3276C18.7009 19.2339 18.804 19.1084 18.8707 18.9632C18.9374 18.818 18.9655 18.658 18.9521 18.4987C18.9388 18.3395 18.8846 18.1864 18.7946 18.0543L17.2481 15.7803C16.839 15.179 16.6202 14.4685 16.6201 13.7413V11.1978H16.7501C16.8496 11.1978 16.945 11.1582 17.0153 11.0879C17.0856 11.0176 17.1251 10.9222 17.1251 10.8228C17.1251 10.7233 17.0856 10.6279 17.0153 10.5576C16.945 10.4873 16.8496 10.4478 16.7501 10.4478H16.2466ZM11.9526 18.7528C13.9776 18.9803 16.0226 18.9803 18.0476 18.7528C18.0781 18.7494 18.1071 18.7382 18.132 18.7202C18.1568 18.7023 18.1766 18.6783 18.1893 18.6504C18.2021 18.6226 18.2075 18.5919 18.2049 18.5614C18.2023 18.5309 18.1919 18.5015 18.1746 18.4763L16.6276 16.2018C16.518 16.0405 16.4193 15.8722 16.3321 15.6978H13.6681C13.581 15.8722 13.4823 16.0405 13.3726 16.2018L11.8251 18.4763C11.8079 18.5015 11.7974 18.5309 11.7949 18.5614C11.7923 18.5919 11.7976 18.6226 11.8104 18.6504C11.8232 18.6783 11.843 18.7023 11.8678 18.7202C11.8926 18.7382 11.9217 18.7494 11.9521 18.7528H11.9526ZM13.9601 14.9478H16.0401C15.9275 14.5555 15.8702 14.1494 15.8701 13.7413V11.1978H14.1301V13.7413C14.13 14.1494 14.0728 14.5555 13.9601 14.9478Z" fill="white"/>
</svg>
