<svg width="30" height="30" viewBox="0 0 30 30" fill="none" xmlns="http://www.w3.org/2000/svg">
<circle cx="15" cy="15" r="15" fill="white" fill-opacity="0.1"/>
<path d="M19.5891 12.5053L17.4942 10.4105C17.4333 10.3496 17.3609 10.3012 17.2813 10.2682C17.2017 10.2352 17.1163 10.2183 17.0302 10.2183C16.944 10.2183 16.8586 10.2352 16.779 10.2682C16.6994 10.3012 16.627 10.3496 16.5661 10.4105L10.7859 16.1911C10.7249 16.252 10.6765 16.3243 10.6435 16.4039C10.6105 16.4836 10.5936 16.569 10.5938 16.6552V18.75C10.5938 18.9241 10.6629 19.091 10.786 19.2141C10.909 19.3371 11.076 19.4063 11.25 19.4063H13.3448C13.4311 19.4064 13.5164 19.3895 13.5961 19.3566C13.6757 19.3236 13.7481 19.2752 13.8089 19.2141L19.5891 13.4335C19.65 13.3725 19.6984 13.3002 19.7313 13.2206C19.7643 13.1409 19.7813 13.0556 19.7813 12.9694C19.7813 12.8832 19.7643 12.7979 19.7313 12.7183C19.6984 12.6386 19.65 12.5663 19.5891 12.5053ZM11.273 16.5L15.375 12.3975L16.2895 13.3125L12.1875 17.4146L11.273 16.5ZM11.1563 18.75V17.1788L12.8208 18.8438H11.25C11.2251 18.8438 11.2013 18.8339 11.1837 18.8163C11.1661 18.7987 11.1563 18.7749 11.1563 18.75ZM13.5 18.7271L12.5855 17.8125L16.6875 13.71L17.602 14.625L13.5 18.7271ZM19.1911 13.036L18 14.2271L15.773 12L16.9641 10.8085C16.9728 10.7997 16.9831 10.7928 16.9945 10.7881C17.0059 10.7834 17.0181 10.781 17.0304 10.781C17.0427 10.781 17.0549 10.7834 17.0663 10.7881C17.0777 10.7928 17.088 10.7997 17.0967 10.8085L19.1911 12.9033C19.1998 12.912 19.2067 12.9224 19.2114 12.9337C19.2162 12.9451 19.2186 12.9573 19.2186 12.9696C19.2186 12.982 19.2162 12.9942 19.2114 13.0055C19.2067 13.0169 19.1998 13.0273 19.1911 13.036Z" fill="white"/>
</svg>
