<svg width="30" height="30" viewBox="0 0 30 30" fill="none" xmlns="http://www.w3.org/2000/svg">
<circle cx="15" cy="15" r="15" fill="white" fill-opacity="0.1"/>
<path d="M10.5 11.625C10.5 11.5255 10.5395 11.4302 10.6098 11.3598C10.6802 11.2895 10.7755 11.25 10.875 11.25H19.125C19.2245 11.25 19.3198 11.2895 19.3902 11.3598C19.4605 11.4302 19.5 11.5255 19.5 11.625C19.5 11.7245 19.4605 11.8198 19.3902 11.8902C19.3198 11.9605 19.2245 12 19.125 12H10.875C10.7755 12 10.6802 11.9605 10.6098 11.8902C10.5395 11.8198 10.5 11.7245 10.5 11.625ZM10.5 14.625C10.5 14.5255 10.5395 14.4302 10.6098 14.3598C10.6802 14.2895 10.7755 14.25 10.875 14.25H19.125C19.2245 14.25 19.3198 14.2895 19.3902 14.3598C19.4605 14.4302 19.5 14.5255 19.5 14.625C19.5 14.7245 19.4605 14.8198 19.3902 14.8902C19.3198 14.9605 19.2245 15 19.125 15H10.875C10.7755 15 10.6802 14.9605 10.6098 14.8902C10.5395 14.8198 10.5 14.7245 10.5 14.625ZM10.5 17.625C10.5 17.5255 10.5395 17.4302 10.6098 17.3598C10.6802 17.2895 10.7755 17.25 10.875 17.25H19.125C19.2245 17.25 19.3198 17.2895 19.3902 17.3598C19.4605 17.4302 19.5 17.5255 19.5 17.625C19.5 17.7245 19.4605 17.8198 19.3902 17.8902C19.3198 17.9605 19.2245 18 19.125 18H10.875C10.7755 18 10.6802 17.9605 10.6098 17.8902C10.5395 17.8198 10.5 17.7245 10.5 17.625Z" fill="#F8F8F8"/>
</svg>
