<svg width="30" height="30" viewBox="0 0 30 30" fill="none" xmlns="http://www.w3.org/2000/svg">
<circle cx="15" cy="15" r="15" fill="white" fill-opacity="0.1"/>
<path d="M11.6459 11.6459C11.6924 11.5994 11.7475 11.5624 11.8083 11.5372C11.869 11.512 11.9341 11.499 11.9999 11.499C12.0657 11.499 12.1308 11.512 12.1916 11.5372C12.2523 11.5624 12.3075 11.5994 12.3539 11.6459L14.9999 14.2929L17.6459 11.6459C17.6924 11.5994 17.7476 11.5626 17.8083 11.5374C17.8691 11.5122 17.9342 11.4993 17.9999 11.4993C18.0657 11.4993 18.1308 11.5122 18.1915 11.5374C18.2522 11.5626 18.3074 11.5994 18.3539 11.6459C18.4004 11.6924 18.4373 11.7476 18.4624 11.8083C18.4876 11.8691 18.5005 11.9342 18.5005 11.9999C18.5005 12.0657 18.4876 12.1308 18.4624 12.1915C18.4373 12.2522 18.4004 12.3074 18.3539 12.3539L15.7069 14.9999L18.3539 17.6459C18.4004 17.6924 18.4373 17.7476 18.4624 17.8083C18.4876 17.8691 18.5005 17.9342 18.5005 17.9999C18.5005 18.0657 18.4876 18.1308 18.4624 18.1915C18.4373 18.2522 18.4004 18.3074 18.3539 18.3539C18.3074 18.4004 18.2522 18.4373 18.1915 18.4624C18.1308 18.4876 18.0657 18.5005 17.9999 18.5005C17.9342 18.5005 17.8691 18.4876 17.8083 18.4624C17.7476 18.4373 17.6924 18.4004 17.6459 18.3539L14.9999 15.7069L12.3539 18.3539C12.3074 18.4004 12.2522 18.4373 12.1915 18.4624C12.1308 18.4876 12.0657 18.5005 11.9999 18.5005C11.9342 18.5005 11.8691 18.4876 11.8083 18.4624C11.7476 18.4373 11.6924 18.4004 11.6459 18.3539C11.5994 18.3074 11.5626 18.2522 11.5374 18.1915C11.5122 18.1308 11.4993 18.0657 11.4993 17.9999C11.4993 17.9342 11.5122 17.8691 11.5374 17.8083C11.5626 17.7476 11.5994 17.6924 11.6459 17.6459L14.2929 14.9999L11.6459 12.3539C11.5994 12.3075 11.5624 12.2523 11.5372 12.1916C11.512 12.1308 11.499 12.0657 11.499 11.9999C11.499 11.9341 11.512 11.869 11.5372 11.8083C11.5624 11.7475 11.5994 11.6924 11.6459 11.6459Z" fill="#F8F8F8"/>
</svg>
