<svg width="1798" height="121" viewBox="0 0 1798 121" fill="none" xmlns="http://www.w3.org/2000/svg">
<path fill-rule="evenodd" clip-rule="evenodd" d="M24.5 68.0005C7.35348 69.9942 1.37055 90.7044 0.507923 100.905C1.16608 96.9533 42.6669 93.9924 63.5 93H892.5C892.667 73.6668 892.9 31.6005 892.5 18.0005C892.1 4.40046 889 1.3338 887.5 1.50046L389.5 4.00046C333.5 5.3338 221.7 8.70046 222.5 11.5005C223.5 15.0005 46 65.5005 24.5 68.0005ZM283.5 77C282.395 77 281.5 76.1046 281.5 75V20.5C281.5 19.3954 282.395 18.5 283.5 18.5H299C300.105 18.5 301 19.3954 301 20.5V75C301 76.1046 300.105 77 299 77H283.5ZM317.5 77C314.739 77 312.5 74.7614 312.5 72V20C312.5 17.2386 314.739 15 317.5 15H333C335.761 15 338 17.2386 338 20V72C338 74.7614 335.761 77 333 77H317.5ZM343 24.5V15H351V24.5H343ZM372.5 18.5V15H387V18.5H372.5ZM822 72V20C822 17.2386 824.239 15 827 15H842.5C845.261 15 847.5 17.2386 847.5 20V72C847.5 74.7614 845.261 77 842.5 77H827C824.239 77 822 74.7614 822 72Z" fill="black"/>
<path d="M892.5 93H63.5C42.6669 93.9924 1.16608 96.9533 0.507923 100.905L0.5 101C5.33333 107.5 19.6 120.5 38 120.5H887.5C889.124 117.333 892.399 107.4 892.5 93Z" fill="black"/>
<path fill-rule="evenodd" clip-rule="evenodd" d="M283.5 18.5C282.395 18.5 281.5 19.3954 281.5 20.5V75C281.5 76.1046 282.395 77 283.5 77H299C300.105 77 301 76.1046 301 75V20.5C301 19.3954 300.105 18.5 299 18.5H283.5ZM286 45.5V24.5H295.5V45.5H286Z" fill="black"/>
<path d="M286 24.5V45.5H295.5V24.5H286Z" fill="black"/>
<path d="M319.5 18.5V38.5H332.5V18.5H319.5Z" fill="black"/>
<path fill-rule="evenodd" clip-rule="evenodd" d="M317.5 15C314.739 15 312.5 17.2386 312.5 20V72C312.5 74.7614 314.739 77 317.5 77H333C335.761 77 338 74.7614 338 72V20C338 17.2386 335.761 15 333 15H317.5ZM319.5 38.5V18.5H332.5V38.5H319.5Z" fill="black"/>
<path d="M343 15V24.5H351V15H343Z" fill="black"/>
<path d="M372.5 15V18.5H387V15H372.5Z" fill="black"/>
<path d="M829 18.5V38.5H842V18.5H829Z" fill="black"/>
<path fill-rule="evenodd" clip-rule="evenodd" d="M822 20V72C822 74.7614 824.239 77 827 77H842.5C845.261 77 847.5 74.7614 847.5 72V20C847.5 17.2386 845.261 15 842.5 15H827C824.239 15 822 17.2386 822 20ZM829 38.5V18.5H842V38.5H829Z" fill="black"/>
<path d="M0.5 101C5.33333 107.5 19.6 120.5 38 120.5M0.5 101C0.5 100.969 0.502651 100.937 0.507923 100.905M0.5 101C0.502591 100.969 0.505232 100.937 0.507923 100.905M0.5 101L0.507923 100.905M892.5 93C892.667 73.6668 892.9 31.6005 892.5 18.0005C892.1 4.40046 889 1.3338 887.5 1.50046L389.5 4.00046C333.5 5.3338 221.7 8.70046 222.5 11.5005C223.5 15.0005 46 65.5005 24.5 68.0005C7.35348 69.9942 1.37055 90.7044 0.507923 100.905M892.5 93H63.5C42.6669 93.9924 1.16608 96.9533 0.507923 100.905M892.5 93C892.399 107.4 889.124 117.333 887.5 120.5M38 120.5C56.4 120.5 591.833 120.5 887.5 120.5M38 120.5H887.5M286 24.5V45.5H295.5V24.5H286ZM319.5 18.5V38.5H332.5V18.5H319.5ZM343 15V24.5H351V15H343ZM372.5 15V18.5H387V15H372.5ZM822 20V72C822 74.7614 824.239 77 827 77H842.5C845.261 77 847.5 74.7614 847.5 72V20C847.5 17.2386 845.261 15 842.5 15H827C824.239 15 822 17.2386 822 20ZM829 18.5V38.5H842V18.5H829ZM333 77H317.5C314.739 77 312.5 74.7614 312.5 72V20C312.5 17.2386 314.739 15 317.5 15H333C335.761 15 338 17.2386 338 20V72C338 74.7614 335.761 77 333 77ZM301 20.5V75C301 76.1046 300.105 77 299 77H283.5C282.395 77 281.5 76.1046 281.5 75V20.5C281.5 19.3954 282.395 18.5 283.5 18.5H299C300.105 18.5 301 19.3954 301 20.5Z" stroke="white" stroke-linecap="round"/>
<path d="M54 74L27 79.5H56.5L54 74Z" stroke="white" stroke-linecap="round"/>
<path d="M203 19C213.167 20.1667 228 24.6 206 33C184 41.4 141.5 42.8333 123 42.5" stroke="white" stroke-linecap="round"/>
<path d="M892 51.5L236.5 55L304 61.5H892V51.5Z" stroke="white" stroke-linecap="round"/>
<path d="M335.5 67.5L324 65L892 64V67.5H335.5Z" stroke="white" stroke-linecap="round"/>
<path d="M370 48V35C370 33.3431 371.343 32 373 32H386C387.657 32 389 33.3431 389 35V48C389 49.6569 387.657 51 386 51H373C371.343 51 370 49.6569 370 48Z" stroke="white" stroke-linecap="round"/>
<path d="M404 48V35C404 33.3431 405.343 32 407 32H420C421.657 32 423 33.3431 423 35V48C423 49.6569 421.657 51 420 51H407C405.343 51 404 49.6569 404 48Z" stroke="white" stroke-linecap="round"/>
<path d="M438 48V35C438 33.3431 439.343 32 441 32H454C455.657 32 457 33.3431 457 35V48C457 49.6569 455.657 51 454 51H441C439.343 51 438 49.6569 438 48Z" stroke="white" stroke-linecap="round"/>
<path d="M472 48V35C472 33.3431 473.343 32 475 32H488C489.657 32 491 33.3431 491 35V48C491 49.6569 489.657 51 488 51H475C473.343 51 472 49.6569 472 48Z" stroke="white" stroke-linecap="round"/>
<path d="M506 48V35C506 33.3431 507.343 32 509 32H522C523.657 32 525 33.3431 525 35V48C525 49.6569 523.657 51 522 51H509C507.343 51 506 49.6569 506 48Z" stroke="white" stroke-linecap="round"/>
<path d="M540 48V35C540 33.3431 541.343 32 543 32H556C557.657 32 559 33.3431 559 35V48C559 49.6569 557.657 51 556 51H543C541.343 51 540 49.6569 540 48Z" stroke="white" stroke-linecap="round"/>
<path d="M574 48V35C574 33.3431 575.343 32 577 32H590C591.657 32 593 33.3431 593 35V48C593 49.6569 591.657 51 590 51H577C575.343 51 574 49.6569 574 48Z" stroke="white" stroke-linecap="round"/>
<path d="M608 48V35C608 33.3431 609.343 32 611 32H624C625.657 32 627 33.3431 627 35V48C627 49.6569 625.657 51 624 51H611C609.343 51 608 49.6569 608 48Z" stroke="white" stroke-linecap="round"/>
<path d="M642 48V35C642 33.3431 643.343 32 645 32H658C659.657 32 661 33.3431 661 35V48C661 49.6569 659.657 51 658 51H645C643.343 51 642 49.6569 642 48Z" stroke="white" stroke-linecap="round"/>
<path d="M676 48V35C676 33.3431 677.343 32 679 32H692C693.657 32 695 33.3431 695 35V48C695 49.6569 693.657 51 692 51H679C677.343 51 676 49.6569 676 48Z" stroke="white" stroke-linecap="round"/>
<path d="M710 48V35C710 33.3431 711.343 32 713 32H726C727.657 32 729 33.3431 729 35V48C729 49.6569 727.657 51 726 51H713C711.343 51 710 49.6569 710 48Z" stroke="white" stroke-linecap="round"/>
<path d="M744 48V35C744 33.3431 745.343 32 747 32H760C761.657 32 763 33.3431 763 35V48C763 49.6569 761.657 51 760 51H747C745.343 51 744 49.6569 744 48Z" stroke="white" stroke-linecap="round"/>
<path d="M778 48V35C778 33.3431 779.343 32 781 32H794C795.657 32 797 33.3431 797 35V48C797 49.6569 795.657 51 794 51H781C779.343 51 778 49.6569 778 48Z" stroke="white" stroke-linecap="round"/>
<rect x="892.5" y="11.5" width="6" height="80" rx="3" stroke="white"/>
<rect x="899.5" y="11.5" width="6" height="80" rx="3" stroke="white"/>
<path fill-rule="evenodd" clip-rule="evenodd" d="M1773.5 68.0005C1790.65 69.9942 1796.63 90.7044 1797.49 100.905C1796.83 96.9533 1755.33 93.9924 1734.5 93H905.5C905.333 73.6668 905.1 31.6005 905.5 18.0005C905.9 4.40046 909 1.3338 910.5 1.50046L1408.5 4.00046C1464.5 5.3338 1576.3 8.70046 1575.5 11.5005C1574.5 15.0005 1752 65.5005 1773.5 68.0005ZM1514.5 77C1515.6 77 1516.5 76.1046 1516.5 75V20.5C1516.5 19.3954 1515.6 18.5 1514.5 18.5H1499C1497.9 18.5 1497 19.3954 1497 20.5V75C1497 76.1046 1497.9 77 1499 77H1514.5ZM1480.5 77C1483.26 77 1485.5 74.7614 1485.5 72V20C1485.5 17.2386 1483.26 15 1480.5 15H1465C1462.24 15 1460 17.2386 1460 20V72C1460 74.7614 1462.24 77 1465 77H1480.5ZM1455 24.5V15H1447V24.5H1455ZM1425.5 18.5V15H1411V18.5H1425.5ZM976 72V20C976 17.2386 973.761 15 971 15H955.5C952.739 15 950.5 17.2386 950.5 20V72C950.5 74.7614 952.739 77 955.5 77H971C973.761 77 976 74.7614 976 72Z" fill="black"/>
<path d="M905.5 93H1734.5C1755.33 93.9924 1796.83 96.9533 1797.49 100.905L1797.5 101C1792.67 107.5 1778.4 120.5 1760 120.5H910.5C908.876 117.333 905.601 107.4 905.5 93Z" fill="black"/>
<path fill-rule="evenodd" clip-rule="evenodd" d="M1514.5 18.5C1515.6 18.5 1516.5 19.3954 1516.5 20.5V75C1516.5 76.1046 1515.6 77 1514.5 77H1499C1497.9 77 1497 76.1046 1497 75V20.5C1497 19.3954 1497.9 18.5 1499 18.5H1514.5ZM1512 45.5V24.5H1502.5V45.5H1512Z" fill="black"/>
<path d="M1512 24.5V45.5H1502.5V24.5H1512Z" fill="black"/>
<path d="M1478.5 18.5V38.5H1465.5V18.5H1478.5Z" fill="black"/>
<path fill-rule="evenodd" clip-rule="evenodd" d="M1480.5 15C1483.26 15 1485.5 17.2386 1485.5 20V72C1485.5 74.7614 1483.26 77 1480.5 77H1465C1462.24 77 1460 74.7614 1460 72V20C1460 17.2386 1462.24 15 1465 15H1480.5ZM1478.5 38.5V18.5H1465.5V38.5H1478.5Z" fill="black"/>
<path d="M1455 15V24.5H1447V15H1455Z" fill="black"/>
<path d="M1425.5 15V18.5H1411V15H1425.5Z" fill="black"/>
<path d="M969 18.5V38.5H956V18.5H969Z" fill="black"/>
<path fill-rule="evenodd" clip-rule="evenodd" d="M976 20V72C976 74.7614 973.761 77 971 77H955.5C952.739 77 950.5 74.7614 950.5 72V20C950.5 17.2386 952.739 15 955.5 15H971C973.761 15 976 17.2386 976 20ZM969 38.5V18.5H956V38.5H969Z" fill="black"/>
<path d="M1797.5 101C1792.67 107.5 1778.4 120.5 1760 120.5M1797.5 101C1797.5 100.969 1797.5 100.937 1797.49 100.905M1797.5 101C1797.5 100.969 1797.49 100.937 1797.49 100.905M1797.5 101L1797.49 100.905M905.5 93C905.333 73.6668 905.1 31.6005 905.5 18.0005C905.9 4.40046 909 1.3338 910.5 1.50046L1408.5 4.00046C1464.5 5.3338 1576.3 8.70046 1575.5 11.5005C1574.5 15.0005 1752 65.5005 1773.5 68.0005C1790.65 69.9942 1796.63 90.7044 1797.49 100.905M905.5 93H1734.5C1755.33 93.9924 1796.83 96.9533 1797.49 100.905M905.5 93C905.601 107.4 908.876 117.333 910.5 120.5M1760 120.5C1741.6 120.5 1206.17 120.5 910.5 120.5M1760 120.5H910.5M1512 24.5V45.5H1502.5V24.5H1512ZM1478.5 18.5V38.5H1465.5V18.5H1478.5ZM1455 15V24.5H1447V15H1455ZM1425.5 15V18.5H1411V15H1425.5ZM976 20V72C976 74.7614 973.761 77 971 77H955.5C952.739 77 950.5 74.7614 950.5 72V20C950.5 17.2386 952.739 15 955.5 15H971C973.761 15 976 17.2386 976 20ZM969 18.5V38.5H956V18.5H969ZM1465 77H1480.5C1483.26 77 1485.5 74.7614 1485.5 72V20C1485.5 17.2386 1483.26 15 1480.5 15H1465C1462.24 15 1460 17.2386 1460 20V72C1460 74.7614 1462.24 77 1465 77ZM1497 20.5V75C1497 76.1046 1497.9 77 1499 77H1514.5C1515.6 77 1516.5 76.1046 1516.5 75V20.5C1516.5 19.3954 1515.6 18.5 1514.5 18.5H1499C1497.9 18.5 1497 19.3954 1497 20.5Z" stroke="white" stroke-linecap="round"/>
<path d="M1744 74L1771 79.5H1741.5L1744 74Z" stroke="white" stroke-linecap="round"/>
<path d="M1595 19C1584.83 20.1667 1570 24.6 1592 33C1614 41.4 1656.5 42.8333 1675 42.5" stroke="white" stroke-linecap="round"/>
<path d="M906 51.5L1561.5 55L1494 61.5H906V51.5Z" stroke="white" stroke-linecap="round"/>
<path d="M1462.5 67.5L1474 65L906 64V67.5H1462.5Z" stroke="white" stroke-linecap="round"/>
<path d="M1428 48V35C1428 33.3431 1426.66 32 1425 32H1412C1410.34 32 1409 33.3431 1409 35V48C1409 49.6569 1410.34 51 1412 51H1425C1426.66 51 1428 49.6569 1428 48Z" stroke="white" stroke-linecap="round"/>
<path d="M1394 48V35C1394 33.3431 1392.66 32 1391 32H1378C1376.34 32 1375 33.3431 1375 35V48C1375 49.6569 1376.34 51 1378 51H1391C1392.66 51 1394 49.6569 1394 48Z" stroke="white" stroke-linecap="round"/>
<path d="M1360 48V35C1360 33.3431 1358.66 32 1357 32H1344C1342.34 32 1341 33.3431 1341 35V48C1341 49.6569 1342.34 51 1344 51H1357C1358.66 51 1360 49.6569 1360 48Z" stroke="white" stroke-linecap="round"/>
<path d="M1326 48V35C1326 33.3431 1324.66 32 1323 32H1310C1308.34 32 1307 33.3431 1307 35V48C1307 49.6569 1308.34 51 1310 51H1323C1324.66 51 1326 49.6569 1326 48Z" stroke="white" stroke-linecap="round"/>
<path d="M1292 48V35C1292 33.3431 1290.66 32 1289 32H1276C1274.34 32 1273 33.3431 1273 35V48C1273 49.6569 1274.34 51 1276 51H1289C1290.66 51 1292 49.6569 1292 48Z" stroke="white" stroke-linecap="round"/>
<path d="M1258 48V35C1258 33.3431 1256.66 32 1255 32H1242C1240.34 32 1239 33.3431 1239 35V48C1239 49.6569 1240.34 51 1242 51H1255C1256.66 51 1258 49.6569 1258 48Z" stroke="white" stroke-linecap="round"/>
<path d="M1224 48V35C1224 33.3431 1222.66 32 1221 32H1208C1206.34 32 1205 33.3431 1205 35V48C1205 49.6569 1206.34 51 1208 51H1221C1222.66 51 1224 49.6569 1224 48Z" stroke="white" stroke-linecap="round"/>
<path d="M1190 48V35C1190 33.3431 1188.66 32 1187 32H1174C1172.34 32 1171 33.3431 1171 35V48C1171 49.6569 1172.34 51 1174 51H1187C1188.66 51 1190 49.6569 1190 48Z" stroke="white" stroke-linecap="round"/>
<path d="M1156 48V35C1156 33.3431 1154.66 32 1153 32H1140C1138.34 32 1137 33.3431 1137 35V48C1137 49.6569 1138.34 51 1140 51H1153C1154.66 51 1156 49.6569 1156 48Z" stroke="white" stroke-linecap="round"/>
<path d="M1122 48V35C1122 33.3431 1120.66 32 1119 32H1106C1104.34 32 1103 33.3431 1103 35V48C1103 49.6569 1104.34 51 1106 51H1119C1120.66 51 1122 49.6569 1122 48Z" stroke="white" stroke-linecap="round"/>
<path d="M1088 48V35C1088 33.3431 1086.66 32 1085 32H1072C1070.34 32 1069 33.3431 1069 35V48C1069 49.6569 1070.34 51 1072 51H1085C1086.66 51 1088 49.6569 1088 48Z" stroke="white" stroke-linecap="round"/>
<path d="M1054 48V35C1054 33.3431 1052.66 32 1051 32H1038C1036.34 32 1035 33.3431 1035 35V48C1035 49.6569 1036.34 51 1038 51H1051C1052.66 51 1054 49.6569 1054 48Z" stroke="white" stroke-linecap="round"/>
<path d="M1020 48V35C1020 33.3431 1018.66 32 1017 32H1004C1002.34 32 1001 33.3431 1001 35V48C1001 49.6569 1002.34 51 1004 51H1017C1018.66 51 1020 49.6569 1020 48Z" stroke="white" stroke-linecap="round"/>
</svg>
