<svg width="627" height="143" viewBox="0 0 627 143" fill="none" xmlns="http://www.w3.org/2000/svg">
<path d="M607.718 17.6643C614.928 17.3713 624.454 26.4545 625.741 31.5819C628.537 42.716 607.972 52.3542 597.419 56.1209C568.178 66.5591 506.458 81.2092 496.453 83.4067C483.947 86.1536 419.395 104.832 398.061 112.89C376.728 120.948 303.899 131.203 259.209 137.978C223.457 143.399 114.718 142.19 64.8167 140.908L62.4258 133.034H0.999988L35.2072 124.427L78.426 121.497L94.7939 114.721L16.8162 7.04316L45.1383 1H58.012L170.013 79.3779H193.959H199.071L199.684 79.2314L492.039 9.4238C510.614 5.2119 553.024 -2.00326 574.063 2.83126C600.362 8.87442 607.718 17.6643 607.718 17.6643Z" fill="black"/>
<path d="M78.426 121.497L94.7939 114.721L16.8162 7.04316L45.1383 1H58.012L170.013 79.3779H193.959M78.426 121.497L35.2072 124.427L0.999988 133.034H62.4258M78.426 121.497L152.542 114.721M62.4258 133.034L64.8167 140.908C114.718 142.19 223.457 143.399 259.209 137.978C303.899 131.203 376.728 120.948 398.061 112.89C419.395 104.832 483.947 86.1536 496.453 83.4067C506.458 81.2092 568.178 66.5591 597.419 56.1209C607.972 52.3542 628.537 42.716 625.741 31.5819C624.454 26.4545 614.928 17.3713 607.718 17.6643C607.718 17.6643 600.362 8.87442 574.063 2.83126C553.024 -2.00326 510.614 5.2119 492.039 9.4238L199.684 79.2314M62.4258 133.034H97.7365M462.981 68.0241L372.866 74.7998L199.684 79.2314M247.439 106.297L109.507 85.4211L97.7365 96.4086V83.4067L90.9318 74.7998L112.633 81.026H129.553L193.959 79.3779M193.959 79.3779H199.071L199.684 79.2314M193.959 79.3779L199.684 79.2314" stroke="white" stroke-linecap="round"/>
<path d="M359.808 108.312L343.072 103.917L355.762 94.2109" stroke="white" stroke-linecap="round"/>
<path d="M607.35 17.8481H599.258L597.051 14.9181L603.856 14.1855" stroke="white" stroke-linecap="round"/>
<path d="M598.339 18.7631L595.212 15.4668H592.638L593.005 20.9606L598.339 18.7631Z" stroke="white" stroke-linecap="round"/>
<path d="M591.166 21.51L591.534 15.833H589.695L586.385 21.8762L591.166 21.51Z" stroke="white" stroke-linecap="round"/>
<path d="M407.073 74.7993C409.096 74.9213 412.173 77.9377 413.694 88.5337C414.797 96.2251 415.165 102.298 411.487 103.367M407.073 74.7993C400.452 74.7993 402.107 87.2519 402.843 89.9987C403.508 92.4822 407.073 104.65 411.487 103.367M407.073 74.7993C394.42 71.7227 367.348 82.6737 355.394 88.5337C355.517 94.3327 357.049 106.92 362.199 110.875C367.348 114.831 397.203 107.518 411.487 103.367" stroke="white" stroke-linecap="round"/>
<path d="M256.979 116.355L240.243 111.96L252.933 102.254" stroke="white" stroke-linecap="round"/>
<path d="M304.244 82.8422C306.267 82.9643 309.344 85.9807 310.864 96.5767C311.968 104.268 312.335 110.341 308.657 111.41M304.244 82.8422C297.623 82.8422 299.278 95.2949 300.014 98.0417C300.679 100.525 304.244 112.693 308.657 111.41M304.244 82.8422C291.59 79.7657 264.519 90.7166 252.565 96.5767C252.688 102.376 254.22 114.963 259.37 118.918C264.519 122.874 294.374 115.561 308.657 111.41" stroke="white" stroke-linecap="round"/>
</svg>
