<svg width="34" height="34" viewBox="0 0 34 34" fill="none" xmlns="http://www.w3.org/2000/svg">
<g clip-path="url(#clip0_327_500)">
<path d="M17 0C7.61122 0 0 7.61122 0 17C0 26.3893 7.61122 34 17 34C26.3893 34 34 26.3893 34 17C34 7.61122 26.3893 0 17 0ZM17 31.9085C8.79803 31.9085 2.125 25.202 2.125 16.9999C2.125 8.79796 8.79803 2.12493 17 2.12493C25.202 2.12493 31.875 8.798 31.875 16.9999C31.875 25.2019 25.202 31.9085 17 31.9085ZM23.01 10.99C22.5951 10.5751 21.9226 10.5751 21.5077 10.99L17 15.4976L12.4923 10.99C12.0774 10.5751 11.4049 10.5751 10.9894 10.99C10.5745 11.4049 10.5745 12.0774 10.9894 12.4923L15.4971 17L10.9894 21.5077C10.5745 21.922 10.5745 22.5957 10.9894 23.0101C11.4043 23.425 12.0769 23.425 12.4923 23.0101L17 18.5024L21.5077 23.0101C21.9226 23.425 22.5951 23.425 23.01 23.0101C23.4249 22.5957 23.4249 21.922 23.01 21.5077L18.5024 17L23.01 12.4923C23.4255 12.0769 23.4255 11.4043 23.01 10.99Z" fill="white"/>
</g>
<defs>
<clipPath id="clip0_327_500">
<rect width="34" height="34" fill="white"/>
</clipPath>
</defs>
</svg>
