<svg width="393" height="390" viewBox="0 0 393 390" fill="none" xmlns="http://www.w3.org/2000/svg">
<path d="M25 273L41.4473 270.447L44 254L46.5527 270.447L63 273L46.5527 275.553L44 292L41.4473 275.553L25 273Z" fill="url(#paint0_radial_198_789)"/>
<path d="M36.0972 280.904L41.8765 273.001L36.0972 265.098L44 270.878L51.9028 265.098L46.1235 273.001L51.9028 280.904L44 275.125L36.0972 280.904Z" fill="url(#paint1_radial_198_789)"/>
<path d="M25 116L41.4473 113.447L44 97L46.5527 113.447L63 116L46.5527 118.553L44 135L41.4473 118.553L25 116Z" fill="url(#paint2_radial_198_789)"/>
<path d="M36.0972 123.904L41.8765 116.001L36.0972 108.098L44 113.878L51.9028 108.098L46.1235 116.001L51.9028 123.904L44 118.125L36.0972 123.904Z" fill="url(#paint3_radial_198_789)"/>
<path d="M0 193L16.4473 190.447L19 174L21.5527 190.447L38 193L21.5527 195.553L19 212L16.4473 195.553L0 193Z" fill="url(#paint4_radial_198_789)"/>
<path d="M11.0972 200.904L16.8765 193.001L11.0972 185.098L19 190.878L26.9028 185.098L21.1235 193.001L26.9028 200.904L19 195.125L11.0972 200.904Z" fill="url(#paint5_radial_198_789)"/>
<path d="M368 116L351.553 118.553L349 135L346.447 118.553L330 116L346.447 113.447L349 97L351.553 113.447L368 116Z" fill="url(#paint6_radial_198_789)"/>
<path d="M356.903 108.096L351.123 115.999L356.903 123.902L349 118.122L341.097 123.902L346.877 115.999L341.097 108.096L349 113.875L356.903 108.096Z" fill="url(#paint7_radial_198_789)"/>
<path d="M368 273L351.553 275.553L349 292L346.447 275.553L330 273L346.447 270.447L349 254L351.553 270.447L368 273Z" fill="url(#paint8_radial_198_789)"/>
<path d="M356.903 265.096L351.123 272.999L356.903 280.902L349 275.122L341.097 280.902L346.877 272.999L341.097 265.096L349 270.875L356.903 265.096Z" fill="url(#paint9_radial_198_789)"/>
<path d="M393 196L376.553 198.553L374 215L371.447 198.553L355 196L371.447 193.447L374 177L376.553 193.447L393 196Z" fill="url(#paint10_radial_198_789)"/>
<path d="M381.903 188.096L376.123 195.999L381.903 203.902L374 198.122L366.097 203.902L371.877 195.999L366.097 188.096L374 193.875L381.903 188.096Z" fill="url(#paint11_radial_198_789)"/>
<path d="M118 176L120.553 192.447L137 195L120.553 197.553L118 214L115.447 197.553L99 195L115.447 192.447L118 176Z" fill="url(#paint12_radial_198_789)"/>
<path d="M110.097 187.097L118 192.877L125.903 187.097L120.123 195L125.903 202.903L118 197.123L110.097 202.903L115.876 195L110.097 187.097Z" fill="url(#paint13_radial_198_789)"/>
<path d="M275 176L277.553 192.447L294 195L277.553 197.553L275 214L272.447 197.553L256 195L272.447 192.447L275 176Z" fill="url(#paint14_radial_198_789)"/>
<path d="M267.097 187.097L275 192.877L282.903 187.097L277.123 195L282.903 202.903L275 197.123L267.097 202.903L272.876 195L267.097 187.097Z" fill="url(#paint15_radial_198_789)"/>
<path d="M115 25L117.553 41.4473L134 44L117.553 46.5527L115 63L112.447 46.5527L96 44L112.447 41.4473L115 25Z" fill="url(#paint16_radial_198_789)"/>
<path d="M107.097 36.0972L115 41.8765L122.903 36.0972L117.123 44L122.903 51.9028L115 46.1235L107.097 51.9028L112.876 44L107.097 36.0972Z" fill="url(#paint17_radial_198_789)"/>
<path d="M272 25L274.553 41.4473L291 44L274.553 46.5527L272 63L269.447 46.5527L253 44L269.447 41.4473L272 25Z" fill="url(#paint18_radial_198_789)"/>
<path d="M264.097 36.0972L272 41.8765L279.903 36.0972L274.123 44L279.903 51.9028L272 46.1235L264.097 51.9028L269.876 44L264.097 36.0972Z" fill="url(#paint19_radial_198_789)"/>
<path d="M195 0L197.553 16.4473L214 19L197.553 21.5527L195 38L192.447 21.5527L176 19L192.447 16.4473L195 0Z" fill="url(#paint20_radial_198_789)"/>
<path d="M187.097 11.0972L195 16.8765L202.903 11.0972L197.123 19L202.903 26.9028L195 21.1235L187.097 26.9028L192.876 19L187.097 11.0972Z" fill="url(#paint21_radial_198_789)"/>
<path d="M112 77L114.553 93.4473L131 96L114.553 98.5527L112 115L109.447 98.5527L93 96L109.447 93.4473L112 77Z" fill="url(#paint22_radial_198_789)"/>
<path d="M104.097 88.0972L112 93.8765L119.903 88.0972L114.123 96L119.903 103.903L112 98.1235L104.097 103.903L109.876 96L104.097 88.0972Z" fill="url(#paint23_radial_198_789)"/>
<path d="M195 80L197.553 96.4473L214 99L197.553 101.553L195 118L192.447 101.553L176 99L192.447 96.4473L195 80Z" fill="url(#paint24_radial_198_789)"/>
<path d="M187.097 91.0972L195 96.8765L202.903 91.0972L197.123 99L202.903 106.903L195 101.123L187.097 106.903L192.876 99L187.097 91.0972Z" fill="url(#paint25_radial_198_789)"/>
<path d="M275 365L272.447 348.553L256 346L272.447 343.447L275 327L277.553 343.447L294 346L277.553 348.553L275 365Z" fill="url(#paint26_radial_198_789)"/>
<path d="M282.903 353.903L275 348.123L267.097 353.903L272.877 346L267.097 338.097L275 343.877L282.903 338.097L277.124 346L282.903 353.903Z" fill="url(#paint27_radial_198_789)"/>
<path d="M118 365L115.447 348.553L99 346L115.447 343.447L118 327L120.553 343.447L137 346L120.553 348.553L118 365Z" fill="url(#paint28_radial_198_789)"/>
<path d="M125.903 353.903L118 348.123L110.097 353.903L115.877 346L110.097 338.097L118 343.877L125.903 338.097L120.124 346L125.903 353.903Z" fill="url(#paint29_radial_198_789)"/>
<path d="M195 390L192.447 373.553L176 371L192.447 368.447L195 352L197.553 368.447L214 371L197.553 373.553L195 390Z" fill="url(#paint30_radial_198_789)"/>
<path d="M202.903 378.903L195 373.123L187.097 378.903L192.877 371L187.097 363.097L195 368.877L202.903 363.097L197.124 371L202.903 378.903Z" fill="url(#paint31_radial_198_789)"/>
<path d="M278 313L275.447 296.553L259 294L275.447 291.447L278 275L280.553 291.447L297 294L280.553 296.553L278 313Z" fill="url(#paint32_radial_198_789)"/>
<path d="M285.903 301.903L278 296.123L270.097 301.903L275.877 294L270.097 286.097L278 291.877L285.903 286.097L280.124 294L285.903 301.903Z" fill="url(#paint33_radial_198_789)"/>
<path d="M195 310L192.447 293.553L176 291L192.447 288.447L195 272L197.553 288.447L214 291L197.553 293.553L195 310Z" fill="url(#paint34_radial_198_789)"/>
<path d="M202.903 298.903L195 293.123L187.097 298.903L192.877 291L187.097 283.097L195 288.877L202.903 283.097L197.124 291L202.903 298.903Z" fill="url(#paint35_radial_198_789)"/>
<defs>
<radialGradient id="paint0_radial_198_789" cx="0" cy="0" r="1" gradientUnits="userSpaceOnUse" gradientTransform="translate(44 273) scale(19)">
<stop stop-color="white"/>
<stop offset="1" stop-color="#94FDFF" stop-opacity="0"/>
</radialGradient>
<radialGradient id="paint1_radial_198_789" cx="0" cy="0" r="1" gradientUnits="userSpaceOnUse" gradientTransform="translate(44 273.001) rotate(-45) scale(11.1762)">
<stop stop-color="white"/>
<stop offset="1" stop-color="#94FDFF" stop-opacity="0"/>
<stop offset="1" stop-color="#94FDFF" stop-opacity="0"/>
</radialGradient>
<radialGradient id="paint2_radial_198_789" cx="0" cy="0" r="1" gradientUnits="userSpaceOnUse" gradientTransform="translate(44 116) scale(19)">
<stop stop-color="white"/>
<stop offset="1" stop-color="#94FDFF" stop-opacity="0"/>
</radialGradient>
<radialGradient id="paint3_radial_198_789" cx="0" cy="0" r="1" gradientUnits="userSpaceOnUse" gradientTransform="translate(44 116.001) rotate(-45) scale(11.1762)">
<stop stop-color="white"/>
<stop offset="1" stop-color="#94FDFF" stop-opacity="0"/>
<stop offset="1" stop-color="#94FDFF" stop-opacity="0"/>
</radialGradient>
<radialGradient id="paint4_radial_198_789" cx="0" cy="0" r="1" gradientUnits="userSpaceOnUse" gradientTransform="translate(19 193) scale(19)">
<stop stop-color="white"/>
<stop offset="1" stop-color="#94FDFF" stop-opacity="0"/>
</radialGradient>
<radialGradient id="paint5_radial_198_789" cx="0" cy="0" r="1" gradientUnits="userSpaceOnUse" gradientTransform="translate(19 193.001) rotate(-45) scale(11.1762)">
<stop stop-color="white"/>
<stop offset="1" stop-color="#94FDFF" stop-opacity="0"/>
<stop offset="1" stop-color="#94FDFF" stop-opacity="0"/>
</radialGradient>
<radialGradient id="paint6_radial_198_789" cx="0" cy="0" r="1" gradientUnits="userSpaceOnUse" gradientTransform="translate(349 116) rotate(180) scale(19)">
<stop stop-color="white"/>
<stop offset="1" stop-color="#94FDFF" stop-opacity="0"/>
</radialGradient>
<radialGradient id="paint7_radial_198_789" cx="0" cy="0" r="1" gradientUnits="userSpaceOnUse" gradientTransform="translate(349 115.999) rotate(135) scale(11.1762)">
<stop stop-color="white"/>
<stop offset="1" stop-color="#94FDFF" stop-opacity="0"/>
<stop offset="1" stop-color="#94FDFF" stop-opacity="0"/>
</radialGradient>
<radialGradient id="paint8_radial_198_789" cx="0" cy="0" r="1" gradientUnits="userSpaceOnUse" gradientTransform="translate(349 273) rotate(180) scale(19)">
<stop stop-color="white"/>
<stop offset="1" stop-color="#94FDFF" stop-opacity="0"/>
</radialGradient>
<radialGradient id="paint9_radial_198_789" cx="0" cy="0" r="1" gradientUnits="userSpaceOnUse" gradientTransform="translate(349 272.999) rotate(135) scale(11.1762)">
<stop stop-color="white"/>
<stop offset="1" stop-color="#94FDFF" stop-opacity="0"/>
<stop offset="1" stop-color="#94FDFF" stop-opacity="0"/>
</radialGradient>
<radialGradient id="paint10_radial_198_789" cx="0" cy="0" r="1" gradientUnits="userSpaceOnUse" gradientTransform="translate(374 196) rotate(180) scale(19)">
<stop stop-color="white"/>
<stop offset="1" stop-color="#94FDFF" stop-opacity="0"/>
</radialGradient>
<radialGradient id="paint11_radial_198_789" cx="0" cy="0" r="1" gradientUnits="userSpaceOnUse" gradientTransform="translate(374 195.999) rotate(135) scale(11.1762)">
<stop stop-color="white"/>
<stop offset="1" stop-color="#94FDFF" stop-opacity="0"/>
<stop offset="1" stop-color="#94FDFF" stop-opacity="0"/>
</radialGradient>
<radialGradient id="paint12_radial_198_789" cx="0" cy="0" r="1" gradientUnits="userSpaceOnUse" gradientTransform="translate(118 195) rotate(90) scale(19)">
<stop stop-color="white"/>
<stop offset="1" stop-color="#94FDFF" stop-opacity="0"/>
</radialGradient>
<radialGradient id="paint13_radial_198_789" cx="0" cy="0" r="1" gradientUnits="userSpaceOnUse" gradientTransform="translate(118 195) rotate(45) scale(11.1762)">
<stop stop-color="white"/>
<stop offset="1" stop-color="#94FDFF" stop-opacity="0"/>
<stop offset="1" stop-color="#94FDFF" stop-opacity="0"/>
</radialGradient>
<radialGradient id="paint14_radial_198_789" cx="0" cy="0" r="1" gradientUnits="userSpaceOnUse" gradientTransform="translate(275 195) rotate(90) scale(19)">
<stop stop-color="white"/>
<stop offset="1" stop-color="#94FDFF" stop-opacity="0"/>
</radialGradient>
<radialGradient id="paint15_radial_198_789" cx="0" cy="0" r="1" gradientUnits="userSpaceOnUse" gradientTransform="translate(275 195) rotate(45) scale(11.1762)">
<stop stop-color="white"/>
<stop offset="1" stop-color="#94FDFF" stop-opacity="0"/>
<stop offset="1" stop-color="#94FDFF" stop-opacity="0"/>
</radialGradient>
<radialGradient id="paint16_radial_198_789" cx="0" cy="0" r="1" gradientUnits="userSpaceOnUse" gradientTransform="translate(115 44) rotate(90) scale(19)">
<stop stop-color="white"/>
<stop offset="1" stop-color="#94FDFF" stop-opacity="0"/>
</radialGradient>
<radialGradient id="paint17_radial_198_789" cx="0" cy="0" r="1" gradientUnits="userSpaceOnUse" gradientTransform="translate(115 44) rotate(45) scale(11.1762)">
<stop stop-color="white"/>
<stop offset="1" stop-color="#94FDFF" stop-opacity="0"/>
<stop offset="1" stop-color="#94FDFF" stop-opacity="0"/>
</radialGradient>
<radialGradient id="paint18_radial_198_789" cx="0" cy="0" r="1" gradientUnits="userSpaceOnUse" gradientTransform="translate(272 44) rotate(90) scale(19)">
<stop stop-color="white"/>
<stop offset="1" stop-color="#94FDFF" stop-opacity="0"/>
</radialGradient>
<radialGradient id="paint19_radial_198_789" cx="0" cy="0" r="1" gradientUnits="userSpaceOnUse" gradientTransform="translate(272 44) rotate(45) scale(11.1762)">
<stop stop-color="white"/>
<stop offset="1" stop-color="#94FDFF" stop-opacity="0"/>
<stop offset="1" stop-color="#94FDFF" stop-opacity="0"/>
</radialGradient>
<radialGradient id="paint20_radial_198_789" cx="0" cy="0" r="1" gradientUnits="userSpaceOnUse" gradientTransform="translate(195 19) rotate(90) scale(19)">
<stop stop-color="white"/>
<stop offset="1" stop-color="#94FDFF" stop-opacity="0"/>
</radialGradient>
<radialGradient id="paint21_radial_198_789" cx="0" cy="0" r="1" gradientUnits="userSpaceOnUse" gradientTransform="translate(195 19) rotate(45) scale(11.1762)">
<stop stop-color="white"/>
<stop offset="1" stop-color="#94FDFF" stop-opacity="0"/>
<stop offset="1" stop-color="#94FDFF" stop-opacity="0"/>
</radialGradient>
<radialGradient id="paint22_radial_198_789" cx="0" cy="0" r="1" gradientUnits="userSpaceOnUse" gradientTransform="translate(112 96) rotate(90) scale(19)">
<stop stop-color="white"/>
<stop offset="1" stop-color="#94FDFF" stop-opacity="0"/>
</radialGradient>
<radialGradient id="paint23_radial_198_789" cx="0" cy="0" r="1" gradientUnits="userSpaceOnUse" gradientTransform="translate(112 96) rotate(45) scale(11.1762)">
<stop stop-color="white"/>
<stop offset="1" stop-color="#94FDFF" stop-opacity="0"/>
<stop offset="1" stop-color="#94FDFF" stop-opacity="0"/>
</radialGradient>
<radialGradient id="paint24_radial_198_789" cx="0" cy="0" r="1" gradientUnits="userSpaceOnUse" gradientTransform="translate(195 99) rotate(90) scale(19)">
<stop stop-color="white"/>
<stop offset="1" stop-color="#94FDFF" stop-opacity="0"/>
</radialGradient>
<radialGradient id="paint25_radial_198_789" cx="0" cy="0" r="1" gradientUnits="userSpaceOnUse" gradientTransform="translate(195 99) rotate(45) scale(11.1762)">
<stop stop-color="white"/>
<stop offset="1" stop-color="#94FDFF" stop-opacity="0"/>
<stop offset="1" stop-color="#94FDFF" stop-opacity="0"/>
</radialGradient>
<radialGradient id="paint26_radial_198_789" cx="0" cy="0" r="1" gradientUnits="userSpaceOnUse" gradientTransform="translate(275 346) rotate(-90) scale(19)">
<stop stop-color="white"/>
<stop offset="1" stop-color="#94FDFF" stop-opacity="0"/>
</radialGradient>
<radialGradient id="paint27_radial_198_789" cx="0" cy="0" r="1" gradientUnits="userSpaceOnUse" gradientTransform="translate(275 346) rotate(-135) scale(11.1762)">
<stop stop-color="white"/>
<stop offset="1" stop-color="#94FDFF" stop-opacity="0"/>
<stop offset="1" stop-color="#94FDFF" stop-opacity="0"/>
</radialGradient>
<radialGradient id="paint28_radial_198_789" cx="0" cy="0" r="1" gradientUnits="userSpaceOnUse" gradientTransform="translate(118 346) rotate(-90) scale(19)">
<stop stop-color="white"/>
<stop offset="1" stop-color="#94FDFF" stop-opacity="0"/>
</radialGradient>
<radialGradient id="paint29_radial_198_789" cx="0" cy="0" r="1" gradientUnits="userSpaceOnUse" gradientTransform="translate(118 346) rotate(-135) scale(11.1762)">
<stop stop-color="white"/>
<stop offset="1" stop-color="#94FDFF" stop-opacity="0"/>
<stop offset="1" stop-color="#94FDFF" stop-opacity="0"/>
</radialGradient>
<radialGradient id="paint30_radial_198_789" cx="0" cy="0" r="1" gradientUnits="userSpaceOnUse" gradientTransform="translate(195 371) rotate(-90) scale(19)">
<stop stop-color="white"/>
<stop offset="1" stop-color="#94FDFF" stop-opacity="0"/>
</radialGradient>
<radialGradient id="paint31_radial_198_789" cx="0" cy="0" r="1" gradientUnits="userSpaceOnUse" gradientTransform="translate(195 371) rotate(-135) scale(11.1762)">
<stop stop-color="white"/>
<stop offset="1" stop-color="#94FDFF" stop-opacity="0"/>
<stop offset="1" stop-color="#94FDFF" stop-opacity="0"/>
</radialGradient>
<radialGradient id="paint32_radial_198_789" cx="0" cy="0" r="1" gradientUnits="userSpaceOnUse" gradientTransform="translate(278 294) rotate(-90) scale(19)">
<stop stop-color="white"/>
<stop offset="1" stop-color="#94FDFF" stop-opacity="0"/>
</radialGradient>
<radialGradient id="paint33_radial_198_789" cx="0" cy="0" r="1" gradientUnits="userSpaceOnUse" gradientTransform="translate(278 294) rotate(-135) scale(11.1762)">
<stop stop-color="white"/>
<stop offset="1" stop-color="#94FDFF" stop-opacity="0"/>
<stop offset="1" stop-color="#94FDFF" stop-opacity="0"/>
</radialGradient>
<radialGradient id="paint34_radial_198_789" cx="0" cy="0" r="1" gradientUnits="userSpaceOnUse" gradientTransform="translate(195 291) rotate(-90) scale(19)">
<stop stop-color="white"/>
<stop offset="1" stop-color="#94FDFF" stop-opacity="0"/>
</radialGradient>
<radialGradient id="paint35_radial_198_789" cx="0" cy="0" r="1" gradientUnits="userSpaceOnUse" gradientTransform="translate(195 291) rotate(-135) scale(11.1762)">
<stop stop-color="white"/>
<stop offset="1" stop-color="#94FDFF" stop-opacity="0"/>
<stop offset="1" stop-color="#94FDFF" stop-opacity="0"/>
</radialGradient>
</defs>
</svg>
