<svg width="352" height="353" viewBox="0 0 352 353" fill="none" xmlns="http://www.w3.org/2000/svg">
<path d="M271.638 132.063H272.138V90.514H301.411H301.427L301.443 90.513H301.444L301.449 90.512L301.472 90.511C301.494 90.51 301.527 90.508 301.572 90.507C301.661 90.504 301.796 90.5 301.974 90.5C302.328 90.498 302.853 90.507 303.523 90.551C304.864 90.638 306.785 90.863 309.094 91.412C313.71 92.511 319.875 94.91 326.044 100.113C338.37 110.508 350.822 132.195 350.822 177.427C350.822 222.639 336.562 243.483 322.441 253.06C315.367 257.858 308.292 259.854 302.985 260.65C300.332 261.048 298.123 261.145 296.58 261.144C295.809 261.143 295.204 261.118 294.795 261.093C294.59 261.08 294.434 261.068 294.33 261.059C294.278 261.054 294.239 261.05 294.214 261.048L294.186 261.045L294.18 261.044H294.178L294.15 261.041H294.122H175.014H174.514V261.541V273.655V274.155H175.014H259.787L259.888 314.019L259.889 314.054L259.893 314.088L259.894 314.091L259.896 314.108C259.898 314.124 259.901 314.149 259.904 314.182C259.908 314.219 259.913 314.265 259.918 314.322C259.922 314.37 259.926 314.426 259.93 314.489C259.948 314.761 259.964 315.164 259.953 315.681C259.932 316.716 259.804 318.201 259.376 319.988C258.522 323.558 256.468 328.343 251.65 333.141C242.008 342.743 221.218 352.473 176.583 352.473C129.961 352.473 108.597 340.749 98.864 329.17C93.995 323.377 92.01 317.591 91.24 313.26C90.855 311.094 90.774 309.291 90.789 308.034C90.796 307.405 90.827 306.913 90.856 306.581C90.871 306.415 90.885 306.289 90.895 306.205C90.9 306.163 90.904 306.132 90.907 306.112L90.91 306.091L90.911 306.086L90.916 306.048V306.01V228.394C90.916 216.749 93.862 208.098 98.254 201.662C102.649 195.222 108.512 190.969 114.392 188.16C120.274 185.35 126.162 183.989 130.585 183.332C132.795 183.004 134.636 182.852 135.922 182.781C136.565 182.746 137.069 182.732 137.411 182.726C137.582 182.723 137.713 182.723 137.8 182.723C137.818 182.723 137.835 182.723 137.849 182.723C137.869 182.723 137.885 182.723 137.898 182.723H137.922H137.927M271.638 132.063C271.95 132.053 272.067 132.05 272.111 132.049C272.138 132.048 272.138 132.048 272.138 132.048V132.05V132.058L272.139 132.088C272.139 132.113 272.14 132.15 272.141 132.199C272.142 132.297 272.144 132.441 272.143 132.627C272.143 133.001 272.135 133.546 272.107 134.239C272.051 135.624 271.914 137.599 271.59 139.968C270.943 144.704 269.547 151.028 266.547 157.357C263.547 163.689 258.938 170.037 251.863 174.801C244.786 179.566 235.274 182.723 222.504 182.723H137.936H137.927M271.638 132.063C271.638 132.063 273.236 182.223 222.504 182.223H137.936M271.638 132.063V90.514M137.927 182.723C137.927 182.723 137.928 182.723 137.928 182.716L137.927 182.723ZM213.394 171.247H213.395L213.4 171.248H213.424C213.446 171.248 213.478 171.248 213.522 171.248C213.609 171.248 213.74 171.247 213.911 171.245C214.253 171.239 214.757 171.224 215.4 171.189C216.687 171.119 218.527 170.967 220.737 170.639C225.16 169.982 231.048 168.621 236.93 165.811C242.81 163.002 248.673 158.749 253.068 152.309C257.46 145.873 260.406 137.221 260.406 125.577V47.9607V47.9225L260.411 47.8845L260.412 47.88L260.415 47.8584C260.417 47.8455 260.419 47.8281 260.422 47.8062C260.424 47.794 260.425 47.7805 260.427 47.7657C260.437 47.6822 260.451 47.556 260.466 47.3898C260.495 47.0574 260.526 46.5656 260.533 45.937C260.548 44.6796 260.467 42.8767 260.082 40.7104C259.312 36.3794 257.327 30.5939 252.458 24.8011C242.725 13.2219 221.361 1.49805 174.739 1.49805C130.104 1.49805 109.314 11.2279 99.672 20.8297C94.854 25.6279 92.8 30.4123 91.946 33.9824C91.518 35.7694 91.39 37.2551 91.369 38.2893C91.358 38.8063 91.374 39.2102 91.392 39.482C91.401 39.6179 91.41 39.7208 91.418 39.7882C91.421 39.822 91.424 39.8468 91.426 39.8625L91.428 39.8792L91.429 39.8826L91.433 39.9165L91.434 39.9515L91.535 79.8154H176.308H176.808V80.3154V92.43V92.93H176.308H57.2002H57.1718L57.1436 92.927H57.1425L57.1362 92.926L57.1083 92.923C57.0939 92.922 57.0753 92.92 57.0524 92.918C57.0348 92.916 57.0146 92.914 56.9921 92.912C56.8882 92.903 56.7321 92.891 56.5273 92.878C56.1176 92.853 55.5133 92.827 54.742 92.827C53.1992 92.825 50.99 92.923 48.3369 93.321C43.03 94.117 35.9552 96.113 28.8809 100.911C14.7596 110.488 0.500244 131.332 0.500244 176.543C0.500244 221.776 12.9518 243.462 25.2779 253.858C31.4472 259.061 37.6116 261.46 42.2282 262.558C44.5369 263.108 46.4584 263.332 47.7988 263.42C48.4689 263.463 48.9935 263.473 49.3483 263.471C49.5257 263.47 49.6607 263.467 49.7501 263.464C49.7948 263.462 49.8281 263.461 49.8497 263.46L49.8731 263.458H49.879L49.8948 263.457H49.9109H79.184V221.915V221.912L79.183 221.883C79.183 221.858 79.182 221.82 79.181 221.771C79.18 221.674 79.178 221.53 79.179 221.343C79.179 220.97 79.187 220.425 79.215 219.732C79.271 218.347 79.408 216.372 79.732 214.002C80.379 209.266 81.775 202.943 84.775 196.613C87.775 190.281 92.384 183.933 99.459 179.17C106.536 174.405 116.048 171.247 128.818 171.247H213.386H213.394ZM213.394 171.247C213.394 171.247 213.394 171.247 213.394 171.256V171.247ZM143.559 43.5607C143.559 34.7511 136.474 27.6314 127.718 27.6314C118.947 27.6314 111.876 34.7514 111.876 43.5607C111.876 52.3557 118.947 59.4754 127.718 59.4754C136.473 59.4754 143.559 52.356 143.559 43.5607ZM207.763 310.41C207.763 319.22 214.848 326.339 223.604 326.339C232.375 326.339 239.446 319.219 239.446 310.41C239.446 301.615 232.375 294.495 223.604 294.495C214.849 294.495 207.763 301.615 207.763 310.41Z" stroke="white"/>
</svg>
