<svg width="526" height="15" viewBox="0 0 526 15" fill="none" xmlns="http://www.w3.org/2000/svg">
<rect x="0.5" y="7" width="242" height="1" rx="0.5" fill="#3B3B3B"/>
<rect x="283.5" y="7" width="242" height="1" rx="0.5" fill="#3B3B3B"/>
<path d="M258.132 12.12C257.54 12.12 256.992 12.016 256.488 11.808C255.992 11.592 255.556 11.292 255.18 10.908C254.812 10.524 254.524 10.072 254.316 9.552C254.116 9.024 254.016 8.448 254.016 7.824C254.016 7.2 254.116 6.628 254.316 6.108C254.524 5.58 254.812 5.124 255.18 4.74C255.556 4.348 255.992 4.048 256.488 3.84C256.992 3.624 257.54 3.516 258.132 3.516C258.732 3.516 259.28 3.624 259.776 3.84C260.28 4.048 260.716 4.348 261.084 4.74C261.46 5.124 261.748 5.58 261.948 6.108C262.156 6.628 262.26 7.2 262.26 7.824C262.26 8.44 262.156 9.012 261.948 9.54C261.748 10.06 261.46 10.516 261.084 10.908C260.716 11.292 260.28 11.592 259.776 11.808C259.28 12.016 258.732 12.12 258.132 12.12ZM258.132 11.196C258.588 11.196 259.008 11.116 259.392 10.956C259.784 10.788 260.12 10.552 260.4 10.248C260.68 9.944 260.896 9.588 261.048 9.18C261.208 8.764 261.288 8.312 261.288 7.824C261.288 7.328 261.208 6.876 261.048 6.468C260.896 6.052 260.68 5.692 260.4 5.388C260.12 5.084 259.784 4.848 259.392 4.68C259.008 4.512 258.588 4.428 258.132 4.428C257.676 4.428 257.252 4.512 256.86 4.68C256.476 4.848 256.144 5.084 255.864 5.388C255.584 5.692 255.368 6.052 255.216 6.468C255.064 6.876 254.988 7.328 254.988 7.824C254.988 8.312 255.064 8.764 255.216 9.18C255.368 9.588 255.584 9.944 255.864 10.248C256.144 10.552 256.476 10.788 256.86 10.956C257.252 11.116 257.676 11.196 258.132 11.196ZM265.886 12V3.6H269.174C269.662 3.6 270.102 3.716 270.494 3.948C270.894 4.172 271.21 4.48 271.442 4.872C271.674 5.264 271.79 5.708 271.79 6.204C271.79 6.668 271.678 7.088 271.454 7.464C271.23 7.84 270.926 8.14 270.542 8.364C270.158 8.58 269.726 8.688 269.246 8.688H266.822V12H265.886ZM271.01 12L268.898 8.304L269.798 7.992L272.126 12H271.01ZM266.822 7.776H269.33C269.626 7.776 269.886 7.708 270.11 7.572C270.334 7.436 270.51 7.252 270.638 7.02C270.766 6.78 270.83 6.508 270.83 6.204C270.83 5.876 270.754 5.584 270.602 5.328C270.45 5.072 270.238 4.872 269.966 4.728C269.702 4.584 269.398 4.512 269.054 4.512H266.822V7.776Z" fill="#3B3B3B"/>
</svg>
