<svg width="152" height="35" viewBox="0 0 152 35" fill="none" xmlns="http://www.w3.org/2000/svg">
<rect x="0.5" y="0.5" width="151" height="34" rx="17" fill="white" stroke="white"/>
<path d="M44.591 22.12C43.991 22.12 43.439 22.016 42.935 21.808C42.431 21.592 41.995 21.292 41.627 20.908C41.259 20.516 40.971 20.056 40.763 19.528C40.563 19 40.463 18.424 40.463 17.8C40.463 17.184 40.563 16.62 40.763 16.108C40.971 15.588 41.263 15.136 41.639 14.752C42.015 14.36 42.451 14.06 42.947 13.852C43.443 13.644 43.987 13.54 44.579 13.54C44.971 13.54 45.359 13.604 45.743 13.732C46.127 13.852 46.479 14.02 46.799 14.236C47.127 14.452 47.395 14.7 47.603 14.98L46.955 15.652C46.755 15.412 46.523 15.204 46.259 15.028C46.003 14.852 45.731 14.716 45.443 14.62C45.155 14.524 44.867 14.476 44.579 14.476C44.131 14.476 43.711 14.56 43.319 14.728C42.935 14.888 42.603 15.116 42.323 15.412C42.043 15.708 41.823 16.06 41.663 16.468C41.511 16.876 41.435 17.32 41.435 17.8C41.435 18.296 41.511 18.752 41.663 19.168C41.823 19.584 42.047 19.944 42.335 20.248C42.631 20.544 42.975 20.776 43.367 20.944C43.767 21.104 44.211 21.184 44.699 21.184C44.987 21.184 45.275 21.144 45.563 21.064C45.851 20.976 46.115 20.856 46.355 20.704C46.595 20.552 46.799 20.38 46.967 20.188L47.447 20.968C47.263 21.192 47.015 21.392 46.703 21.568C46.399 21.736 46.063 21.872 45.695 21.976C45.327 22.072 44.959 22.12 44.591 22.12ZM54.4884 22.12C53.8964 22.12 53.3484 22.016 52.8444 21.808C52.3484 21.592 51.9124 21.292 51.5364 20.908C51.1684 20.524 50.8804 20.072 50.6724 19.552C50.4724 19.024 50.3724 18.448 50.3724 17.824C50.3724 17.2 50.4724 16.628 50.6724 16.108C50.8804 15.58 51.1684 15.124 51.5364 14.74C51.9124 14.348 52.3484 14.048 52.8444 13.84C53.3484 13.624 53.8964 13.516 54.4884 13.516C55.0884 13.516 55.6364 13.624 56.1324 13.84C56.6364 14.048 57.0724 14.348 57.4404 14.74C57.8164 15.124 58.1044 15.58 58.3044 16.108C58.5124 16.628 58.6164 17.2 58.6164 17.824C58.6164 18.44 58.5124 19.012 58.3044 19.54C58.1044 20.06 57.8164 20.516 57.4404 20.908C57.0724 21.292 56.6364 21.592 56.1324 21.808C55.6364 22.016 55.0884 22.12 54.4884 22.12ZM54.4884 21.196C54.9444 21.196 55.3644 21.116 55.7484 20.956C56.1404 20.788 56.4764 20.552 56.7564 20.248C57.0364 19.944 57.2524 19.588 57.4044 19.18C57.5644 18.764 57.6444 18.312 57.6444 17.824C57.6444 17.328 57.5644 16.876 57.4044 16.468C57.2524 16.052 57.0364 15.692 56.7564 15.388C56.4764 15.084 56.1404 14.848 55.7484 14.68C55.3644 14.512 54.9444 14.428 54.4884 14.428C54.0324 14.428 53.6084 14.512 53.2164 14.68C52.8324 14.848 52.5004 15.084 52.2204 15.388C51.9404 15.692 51.7244 16.052 51.5724 16.468C51.4204 16.876 51.3444 17.328 51.3444 17.824C51.3444 18.312 51.4204 18.764 51.5724 19.18C51.7244 19.588 51.9404 19.944 52.2204 20.248C52.5004 20.552 52.8324 20.788 53.2164 20.956C53.6084 21.116 54.0324 21.196 54.4884 21.196ZM62.2423 22V13.6H63.0943L68.5903 20.872L68.4223 21.088C68.3983 20.96 68.3783 20.768 68.3623 20.512C68.3543 20.256 68.3423 19.968 68.3263 19.648C68.3183 19.32 68.3103 18.98 68.3023 18.628C68.2943 18.276 68.2863 17.932 68.2783 17.596C68.2783 17.26 68.2783 16.956 68.2783 16.684V13.6H69.2143V22H68.3383L62.8663 14.824L63.0103 14.572C63.0343 14.892 63.0543 15.208 63.0703 15.52C63.0943 15.832 63.1103 16.132 63.1183 16.42C63.1343 16.708 63.1463 16.972 63.1543 17.212C63.1623 17.452 63.1663 17.656 63.1663 17.824C63.1743 17.992 63.1783 18.112 63.1783 18.184V22H62.2423ZM75.0116 22V14.512H72.6116V13.6H78.4436V14.512H75.9476V22H75.0116ZM80.293 22L83.509 13.6H84.577L87.769 22H86.749L84.697 16.552C84.641 16.4 84.577 16.224 84.505 16.024C84.441 15.816 84.369 15.604 84.289 15.388C84.217 15.164 84.145 14.948 84.073 14.74C84.009 14.532 83.949 14.348 83.893 14.188H84.133C84.069 14.388 84.001 14.592 83.929 14.8C83.865 15 83.797 15.204 83.725 15.412C83.653 15.612 83.581 15.812 83.509 16.012C83.437 16.212 83.365 16.412 83.293 16.612L81.253 22H80.293ZM81.661 19.684L82.009 18.772H85.981L86.365 19.684H81.661ZM94.3488 22.12C93.7488 22.12 93.1968 22.016 92.6928 21.808C92.1888 21.592 91.7528 21.292 91.3848 20.908C91.0168 20.516 90.7288 20.056 90.5208 19.528C90.3208 19 90.2208 18.424 90.2208 17.8C90.2208 17.184 90.3208 16.62 90.5208 16.108C90.7288 15.588 91.0208 15.136 91.3968 14.752C91.7728 14.36 92.2088 14.06 92.7048 13.852C93.2008 13.644 93.7448 13.54 94.3368 13.54C94.7288 13.54 95.1168 13.604 95.5008 13.732C95.8848 13.852 96.2368 14.02 96.5568 14.236C96.8848 14.452 97.1528 14.7 97.3608 14.98L96.7128 15.652C96.5128 15.412 96.2808 15.204 96.0168 15.028C95.7608 14.852 95.4888 14.716 95.2008 14.62C94.9128 14.524 94.6248 14.476 94.3368 14.476C93.8888 14.476 93.4688 14.56 93.0768 14.728C92.6928 14.888 92.3608 15.116 92.0808 15.412C91.8008 15.708 91.5808 16.06 91.4208 16.468C91.2688 16.876 91.1928 17.32 91.1928 17.8C91.1928 18.296 91.2688 18.752 91.4208 19.168C91.5808 19.584 91.8048 19.944 92.0928 20.248C92.3888 20.544 92.7328 20.776 93.1248 20.944C93.5248 21.104 93.9688 21.184 94.4568 21.184C94.7448 21.184 95.0328 21.144 95.3208 21.064C95.6088 20.976 95.8728 20.856 96.1128 20.704C96.3528 20.552 96.5568 20.38 96.7248 20.188L97.2048 20.968C97.0208 21.192 96.7728 21.392 96.4608 21.568C96.1568 21.736 95.8208 21.872 95.4528 21.976C95.0848 22.072 94.7168 22.12 94.3488 22.12ZM102.302 22V14.512H99.9022V13.6H105.734V14.512H103.238V22H102.302ZM114.281 22V13.6H115.193L118.421 18.844L117.989 18.832L121.253 13.6H122.105V22H121.169V18.16C121.169 17.44 121.181 16.792 121.205 16.216C121.229 15.64 121.273 15.068 121.337 14.5L121.505 14.836L118.493 19.564H117.845L114.917 14.896L115.049 14.5C115.113 15.036 115.157 15.588 115.181 16.156C115.205 16.716 115.217 17.384 115.217 18.16V22H114.281ZM126.381 22V13.6H131.469V14.512H127.317V21.088H131.445V22H126.381ZM126.813 18.136V17.224H130.797V18.136H126.813Z" fill="black"/>
<g clip-path="url(#clip0_339_697)">
<path d="M29.1517 12.6401H18.2183C17.6225 12.662 17.1469 13.1376 17.125 13.7335V21.3868C17.1469 21.9827 17.6225 22.4583 18.2183 22.4801H29.1517C29.7475 22.4583 30.2231 21.9827 30.245 21.3868V13.7335C30.2349 13.4467 30.1165 13.1744 29.9136 12.9715C29.7107 12.7686 29.4384 12.6502 29.1517 12.6401ZM29.1517 21.3868H18.2183V13.7335H29.1517V21.3868ZM24.7783 20.2935V19.6101C24.7783 18.7027 22.9525 18.2435 22.045 18.2435C21.1375 18.2435 19.3117 18.7027 19.3117 19.6101V20.2935H24.7783ZM22.045 14.8268C21.6825 14.8268 21.3349 14.9708 21.0786 15.2271C20.8223 15.4834 20.6783 15.831 20.6783 16.1935C20.6783 16.3729 20.7137 16.5507 20.7824 16.7165C20.851 16.8823 20.9517 17.0329 21.0786 17.1598C21.3349 17.4161 21.6825 17.5601 22.045 17.5601C22.2245 17.5601 22.4022 17.5248 22.568 17.4561C22.7338 17.3874 22.8845 17.2868 23.0114 17.1598C23.1383 17.0329 23.239 16.8823 23.3076 16.7165C23.3763 16.5507 23.4117 16.3729 23.4117 16.1935C23.4117 16.014 23.3763 15.8363 23.3076 15.6705C23.239 15.5047 23.1383 15.354 23.0114 15.2271C22.8845 15.1002 22.7338 14.9995 22.568 14.9308C22.4022 14.8622 22.2245 14.8268 22.045 14.8268ZM24.7783 14.8268V15.3735H28.0583V14.8268H24.7783ZM24.7783 15.9201V16.4668H28.0583V15.9201H24.7783ZM24.7783 17.0135V17.5601H26.965V17.0135H24.7783Z" fill="black"/>
</g>
<defs>
<clipPath id="clip0_339_697">
<rect width="13.12" height="13.12" fill="white" transform="translate(17.125 11)"/>
</clipPath>
</defs>
</svg>
